<svg width="76" height="40" viewBox="0 0 76 40" fill="none" xmlns="http://www.w3.org/2000/svg">
<path d="M4.45441 31.004C2.96961 32.075 1.09986 32.7711 0.549928 32.9853L0 30.8969C2.19971 30.2008 3.40955 29.4512 3.90449 29.0763L4.45441 31.004ZM7.09407 32.5569H4.67439V25.5957H6.70912C6.8191 25.328 6.8741 25.2744 7.09407 24.5248H9.34877C9.23878 24.8996 9.07381 25.2209 8.96382 25.5957H11.7135V32.5569H9.18379V33.3601H15.9479V35.2343H10.7786C11.8784 35.984 13.6932 36.9478 16.1679 37.6975L15.013 39.6252C14.1331 39.2503 11.3835 38.0723 9.1288 35.9304V39.8929H7.09407V36.091C4.94935 38.0188 2.58466 39.0362 1.09986 39.6787L0 37.6975C3.07959 36.8407 4.89436 35.7162 5.55427 35.2343H0.274964V33.3601H7.09407V32.5569ZM1.37482 25.1674C2.41968 25.6493 3.51954 26.3454 4.39942 27.0951L3.18958 28.755C2.3097 27.8983 1.37482 27.3093 0.274964 26.7738L1.37482 25.1674ZM6.54414 27.1486V28.3267H9.73372V27.1486H6.54414ZM6.54414 29.6653V30.8969H9.73372V29.6653H6.54414ZM12.8133 28.9157C13.6382 29.2905 15.178 30.1473 16.3878 31.1647L15.068 32.9853C14.4081 32.2892 13.4732 31.5395 11.7135 30.5756L12.8133 28.9157ZM16.0029 26.3989C15.288 27.2557 14.1331 28.2731 13.3082 28.9157L11.9884 27.4163C13.6382 26.1312 14.2431 25.4351 14.5731 25.0603L16.0029 26.3989Z" fill="#BF0000"/>
<path d="M24.1417 30.415C24.1967 29.933 24.1967 29.7189 24.1967 29.1298V27.0415H17.4876V25.1138H33.2155V27.0415H26.3414V29.1298C26.3414 29.7189 26.3414 29.8795 26.2865 30.4685H32.7206V32.3962H26.8364C27.7163 35.1272 30.4659 36.8407 33.4905 37.9116L32.2257 40C28.8161 38.5542 26.3964 36.3588 25.4066 33.8956C23.9218 37.2691 20.8422 38.9826 18.4775 40L17.2126 37.9116C20.2372 37.0549 22.7669 35.4484 23.7568 32.3962H17.9825V30.4685H24.1417V30.415Z" fill="#BF0000"/>
<path d="M38.0549 29.6118C37.23 31.1112 36.5701 31.8073 36.1302 32.2357L34.5354 30.7363C35.0853 30.1473 36.5701 28.648 37.56 24.7926L39.6497 25.1138C39.4847 25.7029 39.3198 26.5061 38.8798 27.6306H41.6295V24.5784H43.7742V27.6306H49.7134V29.6118H43.7742V32.3963H49.3285V34.324H43.7742V37.4298H50.4833V39.411H34.8104V37.4298H41.6295V34.324H35.9652V32.3963H41.6295V29.6118H38.0549Z" fill="#BF0000"/>
<path d="M63.2418 30.3615H55.3778V29.1835C54.5529 29.6654 53.838 30.0402 52.1332 30.6828L51.0884 28.7015C56.0377 27.0951 57.4675 25.4351 58.2374 24.5784H60.4921C62.5269 26.7203 64.7816 27.8448 67.5312 28.7015L66.4314 30.7363C65.1665 30.2544 64.3966 29.8796 63.2418 29.1835V30.3615ZM58.4024 38.4472H52.4632V31.2718H58.4024V38.4472ZM56.5327 33.0924H54.4429V36.6266H56.5327V33.0924ZM62.1969 28.5944C60.5471 27.4699 59.9422 26.9345 59.3373 26.2383C58.1824 27.3628 57.4125 27.9519 56.4227 28.5944H62.1969ZM61.702 40.0001H59.7222V31.2718H66.0464V36.9478C66.0464 37.4298 66.0464 38.6078 64.6166 38.6078H62.5819L62.1969 36.573H63.5167C63.7917 36.573 64.0667 36.5195 64.0667 36.1446V33.0389H61.647V40.0001H61.702Z" fill="#BF0000"/>
<path d="M61.2069 18.4739H15.178L18.8625 22.008L61.2069 18.4739Z" fill="#BF0000"/>
<path d="M19.4675 4.01611V4.55158C18.5877 4.01611 17.8728 3.69482 16.7729 3.69482C13.5283 3.69482 11.1086 6.53284 11.1086 10.067C11.1086 13.6011 13.5833 16.4391 16.7729 16.4391C17.8178 16.4391 18.5877 16.1179 19.4675 15.5824V16.1179H22.2722V4.01611H19.4675ZM16.7729 13.5476C15.1781 13.5476 14.0233 12.0482 14.0233 10.1205C14.0233 8.19282 15.1781 6.69349 16.7729 6.69349C18.3677 6.69349 19.4675 8.19282 19.4675 10.1205C19.5225 12.0482 18.3677 13.5476 16.7729 13.5476Z" fill="#BF0000"/>
<path d="M42.1245 4.01611V11.1379C42.1245 12.4766 41.1896 13.6011 39.8148 13.6011C38.44 13.6011 37.5051 12.4766 37.5051 11.1379V4.01611H34.6455V11.1379C34.6455 14.083 36.6802 16.4391 39.7048 16.4391C41.0797 16.4391 42.1245 15.6895 42.1245 15.6895V16.1179H44.9841V4.01611H42.1245Z" fill="#BF0000"/>
<path d="M68.521 16.1713V9.0495C68.521 7.71081 69.4559 6.58631 70.8307 6.58631C72.2055 6.58631 73.1404 7.71081 73.1404 9.0495V16.1713H76V9.0495C76 6.10438 73.9653 3.74829 70.9407 3.74829C69.5659 3.74829 68.521 4.49796 68.521 4.49796V4.01603H65.6614V16.1713H68.521Z" fill="#BF0000"/>
<path d="M2.96961 16.1714V11.4592H5.05933L8.68886 16.1714H12.3734L7.97395 10.4953C9.34877 9.53147 10.2287 7.97859 10.2287 6.21152C10.2287 3.31996 7.80897 0.963867 4.83936 0.963867H0V16.1178H2.96961V16.1714ZM2.96961 3.90898H4.89436C6.21418 3.90898 7.31404 4.97993 7.31404 6.26507C7.31404 7.55021 6.21418 8.62116 4.89436 8.62116H2.96961V3.90898Z" fill="#BF0000"/>
<path d="M52.6282 13.3333C52.3532 13.494 52.0783 13.6546 51.6933 13.6546C51.2534 13.6546 50.3735 13.3333 50.3735 12.1553V6.96119H52.7932V4.01608H50.3735V0.963867H47.5139V4.01608H46.0291V6.90764H47.5139V12.1553C47.5139 14.8862 49.6036 16.4926 51.7483 16.4926C52.5182 16.4926 53.6181 16.2249 54.4979 15.743L52.6282 13.3333Z" fill="#BF0000"/>
<path d="M29.3112 9.74565L34.2055 4.01606H30.246L26.8365 8.24632V0H23.9219V16.1714H26.8365V11.1914L31.0159 16.1714H34.9754L29.3112 9.74565Z" fill="#BF0000"/>
<path d="M59.1723 3.74829C55.8727 3.74829 53.563 6.53276 53.563 10.1204C53.563 13.8688 56.5326 16.4926 59.4472 16.4926C60.932 16.4926 62.8568 16.0107 64.4516 13.7617L61.9769 12.3694C60.0521 15.1539 56.8076 13.7617 56.4226 10.9772H64.5615C65.2765 6.58631 62.3618 3.74829 59.1723 3.74829ZM61.6469 8.51402H56.5326C57.1375 5.676 61.097 5.51536 61.6469 8.51402Z" fill="#BF0000"/>
</svg>
