<svg width="80" height="80" viewBox="0 0 80 80" fill="none" xmlns="http://www.w3.org/2000/svg">
<g clip-path="url(#clip0_2_1637)">
<path d="M59.1271 0H32.5464H30.4868L29.0313 1.45531L8.90941 21.5784L7.4541 23.0338V25.0925V66.5791C7.4541 73.9791 13.4741 80.0002 20.8754 80.0002H59.1271C66.526 80.0002 72.546 73.9791 72.546 66.5791V13.4213C72.546 6.02 66.526 0 59.1271 0ZM67.5777 66.5789C67.5777 71.2472 63.7943 75.0306 59.1271 75.0306H20.8754C16.206 75.0306 12.4225 71.2472 12.4225 66.5789V25.0923H25.5032C29.3914 25.0923 32.5464 21.9395 32.5464 18.0502V4.96938H59.1271C63.7943 4.96938 67.5777 8.75281 67.5777 13.4213V66.5789Z" fill="#4B4B4B"/>
<path d="M26.8668 39.4976H22.4092C21.5604 39.4976 21.052 40.0496 21.052 40.8765V52.4005C21.052 53.3987 21.7089 54.0566 22.6209 54.0566C23.5133 54.0566 24.17 53.3988 24.17 52.4005V48.8996C24.17 48.8144 24.2136 48.7719 24.2987 48.7719H26.8668C30.0067 48.7719 31.8962 46.8616 31.8962 44.1451C31.8964 41.386 30.0286 39.4976 26.8668 39.4976ZM26.675 46.0762H24.2987C24.2136 46.0762 24.17 46.0337 24.17 45.9496V42.3199C24.17 42.2347 24.2136 42.1924 24.2987 42.1924H26.675C27.9906 42.1924 28.7761 42.9779 28.7761 44.1452C28.7762 45.3124 27.9906 46.0762 26.675 46.0762Z" fill="#4B4B4B"/>
<path d="M39.0924 39.4976H35.6755C34.8268 39.4976 34.3184 40.0496 34.3184 40.8765V52.5707C34.3184 53.3988 34.8266 53.929 35.6755 53.929H39.0924C42.169 53.929 44.0804 52.9526 44.844 50.5971C45.119 49.769 45.2695 48.7719 45.2695 46.7132C45.2695 44.6546 45.1188 43.6574 44.844 42.8294C44.0802 40.474 42.169 39.4976 39.0924 39.4976ZM41.8526 49.5149C41.4904 50.6604 40.4518 51.1491 39.0073 51.1491H37.5651C37.4799 51.1491 37.4363 51.1066 37.4363 51.0216V42.4051C37.4363 42.3199 37.4799 42.2774 37.5651 42.2774H39.0073C40.4518 42.2774 41.4904 42.7662 41.8526 43.9118C42.001 44.4005 42.1057 45.2493 42.1057 46.7133C42.1057 48.1774 42.0009 49.0262 41.8526 49.5149Z" fill="#4B4B4B"/>
<path d="M56.4323 39.4976H49.4304C48.5817 39.4976 48.071 40.0496 48.071 40.8765V52.4005C48.071 53.3987 48.7301 54.0566 49.6421 54.0566C50.5323 54.0566 51.1912 53.3988 51.1912 52.4005V48.2832C51.1912 48.1991 51.2326 48.1566 51.3178 48.1566H55.3937C56.3057 48.1566 56.8359 47.6047 56.8359 46.8191C56.8359 46.0335 56.3057 45.4827 55.3937 45.4827H51.3178C51.2326 45.4827 51.1912 45.4402 51.1912 45.3551V42.3199C51.1912 42.2347 51.2326 42.1924 51.3178 42.1924H56.4323C57.3029 42.1924 57.8768 41.6196 57.8768 40.856C57.8767 40.0702 57.3028 39.4976 56.4323 39.4976Z" fill="#4B4B4B"/>
</g>
<defs>
<clipPath id="clip0_2_1637">
<rect width="80" height="80" fill="white"/>
</clipPath>
</defs>
</svg>
