<svg width="111" height="40" viewBox="0 0 111 40" fill="none" xmlns="http://www.w3.org/2000/svg">
<path d="M1.87307 32.0475C1.50483 32.4949 1.37857 32.6422 1.00506 33.0265L0.315918 30.3475C2.2571 27.9265 2.68848 25.0212 2.79895 24.2212L4.78748 24.4475C4.67701 25.1686 4.4508 26.5949 3.79322 28.3949V39.3949H1.86781V32.0475H1.87307ZM4.21407 36.9844C5.02947 36.537 6.76549 35.5896 8.3016 33.3107H4.7454V31.5001H9.23274V30.1686H5.63971V24.7475H14.809V30.1686H11.1371V31.5001H15.6244V33.3107H12.1156C13.3992 35.3159 14.7301 36.3107 15.898 37.0791L14.7301 38.8633C14.0252 38.3159 12.4365 37.1159 11.1371 34.8686V39.3896H9.22748V34.9159C7.52829 37.4001 6.0553 38.3159 5.36615 38.7317L4.21407 36.9844ZM7.58089 26.4791V28.4686H12.8889V26.4791H7.58089Z" fill="#BF0000"/>
<path d="M23.6518 28.2791C22.9469 28.7107 22.6418 28.8422 22.2104 29.0317L21.537 27.8633C21.3108 28.6475 21.0899 29.337 20.769 30.058C21.6001 31.1317 22.0052 32.4633 22.0052 33.8107C22.0052 36.3949 20.7058 36.3949 20.0798 36.3949H19.3591L19.054 34.4686H19.6642C20.0167 34.4686 20.3376 34.3896 20.3376 33.4738C20.3376 33.2001 20.3376 31.5475 19.0698 30.2686C19.6011 29.1317 20.0956 27.2528 20.2376 26.5159H18.8909V39.3949H17.1128V24.7791H21.921V26.5107C21.8263 26.8317 21.8106 26.9422 21.7474 27.1843C23.0942 26.5422 24.5829 25.6791 25.7718 24.3159H27.8551C29.2334 25.9054 31.0956 26.8159 32.1215 27.2528L31.2219 29.0001C30.8221 28.7896 30.4696 28.6001 29.7805 28.1843V29.2422H27.5657V30.237H31.285V35.258H28.2391C29.3281 36.7001 30.2118 37.2159 32.0846 37.6633L31.2535 39.5212C30.4538 39.2633 28.0655 38.5264 26.6872 35.8633C25.2773 38.4633 22.9048 39.1843 21.9894 39.458L21.0741 37.6317C22.5786 37.3738 24.12 36.7317 25.0354 35.258H22.3577V30.237H25.7876V29.2422H23.6571V28.2791H23.6518ZM25.7876 31.758H24.0726V33.6528H25.6614C25.7403 33.237 25.7876 32.9001 25.7876 32.2422V31.758ZM28.9125 27.6054C27.8077 26.7896 27.1817 26.0843 26.7977 25.6633C26.1559 26.4317 25.5614 26.9633 24.6513 27.6054H28.9125ZM27.5657 32.3528C27.5657 32.7054 27.5342 33.1528 27.4395 33.6528H29.5069V31.758H27.5657V32.3528Z" fill="#BF0000"/>
<path d="M40.7069 36.958C43.4687 36.0844 45.1995 34.5001 45.1995 31.7528C45.1995 30.037 44.3894 27.6791 41.3276 27.2738C41.0909 29.1107 40.6017 32.9159 39.2076 35.8475C38.8867 36.5212 38.1818 37.9844 36.6509 37.9844C34.8149 37.9844 33.0474 35.6107 33.0474 32.5107C33.0474 27.9317 36.5667 25.2212 40.6227 25.2212C44.7313 25.2212 47.4931 27.9159 47.4931 31.8054C47.4931 36.8054 43.253 38.3896 42.0536 38.8475L40.7069 36.958ZM35.1885 32.5633C35.1885 34.3475 35.946 35.6475 36.5667 35.6475C36.8193 35.6475 37.0718 35.5791 37.6767 33.8791C38.55 31.3844 38.9077 29.1791 39.1392 27.3791C35.9933 28.237 35.1885 30.8107 35.1885 32.5633Z" fill="#BF0000"/>
<path d="M50.734 33.8104C50.7182 34.6262 50.6393 36.8893 50.1869 38.4157L48.7612 37.7893C49.1768 36.3788 49.2926 34.6157 49.2926 33.5893L50.734 33.8104ZM50.7498 29.9104C49.8344 28.8683 49.2452 28.3683 48.777 27.9999L49.624 26.3472C49.8186 26.4893 49.8975 26.542 50.0711 26.7157C50.7129 25.6262 51.0023 24.8051 51.1917 24.2946L52.9066 24.742C52.3595 25.9946 51.3495 27.563 51.1759 27.8209C51.3337 27.9999 51.5599 28.2683 51.7545 28.4788C52.6541 27.1157 53.0066 26.4578 53.2801 25.9262L54.8531 26.5683C54.6584 26.9051 54.5164 27.1472 54.2586 27.563C54.8689 27.0683 56.2314 25.9893 57.0468 24.3209L58.8091 24.9157C57.9411 26.7262 56.4997 28.1367 55.4896 28.9736L54.2376 27.5788C53.6747 28.463 52.491 30.1314 51.723 31.0893C52.6857 31.042 53.0697 31.0262 53.3117 31.0104C53.1328 30.4946 53.0539 30.3051 52.9277 29.9999L54.2271 29.5367C54.7216 30.4525 55.1898 31.9104 55.3318 32.5841L53.8904 33.1157C53.8273 32.8104 53.7957 32.6999 53.7483 32.5051L52.8645 32.5841V39.4314H51.1811V32.7525C49.6082 32.8788 49.4346 32.8946 49.0821 32.9104L48.9559 31.1472C49.5819 31.163 49.645 31.163 49.8712 31.1472L50.7498 29.9104ZM53.9693 38.0104C54.1955 37.6578 54.3849 37.3367 54.6584 36.5841L53.4906 36.8104C53.5063 35.9262 53.3801 34.4051 53.2959 33.8262L54.6427 33.5999C54.7847 34.3051 54.8846 35.042 54.932 35.7472C55.0582 35.2841 55.1424 34.9314 55.2371 34.3525L56.6785 34.6893C56.5681 36.1314 56.3261 37.6104 55.6527 38.9209L53.9693 38.0104ZM57.4834 32.1893C56.0893 32.2525 55.9263 32.2683 55.5896 32.2683L55.4633 30.4893H56.2472C57.031 28.9157 57.3992 28.0209 57.8043 26.8788L59.7297 27.263C59.2668 28.3525 58.9143 28.9946 58.0621 30.4525C58.9932 30.4367 59.6192 30.4367 60.8818 30.3578C60.2558 29.3946 60.0664 29.1525 59.7613 28.7683L61.2027 27.9209C62.3232 29.042 63.2544 30.3735 63.9593 31.7683L62.2759 32.7946C62.097 32.4262 62.0023 32.2157 61.8129 31.8946C60.3557 32.0735 59.6824 32.1051 58.4461 32.1525C59.9033 32.7788 60.3557 33.0999 60.7713 33.4051L59.7928 34.8788C59.0248 34.2683 57.9516 33.6946 56.7943 33.2893L57.4834 32.1893ZM58.746 34.742V37.1472C58.746 37.3262 58.746 37.5314 59.0669 37.5314H59.6613C59.9664 37.5314 60.0927 37.5314 60.1769 35.9735L61.8918 36.342C61.6656 38.1209 61.5236 39.2946 60.5293 39.2946H58.3146C57.7675 39.2946 56.9994 39.1157 56.9994 38.3314V34.7367H58.746V34.742ZM63.3333 28.8525C62.0497 27.9209 60.8976 26.6578 60.0138 24.9051L61.6972 24.2314C62.6915 25.8999 63.5542 26.6209 64.3749 27.2157L63.3333 28.8525ZM62.8493 33.7946C63.428 34.8683 64.0329 36.663 64.2907 37.9157L62.5126 38.6525C62.097 36.6788 61.8235 35.6525 61.2448 34.4525L62.8493 33.7946Z" fill="#BF0000"/>
<path d="M79.2098 30.5686C78.2155 30.1212 77.6211 29.8002 76.7741 29.2844V30.5844H68.4517V29.2528C67.5522 29.7844 66.963 30.1055 65.8845 30.5686L64.8271 28.5476C67.2944 27.7318 69.8932 26.2055 71.545 24.2476H73.5967C74.5909 25.3686 76.2112 26.9897 80.3145 28.5476L79.2098 30.5686ZM78.6364 31.9476V39.0844H66.4685V31.9476H78.6364ZM76.5689 33.7791H68.5044V37.2739H76.5689V33.7791ZM75.9429 28.7581C73.9071 27.3949 73.0601 26.4476 72.5445 25.8897C72.0658 26.4528 71.2609 27.3949 69.2251 28.7581H75.9429Z" fill="#BF0000"/>
<path d="M84.2654 34.9156C84.0076 36.4209 83.3342 38.0103 82.4084 39.0209L80.9038 37.7682C81.7192 36.8998 82.3137 35.5524 82.5872 34.4156L84.2654 34.9156ZM91.5777 29.863C92.7613 30.4577 94.3501 31.6261 95.681 32.7998L94.1081 34.2419C93.8661 33.984 93.6925 33.7945 93.098 33.2314C90.5992 33.4577 89.5892 33.5051 88.4476 33.5367C89.3314 33.9051 89.8575 34.2103 90.7097 34.8524L89.4103 36.3103C88.8001 35.8472 87.7111 35.1419 86.5906 34.6577L87.5375 33.584C84.8598 33.6788 84.5705 33.6945 81.7823 33.7103L81.5877 31.9314C81.9717 31.9472 83.8813 31.9472 84.3127 31.963C85.065 30.9998 85.5332 30.2788 86.1382 29.1577L88.1267 29.7209C87.8216 30.1998 87.3271 31.0524 86.5853 31.9367C88.637 31.9051 88.8948 31.8893 91.2357 31.7945C90.6413 31.3945 90.2888 31.1998 89.8575 30.963L91.4146 29.8735H90.231C89.5103 29.8735 89.1893 29.5524 89.1893 28.8156V26.9472H87.648C87.022 28.7735 85.2281 29.9945 82.7608 30.6998L81.9296 29.0314C83.0028 28.8524 84.9598 28.3577 85.7752 26.9472H83.4184V28.5682H81.4772V25.2788H87.5375V24.2524H89.5892V25.2788H95.7126V28.4998H94.6394C94.4974 29.1893 94.2396 29.863 93.4031 29.863H91.5777ZM84.8756 34.8051H86.8484V36.763C86.8484 37.3103 86.9431 37.3577 87.3639 37.3577H89.8469C90.4256 37.3577 90.5361 37.3577 90.6939 35.8524L92.5351 36.384C92.2931 39.0788 91.3988 39.1735 90.4835 39.1735H86.4117C85.8962 39.1735 84.8704 39.1577 84.8704 37.6998V34.8051H84.8756ZM90.9359 27.8893C90.9359 28.3051 90.9675 28.384 91.483 28.384H92.4457C92.8455 28.384 92.8613 28.3051 93.0086 27.484L93.7609 27.6419V26.9472H90.9411V27.8893H90.9359ZM93.8029 34.2103C94.7814 35.2524 95.7441 36.9998 96.1913 37.9788L94.4132 39.0682C93.9976 37.9788 93.0507 36.1998 92.2195 35.1524L93.8029 34.2103Z" fill="#BF0000"/>
<path d="M110.837 38.9107H97.5171V25.3896H110.837V38.9107ZM108.707 27.4265H99.6634V36.8739H108.707V27.4265Z" fill="#BF0000"/>
<path d="M59.1508 18.2998H15.1611L18.6647 21.8051L59.1508 18.2998Z" fill="#BF0000"/>
<path d="M19.233 4.12102V4.6526C18.4176 4.13154 17.6811 3.83154 16.6816 3.83154C13.5988 3.83154 11.2578 6.64207 11.2578 10.0947C11.2578 13.5473 13.5988 16.3579 16.6816 16.3579C17.6863 16.3579 18.4176 16.0579 19.233 15.5368V16.0684H21.9422V4.12102H19.233ZM16.6816 13.4789C15.1612 13.4789 14.0512 11.9842 14.0512 10.0894C14.0512 8.19996 15.1665 6.69996 16.6816 6.69996C18.2019 6.69996 19.2751 8.19996 19.2751 10.0894C19.2751 11.9842 18.2071 13.4789 16.6816 13.4789Z" fill="#BF0000"/>
<path d="M40.9383 4.12109V11.1369C40.9383 12.4527 40.0335 13.5632 38.7183 13.5632C37.4031 13.5632 36.4983 12.4527 36.4983 11.1369V4.12109H33.7891V11.1369C33.7891 14.0158 35.7566 16.3579 38.6341 16.3579C39.9651 16.3579 40.9383 15.6211 40.9383 15.6211V16.0632H43.6475V4.12109H40.9383Z" fill="#BF0000"/>
<path d="M66.1843 16.063V9.04722C66.1843 7.73143 67.0892 6.62091 68.4043 6.62091C69.7195 6.62091 70.6243 7.73143 70.6243 9.04722V16.063H73.3336V9.04722C73.3336 6.16828 71.3661 3.82617 68.4885 3.82617C67.1576 3.82617 66.1843 4.56301 66.1843 4.56301V4.12091H63.4751V16.063H66.1843Z" fill="#BF0000"/>
<path d="M3.45122 16.0631V11.4368H5.45553L8.92757 16.0631H12.4733L8.28051 10.4789C9.58515 9.54209 10.4426 8.01577 10.4426 6.2842C10.4426 3.44735 8.13321 1.14209 5.29771 1.14209H0.615723V16.0631H3.45122ZM3.45122 3.97893H5.29771C6.57079 3.97893 7.6124 5.01577 7.6124 6.28946C7.6124 7.56841 6.57079 8.60525 5.29771 8.60525H3.45122V3.97893Z" fill="#BF0000"/>
<path d="M50.9493 13.2369C50.7073 13.4001 50.3969 13.5317 50.0445 13.5317C49.6026 13.5317 48.7661 13.1948 48.7661 12.0685V6.95799H51.0808V4.12115H48.7661V1.14746H46.0569V4.12115H44.626V6.95799H46.0569V12.1054C46.0569 14.7738 48.0665 16.3633 50.0865 16.3633C50.8388 16.3633 51.8857 16.1159 52.7379 15.6106L50.9493 13.2369Z" fill="#BF0000"/>
<path d="M28.681 9.71561L33.3262 4.12087H29.528L26.2769 8.27877V0.157715H23.4888V16.063H26.2769V11.1577L30.275 16.063H34.0732L28.681 9.71561Z" fill="#BF0000"/>
<path d="M57.2097 3.81592C54.0743 3.81592 51.8228 6.57381 51.8228 10.0896C51.8228 13.7896 54.6477 16.3633 57.478 16.3633C58.9089 16.3633 60.7396 15.8738 62.2757 13.6896L59.8821 12.3054C58.0303 15.037 54.9476 13.6475 54.5899 10.9212H62.3914C63.0648 6.63697 60.2924 3.81592 57.2097 3.81592ZM59.5717 8.55276H54.6898C55.2632 5.75276 59.0456 5.59487 59.5717 8.55276Z" fill="#BF0000"/>
</svg>
