<svg width="279" height="41" viewBox="0 0 279 41" fill="none" xmlns="http://www.w3.org/2000/svg">
<path d="M0 4.02191C0 1.81277 1.79086 0.0219116 4 0.0219116H275C277.209 0.0219116 279 1.81277 279 4.02191V36.0219C279 38.231 277.209 40.0219 275 40.0219H4.00001C1.79087 40.0219 0 38.2311 0 36.0219V4.02191Z" fill="white"/>
<path d="M88.7769 30.2848H25.0664L30.1407 35.3591L88.7769 30.2848Z" fill="#BF0000"/>
<path d="M30.9636 9.75907V10.5286C29.7826 9.77431 28.7159 9.34003 27.2683 9.34003C22.8036 9.34003 19.4131 13.4086 19.4131 18.4067C19.4131 23.4048 22.8036 27.4734 27.2683 27.4734C28.7236 27.4734 29.7826 27.0391 30.9636 26.2848V27.0543H34.8874V9.75907H30.9636ZM27.2683 23.3057C25.0664 23.3057 23.4588 21.1419 23.4588 18.3991C23.4588 15.6638 25.074 13.4924 27.2683 13.4924C29.4702 13.4924 31.0245 15.6638 31.0245 18.3991C31.0245 21.1419 29.4702 23.3057 27.2683 23.3057Z" fill="#BF0000"/>
<path d="M62.4002 9.75909V19.9153C62.4002 21.82 61.0897 23.4277 59.1849 23.4277C57.2802 23.4277 55.9697 21.82 55.9697 19.9153V9.75909H52.0459V19.9153C52.0459 24.0829 54.8954 27.4734 59.063 27.4734C60.9907 27.4734 62.4002 26.4067 62.4002 26.4067V27.0467H66.324V9.75909H62.4002Z" fill="#BF0000"/>
<path d="M98.9638 27.0467V16.8905C98.9638 14.9857 100.274 13.3781 102.179 13.3781C104.084 13.3781 105.394 14.9857 105.394 16.8905V27.0467H109.318V16.8905C109.318 12.7229 106.469 9.3324 102.301 9.3324C100.373 9.3324 98.9638 10.3991 98.9638 10.3991V9.75906H95.04V27.0467H98.9638Z" fill="#BF0000"/>
<path d="M8.10667 27.0468V20.3496H11.0095L16.0381 27.0468H21.1733L15.101 18.963C16.9905 17.6068 18.2324 15.3973 18.2324 12.8906C18.2324 8.78392 14.8876 5.44678 10.781 5.44678H4V27.0468H8.10667ZM8.10667 9.55344H10.781C12.6248 9.55344 14.1333 11.0544 14.1333 12.8982C14.1333 14.7496 12.6248 16.2506 10.781 16.2506H8.10667V9.55344Z" fill="#BF0000"/>
<path d="M76.8993 22.9552C76.5488 23.1914 76.0993 23.3818 75.5888 23.3818C74.9488 23.3818 73.7374 22.8942 73.7374 21.2637V13.8657H77.0898V9.75899H73.7374V5.45422H69.8136V9.75899H67.7412V13.8657H69.8136V21.3171C69.8136 25.1799 72.7241 27.4809 75.6498 27.4809C76.7393 27.4809 78.2555 27.1228 79.4898 26.3914L76.8993 22.9552Z" fill="#BF0000"/>
<path d="M44.6474 17.8581L51.3751 9.75905H45.8741L41.1655 15.7781V4.02191H37.1274V27.0467H41.1655V19.9457L46.956 27.0467H52.457L44.6474 17.8581Z" fill="#BF0000"/>
<path d="M85.966 9.31714C81.425 9.31714 78.1641 13.3095 78.1641 18.399C78.1641 23.7552 82.2555 27.4809 86.3545 27.4809C88.4269 27.4809 91.0784 26.7724 93.3031 23.6105L89.8364 21.6067C87.1545 25.561 82.6898 23.5495 82.1717 19.6029H93.4707C94.446 13.4009 90.4307 9.31714 85.966 9.31714ZM89.3869 16.1667H82.3164C83.1469 12.1209 88.625 11.8924 89.3869 16.1667Z" fill="#BF0000"/>
<path d="M117.615 17.0276C117.082 17.6753 116.899 17.8886 116.358 18.4448L115.36 14.5667C118.171 11.0619 118.796 6.85622 118.956 5.69812L121.836 6.02574C121.676 7.06955 121.348 9.13431 120.396 11.74V27.6638H117.607V17.0276H117.615ZM121.006 24.1819C122.187 23.5343 124.701 22.1629 126.926 18.8638H121.775V16.2429H128.274V14.3153H123.07V6.46764H136.35V14.3153H131.032V16.2429H137.531V18.8638H132.449C134.308 21.7667 136.236 23.2067 137.927 24.3191L136.236 26.8943C135.215 26.1019 132.914 24.3648 131.032 21.1115V27.6562H128.267V21.18C125.806 24.7762 123.672 26.1019 122.674 26.7038L121.006 24.1819ZM125.882 8.97431V11.8543H133.569V8.97431H125.882Z" fill="#BF0000"/>
<path d="M149.158 11.5723C148.137 12.1971 147.695 12.3875 147.07 12.6618L146.095 10.9704C145.767 12.1056 145.448 13.1037 144.983 14.1475C146.187 15.7018 146.773 17.6294 146.773 19.5799C146.773 23.3209 144.891 23.3209 143.985 23.3209H142.941L142.499 20.5323H143.383C143.893 20.5323 144.358 20.418 144.358 19.0923C144.358 18.6961 144.358 16.3037 142.522 14.4523C143.291 12.8066 144.007 10.0866 144.213 9.01992H142.263V27.6637H139.688V6.51325H146.651V9.01992C146.514 9.48468 146.491 9.64468 146.4 9.99515C148.35 9.06563 150.507 7.81611 152.228 5.84277H155.246C157.242 8.14373 159.939 9.46182 161.425 10.0942L160.122 12.6237C159.543 12.319 159.032 12.0447 158.034 11.4428V12.9742H154.827V14.4142H160.213V21.6828H155.802C157.379 23.7704 158.659 24.5171 161.371 25.1647L160.167 27.8542C159.009 27.4809 155.55 26.4142 153.554 22.559C151.512 26.3228 148.076 27.3666 146.75 27.7628L145.425 25.119C147.604 24.7456 149.836 23.8161 151.162 21.6828H147.284V14.4142H152.251V12.9742H149.166V11.5723H149.158ZM152.244 16.6161H149.76V19.359H152.061C152.175 18.7571 152.244 18.2694 152.244 17.3171V16.6161ZM156.777 10.5971C155.177 9.41611 154.27 8.39515 153.714 7.78563C152.785 8.89801 151.924 9.66754 150.606 10.5971H156.777ZM154.827 17.4694C154.827 17.9799 154.781 18.6275 154.644 19.3513H157.638V16.6085H154.827V17.4694Z" fill="#BF0000"/>
<path d="M173.859 24.1437C177.859 22.879 180.366 20.5856 180.366 16.6085C180.366 14.1247 179.192 10.7114 174.758 10.1247C174.415 12.7837 173.707 18.2923 171.688 22.5361C171.223 23.5114 170.202 25.6294 167.985 25.6294C165.326 25.6294 162.766 22.1933 162.766 17.7056C162.766 11.0771 167.863 7.15326 173.737 7.15326C179.688 7.15326 183.688 11.0542 183.688 16.6847C183.688 23.9228 177.547 26.2161 175.809 26.879L173.859 24.1437ZM165.867 17.7818C165.867 20.3647 166.964 22.2466 167.863 22.2466C168.228 22.2466 168.594 22.1475 169.47 19.6866C170.735 16.0752 171.253 12.8828 171.588 10.2771C167.032 11.5114 165.867 15.2447 165.867 17.7818Z" fill="#BF0000"/>
<path d="M188.381 19.5877C188.358 20.7686 188.244 24.0448 187.589 26.2543L185.524 25.3477C186.126 23.3058 186.293 20.7534 186.293 19.2677L188.381 19.5877ZM188.404 13.942C187.078 12.4334 186.225 11.7096 185.547 11.1762L186.773 8.78387C187.055 8.98958 187.17 9.06577 187.421 9.3172C188.351 7.74006 188.77 6.55148 189.044 5.81244L191.528 6.46006C190.735 8.27339 189.273 10.5439 189.021 10.9172C189.25 11.1762 189.577 11.5648 189.859 11.8696C191.162 9.89625 191.672 8.94387 192.061 8.17434L194.339 9.10387C194.057 9.59148 193.852 9.94196 193.478 10.5439C194.362 9.82768 196.335 8.26577 197.516 5.85053L200.069 6.71148C198.812 9.33244 196.724 11.3743 195.261 12.5858L193.448 10.5667C192.633 11.8467 190.918 14.262 189.806 15.6486C191.2 15.5801 191.756 15.5572 192.107 15.5343C191.848 14.7877 191.733 14.5134 191.551 14.0715L193.432 13.401C194.149 14.7267 194.827 16.8372 195.032 17.8124L192.945 18.582C192.853 18.1401 192.808 17.9801 192.739 17.6982L191.459 17.8124V27.7248H189.021V18.0562C186.743 18.2391 186.492 18.262 185.981 18.2848L185.798 15.7324C186.705 15.7553 186.796 15.7553 187.124 15.7324L188.404 13.942ZM193.067 25.6677C193.394 25.1572 193.669 24.6924 194.065 23.6029L192.373 23.9305C192.396 22.6505 192.213 20.4486 192.092 19.6105L194.042 19.2829C194.248 20.3039 194.392 21.3705 194.461 22.3915C194.644 21.721 194.766 21.2105 194.903 20.3724L196.991 20.8601C196.831 22.9477 196.48 25.0886 195.505 26.9858L193.067 25.6677ZM198.149 17.241C196.13 17.3324 195.893 17.3553 195.406 17.3553L195.223 14.7801H196.358C197.493 12.502 198.027 11.2067 198.613 9.55339L201.402 10.1096C200.732 11.6867 200.221 12.6162 198.987 14.7267C200.335 14.7039 201.242 14.7039 203.071 14.5896C202.164 13.1953 201.89 12.8448 201.448 12.2886L203.535 11.062C205.158 12.6848 206.507 14.6124 207.528 16.6315L205.09 18.1172C204.831 17.5839 204.693 17.2791 204.419 16.8143C202.309 17.0734 201.333 17.1191 199.543 17.1877C201.653 18.0943 202.309 18.5591 202.911 19.001L201.493 21.1343C200.381 20.2505 198.827 19.4201 197.151 18.8334L198.149 17.241ZM199.985 20.9286V24.4105C199.985 24.6696 199.985 24.9667 200.45 24.9667H201.311C201.753 24.9667 201.935 24.9667 202.057 22.7115L204.541 23.2448C204.213 25.8201 204.008 27.5191 202.568 27.5191H199.36C198.568 27.5191 197.455 27.2601 197.455 26.1248V20.921H199.985V20.9286ZM206.629 12.4105C204.77 11.062 203.101 9.23339 201.821 6.69625L204.259 5.72101C205.699 8.13625 206.949 9.18006 208.137 10.041L206.629 12.4105ZM205.928 19.5648C206.766 21.1191 207.642 23.7172 208.015 25.5305L205.44 26.5972C204.838 23.7401 204.442 22.2543 203.604 20.5172L205.928 19.5648Z" fill="#BF0000"/>
<path d="M229.623 14.8944C228.183 14.2468 227.322 13.782 226.095 13.0353V14.9172H214.042V12.9896C212.739 13.7591 211.886 14.2239 210.324 14.8944L208.792 11.9687C212.366 10.7877 216.13 8.57818 218.522 5.7439H221.493C222.933 7.36675 225.28 9.71342 231.223 11.9687L229.623 14.8944ZM228.785 16.8906V27.222H211.162V16.8906H228.785ZM225.791 19.542H214.111V24.601H225.791V19.542ZM224.884 12.2734C221.935 10.3001 220.709 8.92866 219.962 8.12104C219.269 8.93628 218.103 10.3001 215.154 12.2734H224.884Z" fill="#BF0000"/>
<path d="M236.945 21.1877C236.571 23.3667 235.596 25.6677 234.255 27.1305L232.076 25.3172C233.257 24.06 234.118 22.1172 234.514 20.4639L236.945 21.1877ZM247.528 13.8734C249.242 14.7343 251.543 16.4258 253.47 18.1248L251.192 20.2124C250.842 19.8391 250.59 19.5648 249.73 18.7496C246.11 19.0772 244.648 19.1458 242.994 19.1915C244.274 19.7248 245.036 20.1667 246.27 21.0962L244.389 23.2067C243.505 22.5362 241.928 21.5153 240.305 20.8143L241.676 19.26C237.798 19.3972 237.379 19.42 233.341 19.4429L233.059 16.8677C233.615 16.8905 236.381 16.8905 237.006 16.9134C238.095 15.5191 238.773 14.4753 239.65 12.8524L242.53 13.6677C242.088 14.361 241.371 15.5953 240.297 16.8677C243.269 16.822 243.642 16.7991 247.032 16.662C246.171 16.0829 245.661 15.801 245.036 15.4581L247.291 13.881H245.577C244.533 13.881 244.069 13.4162 244.069 12.3496V9.66005H241.836C240.93 12.3039 238.331 14.0715 234.758 15.0924L233.554 12.6772C235.109 12.4181 237.943 11.702 239.124 9.66005H235.71V12.0067H232.899V7.24481H241.676V5.75909H244.648V7.24481H253.516V11.9077H251.962C251.756 12.9058 251.383 13.881 250.171 13.881H247.528V13.8734ZM237.829 21.0277H240.686V23.8619C240.686 24.6543 240.823 24.7229 241.432 24.7229H245.029C245.867 24.7229 246.027 24.7229 246.255 22.5439L248.922 23.3134C248.571 27.2143 247.276 27.3515 245.95 27.3515H240.053C239.307 27.3515 237.821 27.3286 237.821 25.2181V21.0277H237.829ZM246.598 11.0162C246.598 11.6181 246.644 11.7324 247.39 11.7324H248.785C249.364 11.7324 249.387 11.6181 249.6 10.4296L250.69 10.6581V9.63719H246.606V11.0162H246.598ZM250.758 20.1667C252.175 21.6753 253.57 24.2048 254.217 25.622L251.642 27.1991C251.04 25.622 249.669 23.0467 248.465 21.5305L250.758 20.1667Z" fill="#BF0000"/>
<path d="M275.429 26.9705H256.137V7.39716H275.429V26.9705ZM272.335 10.3457H259.238V24.0219H272.335V10.3457Z" fill="#BF0000"/>
</svg>
