<svg width="16" height="18" viewBox="0 0 16 18" fill="none" xmlns="http://www.w3.org/2000/svg">
    <path fill-rule="evenodd" clip-rule="evenodd" d="M14 10.5625H5V5.875H14V10.5625ZM14 4.83333H5V3.79167H14V4.83333ZM5 2.75H14C14.552 2.75 15 3.21667 15 3.79167V10.5625C15 11.1375 14.552 11.6042 14 11.6042H5C4.448 11.6042 4 11.1375 4 10.5625V3.79167C4 3.21667 4.448 2.75 5 2.75ZM2 14.2083H11V12.6458H12V14.2083C12 14.7833 11.552 15.25 11 15.25H2C1.448 15.25 1 14.7833 1 14.2083V7.4375C1 6.8625 1.448 6.39583 2 6.39583H3V7.4375H2V14.2083Z" fill="#134FF3"/>
</svg>
