<svg width="81" height="64" viewBox="0 0 81 64" fill="none" xmlns="http://www.w3.org/2000/svg">
<path d="M40.25 27.1294C34.8837 27.1294 30.5381 31.5166 30.5381 36.9292C30.5381 42.3419 34.8839 46.7291 40.25 46.7291C45.6161 46.7291 49.9618 42.3419 49.9618 36.9292C49.9618 31.5166 45.6162 27.1294 40.25 27.1294Z" fill="#4B4B4B"/>
<path d="M75.0572 13.2109H65.897C63.8536 13.2109 62.0005 12 61.1631 10.1201L58.4214 3.97748C57.5841 2.09998 55.7286 0.889038 53.685 0.889038H26.815C24.7716 0.889038 22.9161 2.09998 22.0763 3.97748L19.337 10.1201C18.4995 12 16.6466 13.2109 14.603 13.2109H5.44281C2.57422 13.2109 0.25 15.5572 0.25 18.4478V57.874C0.25 60.7647 2.57422 63.1109 5.44281 63.1109H43.6069H75.057C77.9233 63.1109 80.2498 60.7647 80.2498 57.874V18.4478C80.25 15.5572 77.9233 13.2109 75.0572 13.2109ZM40.25 55.1006C30.2987 55.1006 22.2348 46.9658 22.2348 36.9292C22.2348 26.8926 30.2989 18.7553 40.25 18.7553C50.2011 18.7553 58.2652 26.8925 58.2652 36.9292C58.2652 46.9659 50.2012 55.1006 40.25 55.1006Z" fill="#4B4B4B"/>
</svg>
