<svg width="48" height="48" viewBox="0 0 48 48" fill="none" xmlns="http://www.w3.org/2000/svg">
<circle cx="24" cy="24" r="24" fill="#077DB8"/>
<path fill-rule="evenodd" clip-rule="evenodd" d="M28.196 26.4521L26.4035 28.2454C26.1665 28.4816 25.8147 28.5559 25.5042 28.4284C24.6852 28.0924 23.0615 27.3274 21.8675 26.1326C20.6727 24.9379 19.9077 23.3141 19.5717 22.4959C19.4442 22.1854 19.5185 21.8336 19.7547 21.5959L21.548 19.8041C22.1967 19.1554 22.1967 18.1024 21.548 17.4536L18.0807 13.9871C17.4312 13.3376 16.379 13.3376 15.7302 13.9871L13.9872 15.7301C13.6632 16.0541 13.49 16.4936 13.5005 16.9504C13.5477 19.0339 13.5035 24.5239 18.4902 29.5099C23.4762 34.4966 28.9655 34.4524 31.0497 34.4989C31.5065 34.5101 31.946 34.3369 32.27 34.0129L34.013 32.2699C34.6625 31.6211 34.6625 30.5681 34.013 29.9186L30.5465 26.4521C29.8977 25.8034 28.8447 25.8034 28.196 26.4521Z" fill="white"/>
</svg>
