<svg width="48" height="48" viewBox="0 0 48 48" fill="none" xmlns="http://www.w3.org/2000/svg">
<circle cx="24" cy="24" r="24" fill="#077DB8"/>
<path d="M24.0456 36.3436C21.4018 36.3436 18.9404 35.7055 16.7524 34.4292C16.9348 31.8766 18.6669 29.5975 20.946 28.5035L22.4046 27.8653L20.7637 27.7742H20.4902C20.3078 27.7742 20.0344 27.7742 19.852 27.7742C19.5785 27.7742 19.3962 27.7742 19.1227 27.7742C17.7552 27.7742 16.7524 27.5919 16.4789 26.4979L16.3878 26.2244H16.2966V25.8597V19.2047C16.2966 19.2047 15.8408 19.2047 15.7496 19.2047H16.2966L16.3878 18.9312C16.5701 18.0196 17.2994 17.3814 18.2111 17.3814H29.6978C30.6094 17.3814 31.4299 18.0196 31.5211 18.9312L31.6122 19.2047H32.2504C32.1592 19.2047 31.7034 19.2047 31.7034 19.2047V19.5694V26.2244C31.7034 26.2244 32.2504 26.2244 32.3415 26.2244C33.3443 26.2244 33.5267 25.6774 33.5267 25.2216V20.1164C33.5267 19.934 33.5267 19.8429 33.4355 19.6606C33.5267 19.7517 33.5267 19.8429 33.5267 20.0252C33.5267 20.2075 33.5267 22.2132 33.5267 23.4895C33.5267 24.4011 33.5267 25.1304 33.5267 25.2216C33.5267 25.6774 33.3443 26.2244 32.1592 26.2244C32.068 26.2244 31.8857 26.2244 31.7946 26.2244H31.5211L31.4299 26.4979C31.1564 27.5919 30.1536 27.7742 28.7861 27.7742C28.5126 27.7742 28.3303 27.7742 28.0568 27.7742C27.8745 27.7742 27.601 27.7742 27.4187 27.7742H27.1452H25.5954L27.054 28.4123C29.3331 29.5063 30.9741 31.8766 31.2476 34.338C29.1508 35.7055 26.5982 36.3436 24.0456 36.3436ZM22.4046 24.4011C22.1311 24.4011 21.8576 24.5834 21.6753 24.7658C21.493 24.9481 21.493 25.2216 21.6753 25.4951C22.04 26.4067 22.9516 26.9537 24.0456 26.9537C25.1396 26.9537 26.0512 26.4067 26.4159 25.4951C26.507 25.2216 26.507 25.0393 26.4159 24.7658C26.2335 24.4923 25.96 24.4011 25.6865 24.4011C25.413 24.4011 25.1396 24.5834 24.9572 24.8569C24.7749 25.2216 24.4102 25.4039 24.0456 25.4039C23.6809 25.4039 23.3163 25.2216 23.1339 24.8569C22.9516 24.5834 22.6781 24.4011 22.4046 24.4011ZM20.5813 19.9341C19.3962 19.9341 18.6669 20.9369 18.6669 21.8485C18.6669 22.7601 19.305 23.763 20.5813 23.763C21.8576 23.763 22.4958 22.7601 22.4958 21.8485C22.4958 20.9369 21.8576 19.9341 20.5813 19.9341ZM27.6922 19.8429C26.507 19.8429 25.7777 20.8457 25.7777 21.7573C25.7777 22.669 26.4159 23.6718 27.6922 23.6718C28.9685 23.6718 29.6066 22.669 29.6066 21.7573C29.6066 20.8457 28.9685 19.8429 27.6922 19.8429ZM15.7496 26.2244C14.4733 26.2244 14.4733 25.4951 14.4733 25.2216V20.1164C14.4733 20.0252 14.4733 20.0252 14.4733 19.9341C14.4733 19.8429 14.4733 19.8429 14.5645 19.7517C14.5645 19.8429 14.4733 19.934 14.4733 20.1164V25.2216C14.4733 25.6774 14.6557 26.2244 15.7496 26.2244H16.2966H16.1143C15.932 26.2244 15.8408 26.2244 15.7496 26.2244ZM33.2532 19.4782C33.0709 19.2959 32.7974 19.2047 32.3415 19.2047H32.4327H32.7974C32.9797 19.2959 33.162 19.3871 33.2532 19.4782ZM14.7468 19.4782C14.838 19.3871 14.9291 19.2959 15.1115 19.2959L15.385 19.2047V13.4614L15.1115 13.3702C14.5645 13.2791 14.291 12.7321 14.3822 12.2762C14.3822 11.8204 14.7468 11.3646 15.385 11.3646C16.0231 11.3646 16.2966 11.8204 16.3878 12.2762C16.4789 12.7321 16.2054 13.2791 15.6585 13.4614L15.385 13.5525V19.2047H15.5673C15.2026 19.2047 14.9291 19.2959 14.7468 19.4782ZM32.5239 18.7489C32.5239 18.6577 32.5239 13.7349 32.5239 13.7349V13.4614L32.2504 13.3702C31.7034 13.1879 31.5211 12.6409 31.6122 12.1851C31.7034 11.7293 31.9769 11.3646 32.615 11.2734C33.2532 11.2734 33.6178 11.7293 33.6178 12.1851C33.6178 12.6409 33.4355 13.1879 32.7974 13.2791L32.5239 13.3702V13.6437C32.5239 13.6437 32.5239 13.826 32.5239 15.2847C32.5239 16.6521 32.5239 18.4754 32.5239 18.7489Z" fill="white"/>
<path d="M32.615 11.7293C33.162 11.7293 33.2532 12.1851 33.2532 12.3675C33.2532 12.4586 33.2532 13.0056 32.7974 13.0968H32.615L32.4327 13.0056C32.068 12.9145 31.9769 12.5498 31.9769 12.2763C31.9769 12.094 32.068 11.7293 32.615 11.7293ZM15.2938 11.7293C15.8408 11.7293 15.932 12.094 15.932 12.2763C15.932 12.4586 15.932 12.9145 15.4761 13.0056L15.2938 13.0968H15.1115C14.6557 13.0056 14.6557 12.5498 14.6557 12.3675C14.6557 12.1851 14.7468 11.7293 15.2938 11.7293ZM29.6978 17.655C30.4271 17.655 31.0652 18.202 31.1564 18.9313L31.2476 19.5694V25.7686L31.0652 26.3156C30.8829 27.0449 30.2448 27.3184 28.7861 27.3184C28.5126 27.3184 28.3303 27.3184 28.0568 27.3184C27.8745 27.3184 27.601 27.3184 27.4187 27.3184C27.3275 27.3184 27.2363 27.3184 27.1452 27.3184L24.0456 27.5007L26.9628 28.777C29.0596 29.7799 30.6094 31.8766 30.8829 34.1557C28.8773 35.3409 26.507 35.8879 24.0456 35.8879C21.5841 35.8879 19.2139 35.2497 17.1171 34.0646C17.3906 31.7855 18.9404 29.5975 21.0372 28.6859L23.8633 27.4096H20.7637C20.6725 27.4096 20.5813 27.4096 20.4902 27.4096C20.3078 27.4096 20.0344 27.4096 19.852 27.4096C19.5785 27.4096 19.3962 27.4096 19.1227 27.4096C17.6641 27.4096 17.0259 27.1361 16.8436 26.4068L16.7524 26.0421V25.951V19.6606V19.296L16.8436 18.9313C16.9348 18.202 17.5729 17.655 18.3022 17.655H29.6978ZM27.6922 24.0365C29.1508 24.0365 29.9713 22.8514 29.9713 21.7574C29.9713 20.6634 29.242 19.4783 27.6922 19.4783C26.2335 19.4783 25.5042 20.6634 25.5042 21.7574C25.5042 22.8514 26.2335 23.9453 27.6922 24.0365ZM20.5813 24.1277C22.04 24.1277 22.8604 22.9425 22.8604 21.8486C22.8604 20.7546 22.1311 19.5694 20.5813 19.5694C19.1227 19.5694 18.3934 20.7546 18.3934 21.8486C18.3022 22.9425 19.1227 24.0365 20.5813 24.1277ZM23.9544 27.3184C25.1396 27.3184 26.2335 26.6803 26.5982 25.5863C26.7805 25.2216 26.7805 24.857 26.507 24.4923C26.3247 24.1277 25.8689 23.9453 25.5042 23.9453C25.0484 23.9453 24.6837 24.2188 24.5014 24.5835C24.4102 24.7658 24.1367 24.9481 23.9544 24.9481C23.7721 24.9481 23.4986 24.7658 23.4074 24.5835C23.2251 24.1277 22.8604 23.9453 22.4046 23.9453C21.9488 23.9453 21.5841 24.1277 21.4018 24.4923C21.2195 24.857 21.1283 25.2216 21.3107 25.5863C21.7665 26.6803 22.7693 27.3184 23.9544 27.3184ZM32.615 11C30.9741 11 30.7917 13.2791 32.1592 13.7349C32.1592 13.7349 32.1592 18.749 32.1592 18.8401H31.8857C31.7034 17.7462 30.7917 17.0168 29.6978 17.0168H18.2111C17.1171 17.0168 16.2054 17.8373 16.0231 18.8401H15.7496V13.7349C17.2083 13.3703 17.0259 11 15.385 11C13.6528 11 13.5617 13.4614 15.0203 13.7349V18.8401C14.5645 19.0225 14.1998 19.3871 14.1087 19.9341C14.1087 20.0253 14.1087 20.1164 14.1087 20.1164V25.2216C14.1087 26.2244 14.9291 26.5891 15.7496 26.5891C15.8408 26.5891 16.0231 26.5891 16.1143 26.5891C16.4789 27.9566 17.8464 28.1389 19.1227 28.1389C19.5785 28.1389 20.1255 28.1389 20.4902 28.1389C20.5813 28.1389 20.6725 28.1389 20.7637 28.1389C18.3022 29.324 16.4789 31.8766 16.3878 34.6116C18.6669 36.0702 21.4018 36.7083 24.0456 36.7083C26.6893 36.7083 29.4243 35.979 31.7034 34.6116C31.5211 31.8766 29.7889 29.2329 27.3275 28.1389C27.4187 28.1389 27.5098 28.1389 27.5098 28.1389C27.9656 28.1389 28.4215 28.1389 28.8773 28.1389C30.1536 28.1389 31.5211 27.9566 31.8857 26.5891C31.9769 26.5891 32.1592 26.5891 32.2504 26.5891C33.162 26.5891 33.8913 26.3156 33.9825 25.2216C33.9825 25.1305 33.9825 20.1164 33.9825 20.0253C33.9825 19.4783 33.5267 19.0225 32.9797 18.8401C32.9797 18.749 32.9797 13.8261 32.9797 13.7349C34.4383 13.4614 34.3472 11 32.615 11ZM15.6585 25.8598C15.2026 25.8598 14.838 25.7686 14.838 25.2216V20.1164C14.838 19.5694 15.2938 19.4783 15.6585 19.4783C15.7496 19.4783 15.8408 19.4783 15.932 19.4783V25.7686C15.8408 25.8598 15.7496 25.8598 15.6585 25.8598ZM32.2504 25.8598C32.1592 25.8598 32.068 25.8598 31.9769 25.8598V19.5694C32.068 19.5694 32.1592 19.5694 32.2504 19.5694C32.7062 19.5694 33.0709 19.6606 33.0709 20.2076V25.3128C33.162 25.7686 32.7062 25.8598 32.2504 25.8598ZM27.6922 23.3072C25.6865 23.3072 25.6865 20.2988 27.6922 20.2076C29.6978 20.2988 29.6978 23.216 27.6922 23.3072ZM20.5813 23.3072C18.5757 23.3072 18.5757 20.2988 20.5813 20.2076C22.587 20.2988 22.587 23.3072 20.5813 23.3072ZM23.9544 26.5891C23.1339 26.5891 22.3135 26.1333 21.9488 25.3128C21.7665 24.9481 22.04 24.6747 22.4046 24.6747C22.587 24.6747 22.6781 24.7658 22.7693 24.9481C22.9516 25.404 23.4986 25.7686 24.0456 25.7686C24.5926 25.7686 25.0484 25.404 25.3219 24.9481C25.413 24.7658 25.5042 24.6747 25.6865 24.6747C25.96 24.6747 26.2335 24.9481 26.1424 25.3128C25.6865 26.2244 24.7749 26.5891 23.9544 26.5891Z" fill="white"/>
<path d="M20.946 14.4639C20.8548 14.4639 20.4902 14.4639 20.4902 14.0081C20.4902 13.5522 20.8548 13.5522 20.946 13.5522C21.0372 13.5522 21.4018 13.5522 21.4018 14.0081C21.4018 14.4639 20.946 14.4639 20.946 14.4639Z" fill="white"/>
<path d="M20.946 13.9168C21.0372 13.9168 21.0372 14.008 21.0372 14.008C21.0372 14.0991 21.0372 14.0991 20.946 14.0991C20.7637 14.0991 20.7637 14.008 20.7637 14.008C20.7637 13.9168 20.7637 13.9168 20.946 13.9168ZM20.946 13.1875C20.4902 13.1875 20.1255 13.461 20.1255 14.008C20.1255 14.555 20.5813 14.8285 20.946 14.8285C21.4018 14.8285 21.7665 14.555 21.7665 14.008C21.7665 13.461 21.3107 13.1875 20.946 13.1875Z" fill="white"/>
<path d="M24.0456 14.4639C23.9544 14.4639 23.5898 14.4639 23.5898 14.0081C23.5898 13.5522 23.9544 13.5522 24.0456 13.5522C24.1367 13.5522 24.5014 13.5522 24.5014 14.0081C24.5014 14.4639 24.1367 14.4639 24.0456 14.4639Z" fill="white"/>
<path d="M24.0456 13.9168C24.1367 13.9168 24.1367 14.008 24.1367 14.008C24.1367 14.0991 24.1367 14.0991 24.0456 14.0991C23.9544 14.0991 23.9544 14.008 23.9544 14.008C23.9544 13.9168 23.9544 13.9168 24.0456 13.9168ZM24.0456 13.1875C23.5898 13.1875 23.2251 13.461 23.2251 14.008C23.2251 14.555 23.6809 14.8285 24.0456 14.8285C24.5014 14.8285 24.8661 14.555 24.8661 14.008C24.8661 13.461 24.4102 13.1875 24.0456 13.1875Z" fill="white"/>
<path d="M27.054 14.4639C26.9628 14.4639 26.5982 14.4639 26.5982 14.0081C26.5982 13.5522 26.9628 13.5522 27.054 13.5522C27.1452 13.5522 27.5098 13.5522 27.5098 14.0081C27.5098 14.4639 27.1452 14.4639 27.054 14.4639Z" fill="white"/>
<path d="M27.054 13.9168C27.1452 13.9168 27.1452 13.9168 27.1452 14.008C27.1452 14.0991 27.1452 14.0991 27.054 14.0991C26.9628 14.0991 26.9628 14.008 26.9628 14.008C26.9628 13.9168 26.9628 13.9168 27.054 13.9168ZM27.054 13.1875C26.5982 13.1875 26.2335 13.461 26.2335 14.008C26.2335 14.555 26.6893 14.8285 27.054 14.8285C27.5098 14.8285 27.8745 14.555 27.8745 14.008C27.8745 13.461 27.5098 13.1875 27.054 13.1875Z" fill="white"/>
</svg>
