<svg width="14" height="15" viewBox="0 0 14 15" fill="none" xmlns="http://www.w3.org/2000/svg">
    <path d="M7 0.5C5.61553 0.5 4.26216 0.91054 3.11101 1.67971C1.95987 2.44888 1.06266 3.54213 0.532849 4.82122C0.00302923 6.1003 -0.135591 7.50776 0.134509 8.86563C0.404599 10.2235 1.07129 11.4708 2.05026 12.4497C3.02922 13.4287 4.2765 14.0954 5.63437 14.3655C6.99224 14.6356 8.3997 14.497 9.6788 13.9672C10.9579 13.4373 12.0511 12.5401 12.8203 11.389C13.5895 10.2378 14 8.88447 14 7.5C14 5.64348 13.2625 3.86301 11.9497 2.55025C10.637 1.2375 8.85652 0.5 7 0.5ZM7 13.5C5.81332 13.5 4.65328 13.1481 3.66658 12.4888C2.67989 11.8295 1.91085 10.8925 1.45673 9.7961C1.0026 8.69974 0.883779 7.49334 1.11529 6.32946C1.3468 5.16557 1.91825 4.09647 2.75736 3.25736C3.59648 2.41824 4.66558 1.8468 5.82946 1.61529C6.99335 1.38378 8.19975 1.5026 9.2961 1.95672C10.3925 2.41085 11.3295 3.17988 11.9888 4.16658C12.6481 5.15327 13 6.31331 13 7.5C13 9.0913 12.3679 10.6174 11.2426 11.7426C10.1174 12.8679 8.5913 13.5 7 13.5Z" fill="#A35E04"/>
    <path d="M6.9982 5.57526C6.89205 5.57808 6.78648 5.55863 6.6883 5.51815C6.59013 5.47768 6.50152 5.41707 6.4282 5.34026C6.35553 5.26746 6.29818 5.18085 6.25954 5.08553C6.22089 4.9902 6.20174 4.8881 6.2032 4.78526C6.20182 4.68094 6.22152 4.57741 6.26111 4.48089C6.3007 4.38437 6.35937 4.29683 6.43361 4.22353C6.50784 4.15023 6.59611 4.09267 6.69313 4.0543C6.79015 4.01594 6.89391 3.99755 6.9982 4.00026C7.10536 3.99778 7.21192 4.01687 7.31155 4.05638C7.41119 4.09589 7.50186 4.15502 7.5782 4.23026C7.65042 4.30338 7.70748 4.39006 7.74609 4.4853C7.7847 4.58055 7.80411 4.68248 7.8032 4.78526C7.80467 4.8881 7.78552 4.9902 7.74687 5.08553C7.70823 5.18085 7.65088 5.26746 7.5782 5.34026C7.50281 5.4171 7.41241 5.47762 7.31263 5.51805C7.21286 5.55848 7.10583 5.57795 6.9982 5.57526ZM6.3232 11.0002V6.11526H7.6532V11.0002H6.3232Z" fill="#A35E04"/>
</svg>
