<svg width="22" height="19" viewBox="0 0 22 19" fill="none" xmlns="http://www.w3.org/2000/svg">
<path fill-rule="evenodd" clip-rule="evenodd" d="M11.9375 0.790027L21.365 17.455C21.4534 17.6156 21.4979 17.7966 21.494 17.9798C21.4902 18.163 21.4381 18.3419 21.343 18.4986C21.248 18.6553 21.1133 18.7841 20.9526 18.8722C20.7918 18.9602 20.6107 19.0043 20.4275 19H1.57252C1.38932 19.0043 1.20822 18.9602 1.04749 18.8722C0.886766 18.7841 0.752081 18.6553 0.657015 18.4986C0.561949 18.3419 0.50986 18.163 0.505999 17.9798C0.502138 17.7966 0.546641 17.6156 0.635023 17.455L10.0625 0.790027C10.1585 0.626711 10.2955 0.491308 10.46 0.39723C10.6244 0.303152 10.8106 0.253662 11 0.253662C11.1895 0.253662 11.3756 0.303152 11.5401 0.39723C11.7045 0.491308 11.8415 0.626711 11.9375 0.790027ZM11 2.17753L2.33002 17.5H19.67L11 2.17753ZM10.4476 15.8986C10.6229 15.9695 10.8109 16.004 11 16C11.1902 16.0037 11.3791 15.9691 11.5557 15.8982C11.7322 15.8274 11.8926 15.7217 12.0275 15.5875C12.1631 15.456 12.2709 15.2987 12.3446 15.1248C12.4182 14.9508 12.4562 14.7639 12.4562 14.575C12.4562 14.3861 12.4182 14.1992 12.3446 14.0252C12.2709 13.8513 12.1631 13.6939 12.0275 13.5625C11.752 13.297 11.3825 13.1514 11 13.1575C10.8116 13.1538 10.6243 13.1877 10.4492 13.2573C10.2741 13.3268 10.1145 13.4306 9.97997 13.5625C9.84434 13.6939 9.73651 13.8513 9.66286 14.0252C9.58922 14.1992 9.55127 14.3861 9.55127 14.575C9.55127 14.7639 9.58922 14.9508 9.66286 15.1248C9.73651 15.2987 9.84434 15.456 9.97997 15.5875C10.1131 15.7218 10.2722 15.8276 10.4476 15.8986ZM9.90497 5.5L10.055 12.0325H11.975L12.155 5.5H9.90497Z" fill="#BF0000"/>
</svg>
