<svg width="48" height="48" viewBox="0 0 48 48" fill="none" xmlns="http://www.w3.org/2000/svg">
<circle cx="24" cy="24" r="24" fill="#077DB8"/>
<path fill-rule="evenodd" clip-rule="evenodd" d="M33.4103 16.3095L24.5303 25.1895C24.237 25.4827 23.763 25.4827 23.4698 25.1895L14.5898 16.3095C14.865 15.9712 15.2798 15.75 15.75 15.75H32.25C32.7203 15.75 33.135 15.9712 33.4103 16.3095ZM24.0001 26.9078C24.5761 26.9078 25.1521 26.6888 25.5908 26.2501L33.7501 18.0908V30.7501C33.7501 31.5781 33.0781 32.2501 32.2501 32.2501H15.7501C14.9213 32.2501 14.2501 31.5781 14.2501 30.7501V18.0908L22.4093 26.2501C22.8481 26.6888 23.4233 26.9078 24.0001 26.9078Z" fill="white"/>
</svg>
