<svg width="14" height="14" viewBox="0 0 14 14" fill="none" xmlns="http://www.w3.org/2000/svg">
<path fill-rule="evenodd" clip-rule="evenodd" d="M9.7973 8.63475L8.6023 9.83025C8.4443 9.98775 8.2098 10.0372 8.0028 9.95225C7.4568 9.72825 6.3743 9.21825 5.5783 8.42175C4.7818 7.62525 4.2718 6.54275 4.0478 5.99725C3.9628 5.79025 4.0123 5.55575 4.1698 5.39725L5.3653 4.20275C5.7978 3.77025 5.7978 3.06825 5.3653 2.63575L3.0538 0.32475C2.6208 -0.10825 1.9193 -0.10825 1.4868 0.32475L0.324801 1.48675C0.108801 1.70275 -0.00669949 1.99575 0.000300515 2.30025C0.0318005 3.68925 0.0023005 7.34925 3.3268 10.6733C6.6508 13.9978 10.3103 13.9683 11.6998 13.9993C12.0043 14.0068 12.2973 13.8912 12.5133 13.6753L13.6753 12.5133C14.1083 12.0808 14.1083 11.3787 13.6753 10.9458L11.3643 8.63475C10.9318 8.20225 10.2298 8.20225 9.7973 8.63475Z" fill="#FFFFFF"/>
</svg>
