<svg width="126" height="94" viewBox="0 0 126 94" fill="none" xmlns="http://www.w3.org/2000/svg">
<g clip-path="url(#clip0_2926_16080)">
<path d="M123.923 29.4375H42.7226V80.3595H123.923V29.4375Z" fill="#F7F7F7" stroke="#333333"/>
<path fill-rule="evenodd" clip-rule="evenodd" d="M10.7668 55.4354C10.5582 55.117 10.2044 54.9259 9.82348 54.9259H3.62825C2.95702 54.9259 2.33115 54.662 1.85948 54.1888C1.3878 53.7156 1.12475 53.0877 1.13383 52.4143L1.26081 3.99479C1.26081 2.62073 2.38557 1.50146 3.75523 1.50146H80.9099C81.5812 1.50146 82.207 1.76536 82.6787 2.23854C83.1504 2.71173 83.4044 3.33961 83.4044 4.01298L83.2774 52.4325C83.2774 53.8066 82.1526 54.9259 80.783 54.9259H25.1256C24.7447 54.9259 24.3909 55.117 24.1823 55.4354L17.4791 65.6089L10.7759 55.4354H10.7668Z" fill="white"/>
<path d="M80.9009 2.63894C81.2637 2.63894 81.6084 2.78454 81.8624 3.03933C82.1163 3.29412 82.2615 3.63991 82.2615 4.0039L82.1345 52.4235C82.1345 53.1696 81.5177 53.7884 80.7739 53.7884H25.1256C24.3637 53.7884 23.6562 54.1706 23.2389 54.8076L17.4791 63.5433L11.7192 54.8076C11.302 54.1706 10.5854 53.7884 9.83255 53.7884H3.63732C3.27449 53.7884 2.92981 53.6428 2.67583 53.388C2.42186 53.1332 2.27673 52.7874 2.27673 52.4235L2.40371 4.0039C2.40371 3.25772 3.02052 2.63894 3.76431 2.63894H80.919M80.919 0.364014H3.75524C1.75063 0.364014 0.126989 1.98376 0.126989 3.9948L0 52.4143C0 54.4254 1.62364 56.0633 3.62825 56.0633H9.82348L16.7172 66.5189C16.8986 66.7919 17.1888 66.9284 17.47 66.9284C17.7512 66.9284 18.0505 66.7919 18.2229 66.5189L25.1166 56.0633H80.7648C82.7694 56.0633 84.384 54.4436 84.3931 52.4325L84.5201 4.013C84.5201 2.00196 82.8964 0.364014 80.8918 0.364014H80.919Z" fill="#333333"/>
<path fill-rule="evenodd" clip-rule="evenodd" d="M101.827 82.507C101.618 82.1885 101.264 81.9974 100.883 81.9974H45.2261C43.8565 81.9974 42.7317 80.8781 42.7317 79.5041L42.6047 31.0845C42.6047 30.4111 42.8587 29.7833 43.3304 29.3101C43.802 28.8369 44.4279 28.573 45.0991 28.573H122.254C123.623 28.573 124.748 29.6923 124.748 31.0663L124.875 79.4859C124.875 80.1593 124.621 80.7871 124.15 81.2603C123.678 81.7335 123.052 81.9974 122.381 81.9974H116.195C115.814 81.9974 115.46 82.1885 115.251 82.507L108.548 92.6805L101.836 82.507H101.827Z" fill="#EBEBEB"/>
<path d="M122.254 29.7105C122.998 29.7105 123.614 30.3202 123.614 31.0754L123.741 79.495C123.741 79.859 123.605 80.2048 123.342 80.4595C123.088 80.7143 122.744 80.8599 122.381 80.8599H116.195C115.433 80.8599 114.725 81.2421 114.308 81.8791L108.548 90.6148L102.788 81.8791C102.371 81.2421 101.654 80.8599 100.902 80.8599H45.2443C44.5005 80.8599 43.8837 80.2503 43.8837 79.495L43.7567 31.0754C43.7567 30.7114 43.8927 30.3657 44.1558 30.1109C44.4098 29.8561 44.7544 29.7105 45.1173 29.7105H122.272M122.272 27.4355H45.0991C43.0945 27.4355 41.4618 29.0735 41.4709 31.0845L41.5979 79.5041C41.5979 81.5151 43.2215 83.1349 45.2261 83.1349H100.883L107.777 93.5904C107.959 93.8634 108.249 93.9999 108.53 93.9999C108.811 93.9999 109.11 93.8634 109.283 93.5904L116.177 83.1349H122.363C124.367 83.1349 126 81.4969 125.991 79.4859L125.864 31.0663C125.864 29.0553 124.24 27.4355 122.236 27.4355H122.272Z" fill="#333333"/>
<path d="M107.305 5.77832L100.802 11.8114" stroke="#333333" stroke-width="2.5" stroke-linecap="round"/>
<path d="M111.514 19.7009H102.425" stroke="#333333" stroke-width="2.5" stroke-linecap="round"/>
<path d="M93.4909 1.13745V9.78218" stroke="#333333" stroke-width="2.5" stroke-linecap="round"/>
<path d="M12.5175 14.696H69.5898" stroke="#333333" stroke-width="2.5" stroke-linecap="round"/>
<path d="M12.5991 23.5684H32.11" stroke="#333333" stroke-width="2.5" stroke-linecap="round"/>
<path d="M31.7018 44.9525C31.7018 45.9626 30.8945 46.7724 29.8877 46.7724H14.8486C13.8508 46.7724 13.0345 45.9626 13.0345 44.9525L13.0073 35.4433C13.0073 34.4332 13.8145 33.6143 14.8214 33.6143H29.8605C30.8582 33.6143 31.6746 34.4241 31.6746 35.4342L31.7018 44.9434V44.9525Z" stroke="#333333" stroke-width="2.5"/>
<path d="M55.6029 41.7769H112.675" stroke="#333333" stroke-width="2.5" stroke-linecap="round"/>
<path d="M55.6029 59.5667H112.675" stroke="#333333" stroke-width="2.5" stroke-linecap="round"/>
<path d="M55.6845 50.6489H75.1954" stroke="#333333" stroke-width="2.5" stroke-linecap="round"/>
<path d="M55.6845 68.439H75.1954" stroke="#333333" stroke-width="2.5" stroke-linecap="round"/>
</g>
<defs>
<clipPath id="clip0_2926_16080">
<rect width="126" height="94" fill="white"/>
</clipPath>
</defs>
</svg>
