<svg width="230" height="154" viewBox="0 0 230 154" fill="none" xmlns="http://www.w3.org/2000/svg">
<g clip-path="url(#clip0_2923_16258)">
<path d="M175.114 56.9651C175.336 57.7575 175.612 58.5334 175.942 59.287C176.082 59.6075 176.231 59.9233 176.384 60.2158C176.539 60.593 176.726 60.9565 176.942 61.3025C177.095 61.5474 177.331 61.7289 177.608 61.8133C177.821 61.8718 178.048 61.8655 178.258 61.7951C178.468 61.7248 178.652 61.5936 178.787 61.4183C178.923 61.243 179.002 61.0315 179.017 60.8108C179.031 60.59 178.979 60.37 178.868 60.1787C178.665 59.8509 178.487 59.5078 178.338 59.1524C178.184 58.8366 178.035 58.5162 177.896 58.1958C177.896 58.1586 177.859 58.1215 177.845 58.0843C177.845 58.1168 177.947 58.3211 177.887 58.1818C177.826 58.0425 177.826 58.0286 177.794 57.9543C177.733 57.7964 177.673 57.6385 177.617 57.4899C177.487 57.123 177.37 56.7469 177.263 56.3661C177.173 56.0946 176.982 55.8682 176.729 55.7335C176.477 55.5989 176.182 55.5664 175.906 55.6428C175.63 55.7191 175.394 55.8985 175.246 56.1438C175.099 56.389 175.052 56.6814 175.114 56.9605V56.9651Z" fill="#333333"/>
<path d="M138.595 63.8132C138.811 66.0611 139.858 68.1479 141.53 69.6665C145.787 66.7972 151.341 65.3717 155.106 62.2548C153.983 61.8296 152.907 61.2889 151.896 60.6413C150.058 59.419 148.465 57.8645 147.199 56.0577C145.613 53.9009 144.398 51.4952 143.603 48.9393C142.849 46.6173 142.352 44.2194 142.122 41.7888C141.952 40.3128 141.897 39.4419 141.87 38.5115C145.181 36.2471 149.291 34.5649 152.529 33.5245C158.789 31.5122 164.16 28.0745 166.494 25.3151C168.15 30.183 174.007 36.1921 177.406 36.8247L180.474 38.4748C181.726 37.251 183.877 37.251 185.304 38.2594C185.996 38.7971 186.547 39.4957 186.908 40.2945C187.27 41.0932 187.43 41.9681 187.377 42.843C187.245 44.5993 186.595 46.2773 185.51 47.665C184.118 49.4976 182.258 50.9225 180.125 51.7903C179.076 53.6412 177.796 55.3509 176.314 56.8782C176.703 58.2565 177.246 59.5866 177.933 60.843C177.96 60.8956 177.991 60.9462 178.025 60.9943C178.144 60.7559 178.263 60.5359 178.378 60.3021C179.586 61.184 180.666 62.2283 181.588 63.4053C181.763 63.6299 181.932 63.8636 182.093 64.0837C184.671 65.3487 187.739 66.7605 190.45 68.0714C191.885 66.5222 191.931 64.7941 191.958 63.6253C192.018 61.4608 191.697 59.3027 191.009 57.2494C190.161 54.4259 188.601 48.7009 188.798 38.5802C189.161 35.6559 189.023 31.4114 188.959 29.7796C188.73 24.1234 186.335 17.7338 182.708 14.0989L182.593 13.9935L179.63 11.7017C179.561 11.6491 179.489 11.6002 179.414 11.555C177.986 10.5956 176.446 9.81369 174.828 9.22652C171.496 7.92255 167.944 7.27205 164.366 7.31055C158.447 7.2359 152.699 9.29611 148.176 13.1135C142.214 18.3847 139.058 25.636 139.98 37.6177C141.251 46.6016 137.925 56.3969 138.595 63.8132Z" fill="#EBEBEB"/>
<path d="M141.688 68.7514C140.564 67.7198 139.739 66.4065 139.297 64.9481C138.982 63.6117 138.866 62.2363 138.953 60.8662C139.013 57.4994 139.543 54.1652 139.976 50.8356C140.511 47.3168 140.752 43.7598 140.697 40.2012C140.627 38.4366 140.362 36.6998 140.292 34.9351C140.227 33.2942 140.25 31.6511 140.362 30.0127C140.725 25.0206 142.246 20.0424 145.39 16.1462C148.583 12.1829 152.998 9.38325 157.949 8.18207C164.294 6.65203 170.979 7.45143 176.782 10.4343C177.543 10.8243 178.276 11.2649 178.978 11.7532C179.233 11.9007 179.537 11.9415 179.823 11.8667C180.108 11.7919 180.353 11.6076 180.503 11.3538C180.647 11.0977 180.686 10.7957 180.612 10.5115C180.537 10.2273 180.355 9.98322 180.103 9.83063C177.438 7.91273 174.126 6.69605 170.94 5.97626C167.422 5.18659 163.792 5.02933 160.219 5.51188C154.687 6.18683 149.54 8.68804 145.595 12.6181C141.65 16.5482 139.133 21.6818 138.446 27.2032C137.912 30.5833 137.84 34.0201 138.232 37.4196C138.697 41.1021 138.455 44.8497 138.032 48.5183C137.627 52.0383 137.032 55.5397 136.799 59.0737C136.59 62.2083 136.59 65.4868 138.348 68.222C138.849 68.9952 139.439 69.7075 140.106 70.3442C141.143 71.338 142.725 69.7638 141.688 68.7653V68.7514Z" fill="#333333"/>
<path d="M181.756 13.9172C183.079 15.2117 184.171 16.7226 184.984 18.3845C185.894 20.1355 186.599 21.9851 187.086 23.8967C188.105 27.8254 188.114 32.0234 187.891 36.0589C187.83 37.1688 187.714 38.2554 187.705 39.3699C187.696 40.4845 187.705 41.6501 187.761 42.7924C187.826 44.6825 187.965 46.5725 188.193 48.4486C188.495 51.0441 188.993 53.6132 189.682 56.1341C190.147 57.8523 190.724 59.538 190.872 61.3213C191.04 63.2902 191.128 65.5518 189.724 67.1121C188.77 68.1802 190.342 69.7591 191.305 68.691C192.724 67.1075 193.133 65.2499 193.166 63.1834C193.163 60.9201 192.81 58.6707 192.119 56.5149C191.451 54.278 190.941 51.9969 190.593 49.6885C190.337 47.9471 190.17 46.1731 190.068 44.4085C189.87 42.0914 189.854 39.7623 190.021 37.4428C190.216 35.1107 190.264 32.7687 190.165 30.4306C190.132 28.426 189.915 26.4287 189.519 24.4633C189.021 22.155 188.24 19.9168 187.193 17.7994C186.25 15.7515 184.942 13.8917 183.333 12.3104C182.277 11.3398 180.691 12.9141 181.751 13.8893L181.756 13.9172Z" fill="#333333"/>
<path d="M181.175 38.7278C181.486 38.4573 181.857 38.2634 182.257 38.1618C182.656 38.0601 183.075 38.0536 183.478 38.1427C183.939 38.2414 184.374 38.4391 184.751 38.7222C185.129 39.0052 185.44 39.3669 185.664 39.782C186.185 40.7104 186.384 41.7845 186.231 42.8376C186.03 44.0559 185.552 45.2121 184.836 46.2183C184.702 46.4723 184.671 46.7682 184.75 47.0443C184.829 47.3204 185.012 47.5555 185.26 47.7004C185.508 47.8453 185.803 47.8889 186.083 47.8222C186.362 47.7554 186.606 47.5835 186.761 47.3421C188.496 44.7044 189.259 41.0869 187.357 38.3099C186.954 37.7004 186.431 37.1791 185.82 36.7775C185.209 36.376 184.523 36.1026 183.803 35.9741C183.054 35.8319 182.281 35.8661 181.547 36.0741C180.813 36.2821 180.138 36.6581 179.575 37.1722C178.528 38.1613 180.11 39.7355 181.156 38.7511L181.175 38.7278Z" fill="#333333"/>
<path d="M179.445 50.8765C177.767 51.7572 176.024 52.5086 174.231 53.1241C172.331 53.7074 170.403 54.1941 168.454 54.5822C167.059 54.898 167.65 57.0481 169.05 56.7323C171.058 56.335 173.044 55.8297 174.999 55.2184C176.915 54.5477 178.781 53.7391 180.58 52.799C181.859 52.1489 180.734 50.2217 179.455 50.8765H179.445Z" fill="#333333"/>
<path d="M166.04 54.3825C165.828 54.5623 165.655 54.784 165.533 55.0336C165.411 55.2832 165.343 55.5553 165.331 55.8328C165.32 56.1103 165.366 56.3871 165.467 56.6458C165.568 56.9045 165.722 57.1395 165.919 57.336C166.267 57.6342 166.677 57.8514 167.119 57.9718C167.562 58.0923 168.025 58.113 168.477 58.0325C169.463 57.8932 170.677 56.788 170.714 55.6688C170.751 54.5497 169.365 53.8113 168.156 53.6813C167.773 53.6283 167.383 53.664 167.016 53.7856C166.649 53.9072 166.315 54.1114 166.04 54.3825Z" fill="#333333"/>
<path d="M183.705 49.6685C183.451 51.1085 183.021 52.5121 182.426 53.848C182.295 54.0174 182.12 54.1477 181.92 54.2247C181.72 54.3017 181.502 54.3224 181.291 54.2845C180.616 54.2651 179.955 54.0886 179.361 53.769C179.169 53.6701 179.012 53.5155 178.91 53.3258C178.808 53.136 178.765 52.9198 178.789 52.7056C179.321 51.179 179.762 49.6222 180.11 48.0432C180.224 48.2471 180.354 48.4413 180.5 48.6237C180.847 49.1005 181.316 49.4745 181.859 49.7057C182.46 49.9029 183.112 49.8898 183.705 49.6685Z" fill="#333333"/>
<path d="M178.17 53.7911C179.478 52.7596 180.518 51.4298 181.203 49.9135C181.346 49.6509 181.386 49.3447 181.315 49.0544C181.276 48.9129 181.211 48.7803 181.121 48.6644C181.031 48.5484 180.919 48.4514 180.791 48.3788C180.664 48.3063 180.523 48.2597 180.377 48.2418C180.232 48.2238 180.084 48.2348 179.943 48.2742C179.803 48.3097 179.672 48.3733 179.557 48.4612C179.443 48.549 179.348 48.6592 179.277 48.7851C179.122 49.1323 178.946 49.4703 178.752 49.7974C178.649 49.9692 178.538 50.1411 178.426 50.3036L178.268 50.5265L178.18 50.6472C178.068 50.8005 178.31 50.4801 178.226 50.5869C177.747 51.1943 177.199 51.7444 176.594 52.2261C176.489 52.329 176.406 52.4515 176.349 52.5866C176.293 52.7217 176.264 52.8668 176.264 53.0133C176.264 53.1597 176.293 53.3048 176.349 53.4399C176.406 53.575 176.489 53.6975 176.594 53.8004C176.802 54.0085 177.085 54.1269 177.38 54.1301C177.673 54.1127 177.952 53.9965 178.17 53.8004V53.7911Z" fill="#333333"/>
<path d="M181.073 47.4593C180.75 46.8883 180.56 46.2518 180.517 45.5973C180.475 44.9429 180.581 44.2872 180.827 43.6792C181.029 43.1606 181.397 42.7231 181.873 42.4346L182.083 42.3278C182.222 42.2582 181.892 42.3836 182.05 42.3278L182.39 42.235C182.427 42.235 182.618 42.2071 182.469 42.235C182.32 42.2628 182.515 42.235 182.552 42.235C182.697 42.235 182.841 42.235 182.99 42.235C183.032 42.235 183.139 42.235 182.99 42.235L183.185 42.2767C183.314 42.3068 183.441 42.344 183.566 42.3882C183.371 42.3185 183.683 42.4439 183.748 42.4857C183.813 42.5275 183.864 42.5554 183.92 42.5925C183.739 42.4718 183.976 42.6483 183.999 42.6715L184.139 42.8201C184.101 42.7736 184.05 42.6668 184.139 42.8433C184.227 43.0198 184.306 43.1266 184.385 43.2752C184.545 43.5829 184.663 43.911 184.734 44.2504C185.008 45.416 184.846 47.097 184.148 48.0072C183.955 48.2736 183.691 48.4797 183.385 48.6016C183.385 48.6016 183.05 48.6945 182.971 48.7038C182.878 48.7085 182.785 48.7085 182.692 48.7038C182.692 48.7038 182.339 48.662 182.478 48.7038C182.172 48.6041 181.89 48.442 181.649 48.2278C181.409 48.0136 181.216 47.7519 181.083 47.4593C180.362 46.2194 178.431 47.3385 179.157 48.5831C179.682 49.5675 180.536 50.3366 181.571 50.7564C182.09 50.923 182.637 50.9805 183.179 50.9253C183.721 50.8702 184.246 50.7036 184.72 50.4359C186.613 49.3818 187.218 46.8556 187.074 44.8634C186.929 42.8712 186.013 40.7954 183.976 40.1917C183.111 39.9404 182.188 39.9725 181.342 40.2834C180.497 40.5944 179.773 41.1676 179.278 41.9192C177.929 43.8417 178.013 46.6094 179.157 48.597C179.869 49.8415 181.799 48.7224 181.083 47.4732L181.073 47.4593Z" fill="#333333"/>
<path d="M165.133 24.8971C166.17 27.8877 168.114 30.5579 170.287 32.8241C171.325 33.9209 172.47 34.9118 173.705 35.7822C174.673 36.5154 175.782 37.0432 176.961 37.3332C177.249 37.4111 177.556 37.3736 177.817 37.2287C178.078 37.0838 178.271 36.8431 178.357 36.5577C178.398 36.415 178.41 36.2656 178.393 36.1181C178.376 35.9706 178.33 35.828 178.257 35.6985C178.184 35.5689 178.087 35.4551 177.97 35.3634C177.853 35.2718 177.719 35.2042 177.575 35.1645C176.577 34.9248 175.642 34.4717 174.836 33.8364C173.765 33.0647 172.773 32.1906 171.873 31.2266C169.97 29.2437 168.198 26.8939 167.286 24.2608C167.202 23.9748 167.009 23.7333 166.748 23.5882C166.487 23.4432 166.179 23.4062 165.891 23.4853C165.607 23.5656 165.366 23.7544 165.221 24.0109C165.075 24.2674 165.037 24.5708 165.114 24.8553L165.133 24.8971Z" fill="#333333"/>
<path d="M165.416 23.8182C163.341 26.2423 160.467 27.9977 157.653 29.4187C154.118 31.2205 150.276 32.205 146.648 33.7839C144.562 34.6737 142.562 35.7541 140.675 37.0113C139.494 37.81 140.61 39.7419 141.801 38.9339C145.066 36.8056 148.614 35.144 152.341 33.9975C156.164 32.7959 159.788 31.0354 163.095 28.7732C164.531 27.8138 165.842 26.6797 166.997 25.3971C167.199 25.1835 167.311 24.9011 167.311 24.6077C167.311 24.3142 167.199 24.0319 166.997 23.8182C166.786 23.6117 166.502 23.4961 166.207 23.4961C165.911 23.4961 165.627 23.6117 165.416 23.8182Z" fill="#333333"/>
<path d="M185.663 96.8659C187.316 102.921 188.823 109.014 190.184 115.144C190.496 116.537 192.645 115.952 192.338 114.554C190.976 108.424 189.469 102.33 187.817 96.2715C187.44 94.8784 185.281 95.4774 185.663 96.8659Z" fill="#333333"/>
<path d="M177.403 116.273C183.426 116.812 189.547 116.157 195.543 115.809C196.971 115.73 196.98 113.487 195.543 113.58C189.529 113.91 183.408 114.564 177.403 114.044C177.107 114.046 176.824 114.163 176.615 114.372C176.406 114.581 176.288 114.864 176.286 115.159C176.293 115.452 176.413 115.732 176.621 115.939C176.829 116.147 177.109 116.266 177.403 116.273Z" fill="#333333"/>
<path d="M143.079 89.5831C143.27 90.5317 143.377 91.4951 143.4 92.4623C143.484 93.535 143.549 94.6124 143.619 95.6851C143.721 97.8189 144 99.9405 144.451 102.029C144.998 104.096 145.802 106.087 146.847 107.954C147.814 109.812 148.852 111.59 149.512 113.564C149.894 114.57 150.205 115.602 150.442 116.652C150.656 117.785 150.801 118.927 151.103 120.047C151.475 121.44 153.629 120.845 153.257 119.452C152.987 118.449 152.833 117.427 152.657 116.406C152.476 115.525 152.241 114.657 151.954 113.805C151.295 111.774 150.433 109.814 149.382 107.954C148.334 106.151 147.48 104.243 146.833 102.261C146.312 100.25 146 98.1914 145.903 96.117C145.814 94.9003 145.749 93.679 145.652 92.4623C145.621 91.2965 145.487 90.1356 145.252 88.9934C144.884 87.6002 142.73 88.1946 143.098 89.5831H143.079Z" fill="#333333"/>
<path d="M146.126 105.816C144.266 109.494 142.596 113.246 140.447 116.794C139.703 118.02 141.628 119.144 142.377 117.918C144.522 114.388 146.192 110.618 148.057 106.94C148.703 105.663 146.778 104.534 146.126 105.816Z" fill="#333333"/>
<path d="M81.7661 22.9256C80.8415 20.2684 79.0056 17.0192 76.4564 15.7675L73.6827 13.6209C72.3802 12.4648 70.8454 11.6177 69.1875 11.14C67.4956 10.639 65.7318 10.4433 63.9747 10.5615C59.7921 10.8733 56.2127 12.4324 53.3862 15.5641L51.1848 18.402C48.5784 21.4072 45.9509 26.2087 46.9767 32.3952C47.2428 32.2129 48.6869 32.0493 49.0017 31.9902C49.4249 32.8873 50.0975 33.0339 50.6217 32.3952C51.1525 32.7124 51.6614 32.5904 51.8276 33.1973L52.1798 32.9217C53.9409 32.393 55.0108 30.9107 55.8649 29.1799C56.4813 27.9282 56.8467 26.4685 57.9034 25.5647C58.7461 24.9463 59.7474 24.5959 60.7827 24.557C62.4034 24.3935 64.0368 24.4177 65.6521 24.6293L72.3663 24.81C74.5324 25.3659 75.8885 26.7532 77.0288 28.5156C77.8615 29.8251 78.4304 31.2925 78.7018 32.8313L79.5251 34.0063C79.7573 33.7984 80.0307 33.6447 80.3264 33.5558C80.622 33.4668 80.933 33.4448 81.2378 33.4911C81.4129 33.5185 81.5844 33.567 81.7485 33.6357C82.9002 30.1645 82.9064 26.4007 81.7661 22.9256Z" fill="#EBEBEB"/>
<path d="M148.095 128.039C147.856 128.073 147.613 128.027 147.402 127.909C147.091 127.7 147.174 127.347 147.272 127.027C147.337 126.794 147.3 126.938 147.272 126.994C147.32 126.893 147.378 126.797 147.444 126.706C147.587 126.518 147.742 126.339 147.909 126.172C148.139 125.939 148.381 125.719 148.635 125.513C150.038 124.345 151.507 123.26 153.035 122.262C155.142 120.869 157.431 119.439 159.836 118.658C160.995 118.243 162.254 118.188 163.445 118.501C164.485 118.815 165.5 119.211 166.478 119.685C167.707 120.277 169.015 120.688 170.362 120.906C171.622 121.073 172.831 120.818 174.083 120.767C175.515 120.711 175.525 118.482 174.083 118.538C172.892 118.584 171.697 118.881 170.506 118.691C169.227 118.43 167.99 117.999 166.827 117.409C165.625 116.814 164.348 116.384 163.031 116.132C161.544 115.949 160.036 116.15 158.649 116.717C155.82 117.874 153.142 119.368 150.672 121.166C149.12 122.165 147.666 123.308 146.328 124.579C145.36 125.568 144.612 126.901 145.058 128.336C145.523 129.864 147.23 130.426 148.677 130.166C148.96 130.085 149.2 129.896 149.346 129.639C149.491 129.383 149.53 129.08 149.454 128.796C149.369 128.515 149.179 128.278 148.924 128.133C148.668 127.989 148.366 127.948 148.082 128.02L148.095 128.039Z" fill="#333333"/>
<path d="M156.033 122.343C153.971 123.607 151.994 125.003 150.112 126.523C148.484 127.814 146.242 129.537 146.954 131.924C147.082 132.375 147.335 132.782 147.684 133.097C148.033 133.413 148.463 133.624 148.926 133.707C149.987 133.906 150.945 133.554 151.898 133.117C152.153 132.967 152.337 132.723 152.412 132.438C152.487 132.152 152.446 131.849 152.298 131.594C152.148 131.342 151.906 131.157 151.623 131.078C151.34 130.998 151.038 131.03 150.777 131.167C150.509 131.297 150.229 131.4 149.94 131.473C149.766 131.531 149.58 131.542 149.401 131.506C149.354 131.506 149.117 131.403 149.196 131.441C149.275 131.478 149.154 131.394 149.135 131.357C149.061 131.183 149.041 130.99 149.08 130.804C149.08 130.907 149.122 130.651 149.135 130.614C149.108 130.688 149.233 130.428 149.27 130.368C149.308 130.308 149.461 129.992 149.573 129.936C149.508 129.969 149.391 130.145 149.526 130.001L149.67 129.848C149.777 129.732 149.889 129.625 150.001 129.518C151.416 128.228 152.928 127.047 154.522 125.984C155.387 125.38 156.261 124.786 157.168 124.243C158.401 123.504 157.28 121.577 156.043 122.315L156.033 122.343Z" fill="#333333"/>
<path d="M159.686 124.645C157.997 125.704 156.374 126.856 154.751 128.007C153.272 129.057 151.662 130.041 150.862 131.746C150.099 133.362 150.676 135.293 152.444 135.925C154.341 136.608 156.095 135.168 157.56 134.184C159.5 132.888 161.393 131.518 163.365 130.269C164.575 129.498 163.454 127.571 162.235 128.342C160.374 129.517 158.602 130.794 156.788 132.02C155.934 132.676 155.022 133.253 154.062 133.742C153.634 133.924 153.011 133.947 152.788 133.533C152.565 133.12 152.89 132.554 153.253 132.071C153.904 131.324 154.668 130.685 155.518 130.176C157.258 128.945 158.993 127.705 160.798 126.572C162.012 125.811 160.891 123.879 159.672 124.645H159.686Z" fill="#333333"/>
<path d="M161.886 128.945C161.107 130.065 160.394 131.229 159.751 132.432C159.113 133.547 158.179 134.61 158.286 135.975C158.299 136.354 158.401 136.724 158.583 137.057C158.766 137.389 159.024 137.674 159.337 137.889C159.657 138.093 160.021 138.222 160.399 138.264C160.777 138.307 161.16 138.263 161.518 138.135C162.073 137.928 162.585 137.623 163.03 137.234C163.607 136.769 164.174 136.305 164.728 135.803C165.913 134.76 167.031 133.643 168.077 132.46C168.28 132.248 168.393 131.966 168.393 131.673C168.393 131.379 168.28 131.097 168.077 130.886C167.867 130.678 167.583 130.562 167.288 130.562C166.993 130.562 166.71 130.678 166.5 130.886C165.7 131.787 164.867 132.65 163.988 133.472C163.523 133.895 163.058 134.313 162.593 134.717L161.9 135.297L161.509 135.613C161.459 135.664 161.402 135.709 161.341 135.748C161.411 135.711 161.56 135.59 161.402 135.701C161.244 135.813 161.095 135.896 160.937 135.985C160.779 136.073 161.03 135.985 160.839 136.017C160.774 136.017 160.709 136.054 160.644 136.064C160.686 136.064 160.797 136.04 160.644 136.064C160.602 136.064 160.89 136.152 160.644 136.064C160.644 136.064 160.486 135.994 160.569 136.036C160.653 136.077 160.5 135.906 160.621 136.105C160.555 135.994 160.56 135.896 160.583 136.05C160.567 136.007 160.555 135.964 160.546 135.92C160.546 135.836 160.546 135.859 160.546 135.989V135.896C160.546 135.803 160.546 135.711 160.546 135.618C160.546 135.409 160.546 135.618 160.546 135.646C160.553 135.603 160.562 135.561 160.574 135.52C160.589 135.483 160.6 135.444 160.607 135.404C160.648 135.218 160.607 135.404 160.579 135.46L160.802 135.093C161.132 134.578 161.444 134.048 161.732 133.514C162.366 132.332 163.068 131.188 163.835 130.087C163.983 129.831 164.024 129.527 163.949 129.241C163.874 128.955 163.689 128.71 163.435 128.559C163.178 128.416 162.876 128.378 162.591 128.453C162.307 128.527 162.063 128.708 161.909 128.958L161.886 128.945Z" fill="#333333"/>
<path d="M167.439 133.231C169.384 133.788 171.463 133.635 173.305 132.799C174.7 132.205 175.965 131.378 177.347 130.779C177.601 130.629 177.786 130.385 177.861 130.1C177.935 129.814 177.895 129.511 177.747 129.256C177.593 129.006 177.349 128.825 177.064 128.75C176.78 128.676 176.478 128.714 176.221 128.856C174.993 129.386 173.858 130.12 172.64 130.672C171.209 131.375 169.567 131.52 168.035 131.081C166.639 130.668 166.067 132.818 167.439 133.231Z" fill="#333333"/>
<path d="M207.888 117.794C207.888 117.646 207.888 117.943 207.888 117.985C207.888 118.147 207.916 118.305 207.925 118.449C207.925 118.802 207.953 119.159 207.953 119.512C207.953 120.269 207.92 121.026 207.865 121.779C207.829 123.071 207.59 124.349 207.158 125.568C205.939 128.498 202.748 129.989 199.804 130.546C198.032 130.88 196.213 130.969 194.422 131.14C193.492 131.229 192.585 131.28 191.669 131.326C189.166 131.452 186.664 131.521 184.157 131.582C181.986 131.631 179.823 131.671 177.668 131.702L178.784 132.817C178.674 131.2 178.443 129.593 178.091 128.011C177.65 125.57 176.971 123.177 176.063 120.868C175.602 119.632 174.976 118.464 174.203 117.395C174.047 117.147 173.802 116.968 173.519 116.894C173.235 116.82 172.934 116.856 172.677 116.995C172.423 117.146 172.238 117.389 172.162 117.674C172.087 117.959 172.126 118.262 172.272 118.519C174.054 120.84 174.863 123.826 175.528 126.617C175.845 127.955 176.105 129.302 176.319 130.658C176.361 130.927 176.398 131.196 176.435 131.47C176.398 131.182 176.435 131.563 176.435 131.619C176.435 131.674 176.463 131.828 176.472 131.935C176.51 132.227 176.542 132.524 176.552 132.817C176.556 133.111 176.675 133.392 176.884 133.6C177.092 133.808 177.373 133.927 177.668 133.931C182.296 133.866 186.924 133.787 191.543 133.565C194.477 133.475 197.401 133.191 200.297 132.715C203.674 132.092 207.102 130.351 208.814 127.244C209.655 125.716 209.893 123.994 210.051 122.285C210.242 120.587 210.232 118.872 210.023 117.176C209.984 117.033 209.916 116.899 209.825 116.782C209.733 116.665 209.619 116.567 209.489 116.494C209.359 116.422 209.216 116.376 209.068 116.359C208.92 116.342 208.77 116.355 208.627 116.396C208.341 116.482 208.1 116.675 207.954 116.935C207.808 117.195 207.769 117.501 207.846 117.789L207.888 117.794Z" fill="#333333"/>
<path d="M75.698 103.804C77.2267 112.739 78.7663 121.669 80.3168 130.594C81.2161 135.746 82.1122 140.894 83.0053 146.04C83.2193 147.261 83.2751 148.594 84.2612 149.481C84.9589 150.112 85.7961 150.233 86.6939 150.307C87.7265 150.396 88.7591 150.47 89.7917 150.544C96.0757 150.981 102.35 151.297 108.653 151.603C115.937 151.965 123.224 152.295 130.515 152.592C133.541 152.716 136.572 152.835 139.608 152.95L143.222 153.075C144.017 153.175 144.825 153.044 145.548 152.699C146.012 152.428 146.396 152.041 146.663 151.576C146.93 151.111 147.07 150.584 147.069 150.047C147.02 149.384 146.917 148.725 146.762 148.078C146.641 147.368 146.515 146.657 146.39 145.947C146.153 144.596 145.925 143.244 145.683 141.893C145.239 139.373 144.801 136.853 144.366 134.333C143.545 129.593 142.723 124.852 141.901 120.109C141.132 115.675 140.368 111.237 139.608 106.795C139.436 105.769 139.362 104.677 138.785 103.781C138.496 103.33 138.116 102.943 137.671 102.645C137.225 102.347 136.722 102.144 136.194 102.049C135.168 101.937 134.137 101.892 133.105 101.914L115.765 101.366L94.7175 100.688L79.2051 100.187C78.4334 100.101 77.6549 100.272 76.9911 100.674C76.5313 100.983 76.1649 101.412 75.9313 101.913C75.6976 102.415 75.6057 102.971 75.6654 103.521C75.6736 103.814 75.7939 104.093 76.0015 104.3C76.2091 104.507 76.4883 104.627 76.7817 104.635C77.0771 104.633 77.3596 104.515 77.5684 104.306C77.7773 104.098 77.8956 103.816 77.8981 103.521C77.8051 102.824 78.1353 102.388 78.8284 102.402C79.2284 102.402 79.6237 102.43 80.0238 102.444L83.0518 102.541L91.0662 102.797L111.067 103.442L129.612 104.036L132.966 104.139C133.854 104.166 134.775 104.139 135.659 104.222C135.989 104.258 136.301 104.39 136.557 104.601C136.812 104.812 137 105.094 137.096 105.411C137.346 106.443 137.531 107.49 137.65 108.546C138.01 110.638 138.369 112.731 138.729 114.824C140.329 124.112 141.94 133.407 143.562 142.71L144.232 146.546L144.566 148.455C144.659 148.984 144.925 149.676 144.832 150.21C144.725 150.823 144.171 150.888 143.641 150.869L142.087 150.818C139.408 150.725 136.732 150.625 134.059 150.516C127.156 150.244 120.257 149.942 113.36 149.611C106.769 149.3 100.174 148.975 93.5872 148.571C91.3127 148.431 89.0335 148.283 86.7636 148.106C86.2985 148.064 85.7915 148.078 85.5543 147.591C85.3654 147.012 85.2513 146.411 85.2147 145.803C85.0984 145.134 84.9821 144.461 84.8612 143.787C84.4209 141.236 83.9774 138.687 83.5309 136.139C81.9804 127.183 80.43 118.222 78.8795 109.256L77.8469 103.219C77.8072 103.076 77.7395 102.942 77.6477 102.825C77.5559 102.709 77.4419 102.611 77.3121 102.539C77.1824 102.466 77.0395 102.42 76.8918 102.403C76.7441 102.386 76.5944 102.398 76.4515 102.439C76.1761 102.529 75.9451 102.72 75.8053 102.973C75.6654 103.227 75.6271 103.524 75.698 103.804Z" fill="#333333"/>
<path d="M170.84 135.489C163.505 139.98 156.062 144.312 148.588 148.566C147.402 149.244 146.22 149.922 145.015 150.568C143.811 151.213 144.876 153.173 146.141 152.495C148.839 151.046 151.481 149.486 154.132 147.953C158.148 145.631 162.146 143.288 166.128 140.922C168.077 139.761 170.026 138.6 171.961 137.412C173.184 136.664 172.063 134.737 170.831 135.489H170.84Z" fill="#333333"/>
<path d="M53.2728 130.708H61.036H73.3063H76.4274C77.86 130.708 77.8647 128.479 76.4274 128.479H68.3991H56.2032H53.2728C51.8355 128.479 51.8309 130.708 53.2728 130.708Z" fill="#333333"/>
<path d="M211.763 130.702C216.228 130.702 220.693 130.679 225.154 130.669H227.34C228.777 130.669 228.777 128.44 227.34 128.44C222.814 128.44 218.284 128.464 213.758 128.473H211.763C210.325 128.473 210.325 130.702 211.763 130.702Z" fill="#333333"/>
<path d="M59.0063 56.6782C59.104 56.1721 59.1784 55.6612 59.2529 55.1504C59.3412 54.556 59.4157 53.9616 59.4529 53.3626C59.4516 53.0673 59.3336 52.7846 59.1245 52.5758C58.9155 52.3671 58.6322 52.2493 58.3365 52.248C58.0423 52.254 57.7618 52.3733 57.5537 52.581C57.3457 52.7888 57.2261 53.0688 57.2202 53.3626C57.2202 53.7619 57.1551 54.1566 57.1039 54.5514L57.1411 54.2542C57.0621 54.8625 56.969 55.4801 56.8574 56.0838C56.7841 56.374 56.824 56.6811 56.969 56.9429C57.1185 57.1977 57.3631 57.3828 57.6491 57.4577C57.9352 57.5325 58.2393 57.491 58.4947 57.3423C58.6201 57.2713 58.7299 57.176 58.8178 57.062C58.9057 56.9479 58.9698 56.8174 59.0063 56.6782Z" fill="#333333"/>
<path d="M70.7251 53.1524C70.8081 54.2895 70.954 55.4213 71.1623 56.5423C71.2381 56.8226 71.4221 57.0614 71.674 57.2064C71.9347 57.3559 72.2442 57.396 72.5345 57.3179C72.8152 57.2422 73.0544 57.0585 73.1996 56.807C73.3383 56.5431 73.3779 56.2384 73.3113 55.9479C73.2229 55.4139 73.1299 54.8752 73.0601 54.3365L73.0973 54.6291C73.0322 54.1647 72.9857 53.6446 72.9578 53.1524C72.9513 52.8579 72.8353 52.5765 72.6322 52.3629C72.4206 52.1566 72.1372 52.0401 71.8414 52.0378C71.5465 52.0415 71.2646 52.16 71.0561 52.3683C70.8475 52.5765 70.7287 52.8579 70.7251 53.1524Z" fill="#333333"/>
<path d="M80.8522 35.419C80.9675 35.3292 81.0995 35.2631 81.2407 35.2247C81.3818 35.1863 81.5292 35.1763 81.6742 35.1953C81.8192 35.2143 81.959 35.262 82.0854 35.3354C82.2118 35.4089 82.3223 35.5068 82.4104 35.6234C82.5931 36.0082 82.6717 36.434 82.6383 36.8586C82.658 37.3747 82.6237 37.8914 82.536 38.4004C82.2011 40.23 81.2848 42.4312 79.2475 42.7934C79.1061 42.8321 78.9737 42.8983 78.8579 42.9881C78.7421 43.0779 78.6451 43.1896 78.5726 43.3168C78.5 43.444 78.4533 43.5842 78.435 43.7295C78.4167 43.8747 78.4273 44.0222 78.466 44.1633C78.5048 44.3045 78.5711 44.4367 78.661 44.5523C78.751 44.6679 78.8629 44.7647 78.9903 44.8371C79.1177 44.9096 79.2582 44.9563 79.4036 44.9745C79.5491 44.9928 79.6968 44.9822 79.8382 44.9435C83.0616 44.3677 84.6012 40.7408 84.8431 37.8245C84.9687 36.306 84.8431 34.5971 83.5128 33.6172C82.8864 33.1676 82.1252 32.9446 81.3548 32.9852C80.5845 33.0257 79.8509 33.3273 79.2754 33.8401C79.0675 34.0504 78.9509 34.3341 78.9509 34.6296C78.9509 34.9251 79.0675 35.2087 79.2754 35.419C79.4881 35.6209 79.7703 35.7335 80.0638 35.7335C80.3573 35.7335 80.6395 35.6209 80.8522 35.419Z" fill="#333333"/>
<path d="M49.7049 34.1637C49.5896 34.0738 49.4576 34.0077 49.3165 33.9693C49.1753 33.9309 49.028 33.9209 48.8829 33.9399C48.7379 33.9589 48.5981 34.0066 48.4717 34.0801C48.3453 34.1536 48.2349 34.2514 48.1467 34.368C47.964 34.7528 47.8854 35.1787 47.9188 35.6032C47.8992 36.1193 47.9334 36.636 48.0211 37.145C48.356 38.9747 49.2724 41.1758 51.3097 41.538C51.4511 41.5768 51.5834 41.6429 51.6992 41.7327C51.815 41.8225 51.912 41.9342 51.9846 42.0614C52.0571 42.1886 52.1039 42.3289 52.1221 42.4741C52.1404 42.6194 52.1299 42.7668 52.0911 42.908C52.0523 43.0492 51.986 43.1813 51.8961 43.2969C51.8061 43.4125 51.6943 43.5093 51.5669 43.5818C51.4394 43.6542 51.299 43.7009 51.1535 43.7191C51.008 43.7374 50.8603 43.7269 50.7189 43.6881C47.4955 43.1123 45.9559 39.4855 45.714 36.5692C45.5885 35.0506 45.714 33.3417 47.0443 32.3619C47.6707 31.9122 48.4319 31.6893 49.2023 31.7298C49.9727 31.7703 50.7062 32.0719 51.2817 32.5848C51.4897 32.7951 51.6063 33.0787 51.6063 33.3742C51.6063 33.6697 51.4897 33.9533 51.2817 34.1637C51.0691 34.3655 50.7868 34.4781 50.4933 34.4781C50.1999 34.4781 49.9176 34.3655 49.7049 34.1637Z" fill="#333333"/>
<path d="M78.4007 42.1827C78.3459 42.9593 78.1799 43.724 77.9076 44.4535C77.8658 44.5882 77.8146 44.7228 77.7728 44.8575C77.7309 44.9922 77.6611 45.1176 77.7728 44.8111C77.703 44.9736 77.6286 45.1315 77.5495 45.2755C77.0657 46.2143 76.5057 47.1121 75.875 47.9596C74.4331 49.9332 72.4609 52.0276 70.0143 52.6034C68.6188 52.9285 69.2096 55.0786 70.6096 54.7535C73.6191 54.0476 75.9541 51.5911 77.7216 49.1809C79.2519 47.1144 80.5124 44.7786 80.6101 42.1548C80.6706 40.7199 78.4379 40.7199 78.3774 42.1548L78.4007 42.1827Z" fill="#333333"/>
<path d="M49.4598 43.1635C50.7668 48.9404 55.0414 54.5594 61.2882 55.2374C61.5839 55.2362 61.8671 55.1184 62.0762 54.9097C62.2853 54.7009 62.4033 54.4181 62.4045 54.1229C62.3975 53.8296 62.2776 53.5502 62.0697 53.3427C61.8619 53.1352 61.5821 53.0155 61.2882 53.0084C56.0694 52.4511 52.6739 47.2779 51.6087 42.583C51.2924 41.1899 49.1388 41.7796 49.4598 43.1774V43.1635Z" fill="#333333"/>
<path d="M63.9066 39.4148C63.7857 39.8792 63.6787 40.3435 63.595 40.8079C63.5299 41.1063 63.5299 41.4151 63.595 41.7135C63.6439 41.9002 63.7323 42.0744 63.8542 42.2242C63.9762 42.3739 64.1288 42.4959 64.302 42.5819C64.5763 42.7297 64.8834 42.8063 65.195 42.8048C65.3904 42.8048 65.5718 42.749 65.7625 42.7212C65.9053 42.69 66.037 42.621 66.1439 42.5215C66.265 42.4439 66.3642 42.3368 66.4323 42.2103C66.582 41.95 66.6222 41.6411 66.5439 41.3512C66.4636 41.0721 66.2809 40.8334 66.0323 40.6825L65.7625 40.5711C65.5689 40.5201 65.3654 40.5201 65.1718 40.5711L64.9625 40.6082L65.2602 40.5664C65.1999 40.5734 65.139 40.5734 65.0788 40.5664L65.3718 40.6036C65.3045 40.5937 65.2388 40.575 65.1764 40.5479L65.4462 40.6593L65.3299 40.5989L65.5532 40.7708C65.5354 40.7577 65.5198 40.7421 65.5067 40.7243L65.6788 40.9519L65.6509 40.8915L65.7625 41.1562C65.7499 41.1283 65.742 41.0985 65.7392 41.068L65.7811 41.3652C65.7718 41.2974 65.7718 41.2286 65.7811 41.1608L65.7392 41.458C65.8203 40.9651 65.9274 40.4769 66.0602 39.9953C66.1364 39.7053 66.0964 39.3971 65.9486 39.1361C65.8005 38.8843 65.5604 38.6995 65.2788 38.6207C65.1356 38.5815 64.986 38.5716 64.839 38.5916C64.6919 38.6115 64.5504 38.6609 64.4229 38.7368C64.1719 38.8838 63.9871 39.1216 63.9066 39.4008V39.4148Z" fill="#333333"/>
<path d="M56.8234 35.7596C56.5815 36.5537 56.7397 38.3834 58.2467 38.5459C60.2421 38.5459 60.3491 36.3261 59.6747 35.2952C59.1026 34.4222 57.4885 34.0692 56.8234 35.7596Z" fill="#333333"/>
<path d="M72.7608 35.7596C73.0073 36.5537 72.8445 38.3834 71.3375 38.5459C69.3467 38.5459 69.2397 36.3215 69.9095 35.2952C70.4583 34.4222 72.0724 34.0692 72.7608 35.7596Z" fill="#333333"/>
<path d="M66.1512 49.7845C66.5286 49.5308 66.882 49.2432 67.2071 48.9254C67.5173 48.5895 67.8077 48.236 68.0769 47.8666C68.6165 47.1189 69.3049 45.958 68.7281 45.0803C68.5672 44.8445 68.3473 44.6549 68.0903 44.5302C67.8332 44.4056 67.548 44.3503 67.2629 44.3698H66.4024H64.407H62.4022C62.1069 44.3722 61.8244 44.4904 61.6155 44.6989C61.4067 44.9074 61.2883 45.1895 61.2859 45.4843C61.2918 45.778 61.4114 46.0581 61.6194 46.2658C61.8275 46.4736 62.108 46.5929 62.4022 46.5988H66.4815H67.4629C67.3019 46.598 67.1455 46.545 67.0172 46.4479C66.8888 46.3508 66.7956 46.2147 66.7513 46.0601V45.684C66.7513 45.7397 66.7141 45.7955 66.6908 45.8512C66.6489 45.9673 66.6675 45.9069 66.6908 45.8512C66.6908 45.893 66.6536 45.9348 66.6303 45.9766C66.6071 46.0184 66.5326 46.167 66.4768 46.2598C66.3699 46.4502 66.2443 46.6267 66.1187 46.8078C65.9931 46.9889 66.2164 46.701 66.0629 46.8775L65.8163 47.17C65.6768 47.3279 65.5326 47.4765 65.3791 47.6344C65.2256 47.7923 65.5419 47.5183 65.3326 47.6716L65.0256 47.8991C64.7751 48.0525 64.5936 48.2966 64.519 48.5804C64.4445 48.8643 64.4827 49.1659 64.6256 49.4223C64.7776 49.6742 65.0221 49.8569 65.3071 49.9315C65.5921 50.0061 65.895 49.9667 66.1512 49.8216V49.7845Z" fill="#333333"/>
<path d="M56.657 59.7532C59.4333 60.4759 62.3027 60.778 65.169 60.6495C67.9828 60.584 70.785 60.2654 73.5415 59.6975C73.8248 59.6162 74.065 59.4272 74.2102 59.171C74.3555 58.9148 74.3943 58.612 74.3182 58.3276C74.2347 58.0458 74.0452 57.8072 73.7894 57.6618C73.5337 57.5164 73.2314 57.4754 72.9461 57.5474C70.3901 58.0723 67.7918 58.3645 65.1829 58.4205C62.5213 58.5457 59.8559 58.2718 57.2756 57.6078C55.8802 57.2038 55.2988 59.3539 56.6802 59.7532H56.657Z" fill="#333333"/>
<path d="M181.477 64.8452C183.756 65.9597 186.063 67.0278 188.356 68.0959C190.552 69.1361 192.789 70.1438 194.868 71.393C196.551 72.4147 198.03 73.7407 199.226 75.3031C200.673 77.1606 201.259 79.2922 201.831 81.5444C203.692 88.8631 205.12 96.3257 206.292 103.784C206.971 108.098 207.562 112.444 207.813 116.81C207.897 118.235 210.139 118.245 210.045 116.81C209.58 108.488 208.073 100.194 206.445 92.0301C205.752 88.538 205.008 85.0644 204.148 81.6001C203.627 79.4965 203.138 77.3046 202.017 75.4192C200.837 73.4835 199.29 71.7958 197.463 70.4503C195.356 68.876 192.873 67.7894 190.51 66.6656C187.872 65.4071 185.221 64.1858 182.602 62.9041C182.346 62.7614 182.043 62.7233 181.759 62.7977C181.475 62.8721 181.23 63.0533 181.077 63.3035C180.93 63.559 180.89 63.8618 180.965 64.1467C181.04 64.4315 181.223 64.6757 181.477 64.8266V64.8452Z" fill="#333333"/>
<path d="M156.155 72.66C158.932 73.3826 161.801 73.6847 164.667 73.5562C167.481 73.4908 170.283 73.1722 173.04 72.6043C173.323 72.523 173.563 72.3339 173.709 72.0778C173.854 71.8216 173.893 71.5187 173.817 71.2343C173.733 70.9525 173.544 70.7139 173.288 70.5685C173.032 70.4231 172.73 70.3821 172.444 70.4542C169.888 70.979 167.29 71.2712 164.681 71.3272C162.02 71.4525 159.354 71.1785 156.774 70.5145C155.378 70.1105 154.797 72.2606 156.179 72.66H156.155Z" fill="#333333"/>
<path d="M76.2432 16.8405C78.834 18.1129 80.4573 21.0199 81.3597 23.6251C82.4622 26.8745 82.485 30.3923 81.4248 33.6557C80.9597 35.021 83.1365 35.6108 83.5737 34.2455C84.7742 30.5377 84.7317 26.5404 83.4528 22.8588C82.3318 19.7707 80.4154 16.4225 77.3548 14.9133C77.0978 14.7717 76.796 14.7343 76.5121 14.8086C76.2281 14.8829 75.9836 15.0634 75.8292 15.3126C75.6824 15.5689 75.6421 15.8724 75.7169 16.158C75.7917 16.4437 75.9756 16.6886 76.2292 16.8405H76.2432Z" fill="#333333"/>
<path d="M47.9282 32.1191C47.1839 27.6054 47.8165 22.8779 50.919 19.3719C51.8493 18.2991 50.2911 16.7156 49.3375 17.793C47.7548 19.5665 46.6053 21.6822 45.9792 23.9739C45.2886 26.8426 45.2204 29.8256 45.7792 32.7228C45.8189 32.8658 45.8866 32.9995 45.9785 33.1162C46.0703 33.2328 46.1845 33.33 46.3144 33.4022C46.4442 33.4743 46.5871 33.52 46.7348 33.5365C46.8825 33.553 47.032 33.5401 47.1746 33.4984C47.4618 33.4152 47.7045 33.2222 47.85 32.9613C47.9955 32.7004 48.0319 32.3928 47.9514 32.1052L47.9282 32.1191Z" fill="#333333"/>
<path d="M74.6802 12.8818C72.1731 10.532 68.5124 9.47326 65.1402 9.37574C61.8987 9.28449 58.6902 10.0469 55.8374 11.5862C54.279 12.4577 52.8665 13.5671 51.6512 14.874C50.6697 15.9235 52.2465 17.5024 53.2326 16.4529C55.6452 13.8883 58.8702 12.2333 62.3633 11.7673C65.9542 11.2518 70.3451 11.8788 73.094 14.4561C74.1406 15.4359 75.7221 13.8617 74.6755 12.8818H74.6802Z" fill="#333333"/>
<path d="M72.2003 26.251C72.9946 26.4368 73.7429 26.7812 74.4004 27.2633L74.4934 27.333C74.5865 27.4026 74.6702 27.4769 74.7586 27.5512C74.8469 27.6255 75.0423 27.8066 75.1772 27.9413C75.3121 28.076 75.4702 28.2478 75.6098 28.4057C75.6702 28.48 75.7353 28.5497 75.7958 28.6286C75.7958 28.6286 76.0051 28.8887 75.9121 28.7679C77.0376 30.2137 77.7942 31.911 78.1169 33.7136C78.1565 33.8566 78.2242 33.9903 78.3161 34.1069C78.408 34.2235 78.5221 34.3207 78.652 34.3929C78.7818 34.4651 78.9248 34.5107 79.0725 34.5273C79.2201 34.5438 79.3696 34.5308 79.5123 34.4891C79.7945 34.4057 80.0335 34.2165 80.1792 33.9612C80.3248 33.7058 80.3659 33.4041 80.2937 33.1192C79.5588 29.1673 76.8749 25.1504 72.8189 24.1009C72.5333 24.0221 72.2281 24.0597 71.9703 24.2056C71.7126 24.3515 71.5234 24.5936 71.4444 24.8787C71.3655 25.1638 71.4032 25.4686 71.5493 25.7259C71.6954 25.9833 71.938 26.1721 72.2235 26.251H72.2003Z" fill="#333333"/>
<path d="M70.6108 24.8275C70.3698 24.0636 69.973 23.3578 69.4455 22.7544C68.918 22.151 68.2711 21.6631 67.5455 21.3214C65.9048 20.5066 64.0377 20.2646 62.243 20.6341C62.1001 20.6743 61.9665 20.7422 61.8501 20.8341C61.7336 20.9259 61.6364 21.0399 61.5642 21.1694C61.492 21.2988 61.4462 21.4413 61.4294 21.5885C61.4125 21.7358 61.4251 21.8849 61.4662 22.0273C61.5516 22.3127 61.7453 22.5534 62.006 22.6983C62.2666 22.8432 62.5736 22.8807 62.8616 22.8028C63.1675 22.7378 63.4791 22.7036 63.7919 22.7006C63.9733 22.7006 64.1593 22.7006 64.3454 22.7006H64.5873C64.6338 22.7006 64.7733 22.7006 64.6524 22.7006C64.9867 22.7473 65.3166 22.8219 65.6385 22.9235C65.8059 22.9746 65.9734 23.035 66.1408 23.0954L66.2013 23.1232L66.4571 23.244C66.7328 23.38 66.9986 23.5351 67.2525 23.7083C67.3037 23.7455 67.3781 23.8012 67.2851 23.7083L67.4525 23.8477C67.5688 23.9498 67.6851 24.0613 67.7967 24.1774L67.9363 24.3306C67.9363 24.3306 68.0805 24.5071 68.0153 24.4189C67.9502 24.3306 68.0944 24.5396 68.1084 24.5582L68.22 24.73C68.2884 24.8457 68.3506 24.9651 68.406 25.0876C68.3177 24.8972 68.406 25.0876 68.406 25.1479C68.4336 25.2256 68.4569 25.3046 68.4758 25.3848C68.5149 25.5259 68.5815 25.6581 68.6717 25.7736C68.7619 25.889 68.8741 25.9857 69.0017 26.0579C69.1293 26.1301 69.27 26.1765 69.4156 26.1945C69.5612 26.2125 69.7089 26.2016 69.8503 26.1626C69.9917 26.1236 70.124 26.0571 70.2397 25.967C70.3554 25.877 70.4522 25.765 70.5245 25.6376C70.5969 25.5102 70.6434 25.3698 70.6614 25.2244C70.6794 25.079 70.6685 24.9315 70.6294 24.7904L70.6108 24.8275Z" fill="#333333"/>
<path d="M65.704 23.8944C64.0089 23.6595 62.2931 23.6112 60.5874 23.7505C58.8525 23.8991 57.0431 24.2752 55.8756 25.6916C54.122 27.8231 53.8802 31.4732 50.8614 32.4019C49.4939 32.8245 50.0753 34.9792 51.4521 34.552C52.8732 34.0911 54.1036 33.1776 54.9546 31.9515C55.843 30.7487 56.3175 29.3695 56.9919 28.0507C57.2518 27.4462 57.6836 26.9312 58.2338 26.5693C58.8853 26.2398 59.5979 26.0485 60.327 26.0074C61.9106 25.834 63.5092 25.8464 65.09 26.0445C65.3778 26.1188 65.6832 26.0797 65.943 25.9353C66.2027 25.7909 66.3969 25.5524 66.4854 25.269C66.5258 25.1263 66.5376 24.9771 66.5202 24.8298C66.5028 24.6825 66.4565 24.5401 66.3839 24.4107C66.3113 24.2814 66.2139 24.1675 66.0973 24.0757C65.9806 23.984 65.8469 23.9161 65.704 23.8759V23.8944Z" fill="#333333"/>
<path d="M166.192 72.8367C164.055 72.9822 161.909 72.9572 159.776 72.7618C158.606 72.6528 157.451 72.4271 156.33 72.0884C156.351 73.9341 156.42 75.784 156.554 77.6256C156.861 81.4242 157.483 85.1929 158.415 88.8954C159.215 91.9672 160.208 94.9894 161.388 97.9453L161.819 98.8183C162.564 96.6857 163.077 94.7984 163.757 92.9111C164.916 89.7018 169.139 77.53 171.72 72.0925C169.896 72.4601 168.05 72.7087 166.192 72.8367Z" fill="#FFE8E8"/>
<path d="M61.1826 2.54162C53.0952 3.15098 45.4568 6.49223 39.5257 12.015C33.5394 17.6201 29.8462 25.0688 28.3298 33.0701C26.9344 40.3888 27.2693 48.0232 30.1904 54.9332C32.9533 61.4067 37.9535 66.6635 44.019 70.1835C47.4569 72.144 51.1405 73.64 54.973 74.6323C60.0289 76.0501 65.3019 76.5333 70.5318 76.0579C71.7086 75.9372 72.8575 75.7561 74.0436 75.5239L73.1831 75.4078C76.2484 77.7297 79.3927 79.9355 82.5975 82.0624C82.7673 82.1597 82.9596 82.211 83.1554 82.211C83.3511 82.2111 83.5435 82.16 83.7133 82.0627C83.8832 81.9655 84.0245 81.8256 84.1234 81.6569C84.2222 81.4882 84.2751 81.2966 84.2767 81.1011C84.3418 77.6461 84.3976 74.1911 84.3557 70.7315L83.8022 71.6928C89.2909 68.3399 93.5329 63.3339 96.3935 57.5988C99.3472 51.7057 101.189 45.0929 101.17 38.4709C101.155 32.559 99.6887 26.7411 96.9005 21.5256C94.0588 16.2739 89.9381 11.8213 84.9186 8.57858C78.7424 4.65003 71.5891 2.52362 64.2664 2.43945C63.2431 2.43945 62.2198 2.43945 61.1965 2.53697C60.9023 2.54291 60.6218 2.66224 60.4137 2.86998C60.2056 3.07771 60.0861 3.35776 60.0802 3.65149C60.0838 3.94596 60.2026 4.22734 60.4111 4.43558C60.6197 4.64381 60.9016 4.76239 61.1965 4.76601C69.0763 4.21199 76.9276 6.18381 83.6069 10.3943C88.8794 13.7573 93.0977 18.5336 95.7795 24.1772C98.3941 29.7836 99.4358 35.9932 98.7936 42.1441C98.4033 45.6344 97.5654 49.0602 96.3005 52.3373C95.0551 55.7332 93.3492 58.9425 91.2305 61.8757C89.3376 64.49 87.0332 66.7812 84.4069 68.6603C84.0906 68.8832 83.765 69.1247 83.4394 69.3151C82.9743 69.6123 82.3557 69.8677 82.2022 70.4343C82.1309 70.8797 82.1199 71.3327 82.1696 71.781C82.1696 72.2454 82.1696 72.7097 82.1696 73.1509C82.1696 74.767 82.1696 76.4016 82.1277 77.9991C82.1277 79.0362 82.1091 80.0702 82.0719 81.1011L83.7557 80.1399C81.7231 78.7885 79.7044 77.4232 77.7089 75.9976C76.8065 75.3474 75.9181 74.688 75.0297 74.0239C74.8158 73.8614 74.6111 73.6849 74.3878 73.5596C74.221 73.4618 74.0355 73.3998 73.8434 73.3774C73.6512 73.355 73.4564 73.3728 73.2715 73.4295C72.6482 73.541 72.0249 73.6617 71.4109 73.75C66.0712 74.479 60.6058 73.8521 55.4288 72.459C47.9866 70.4436 41.0095 66.6263 36.1442 60.5894C31.6323 54.9564 29.6322 47.7539 29.7578 40.5792C29.916 32.3549 32.4324 23.945 37.5721 17.4436C42.6966 10.9353 50.0507 6.54889 58.2196 5.12823C59.2104 4.9564 60.2058 4.84031 61.2058 4.76601C61.4997 4.75894 61.7795 4.63924 61.9873 4.43174C62.1952 4.22425 62.3151 3.94485 62.3221 3.65149C62.3203 3.50391 62.2894 3.35813 62.2311 3.22248C62.1729 3.08683 62.0884 2.96396 61.9826 2.86089C61.8768 2.75783 61.7517 2.67659 61.6144 2.62181C61.4771 2.56703 61.3304 2.53978 61.1826 2.54162Z" fill="#333333"/>
<path d="M70.7755 75.3224C72.8035 69.7034 74.8781 64.0751 76.306 58.2703L74.6687 58.939L76.8409 60.5551C77.5283 61.0302 78.272 61.4186 79.055 61.7114C82.3389 63.1045 85.6228 64.4605 88.7718 66.1555C90.0369 66.8335 91.1672 64.911 89.8974 64.2283C86.7484 62.538 83.4645 61.1913 80.1806 59.7888C79.4144 59.4997 78.6853 59.121 78.0084 58.6604C77.2689 58.1078 76.5293 57.5644 75.7944 57.0118C75.2176 56.58 74.3106 57.0397 74.1524 57.6805C72.7245 63.4853 70.6499 69.109 68.6219 74.728C68.543 75.0131 68.5807 75.3179 68.7268 75.5752C68.8729 75.8326 69.1155 76.0214 69.401 76.1003C69.6866 76.1791 69.9919 76.1414 70.2496 75.9955C70.5074 75.8497 70.6966 75.6075 70.7755 75.3224Z" fill="#333333"/>
<path d="M61.0402 74.2701C59.0866 68.7719 57.2307 63.2411 55.3702 57.7056C55.3134 57.522 55.2107 57.3559 55.0719 57.2228C54.933 57.0897 54.7626 56.994 54.5765 56.9448C54.3905 56.8956 54.1949 56.8944 54.0083 56.9414C53.8216 56.9884 53.65 57.082 53.5096 57.2134C53.9143 56.8976 53.6352 57.1205 53.5375 57.2134L53.0724 57.5524L51.8305 58.4812C51.5328 58.7041 51.2444 58.9455 50.9281 59.1545C50.5826 59.3436 50.2196 59.4991 49.8443 59.6189C46.2447 61.0239 42.719 62.6111 39.281 64.3742C38.0112 65.0522 39.1368 66.9793 40.4067 66.3013C43.7882 64.4903 47.314 63.0507 50.849 61.5972C51.2792 61.4497 51.6949 61.2631 52.0909 61.0399C52.4212 60.817 52.7282 60.5755 53.0212 60.3201C53.7003 59.8093 54.3841 59.3078 55.0539 58.7877L53.1933 58.2954C55.0539 63.8262 56.9144 69.3616 58.8634 74.8599C58.9478 75.1461 59.1411 75.388 59.4019 75.5338C59.6626 75.6796 59.9702 75.7177 60.2588 75.6401C60.5467 75.5579 60.7902 75.3651 60.9358 75.1039C61.0814 74.8427 61.1173 74.5345 61.0356 74.2469L61.0402 74.2701Z" fill="#333333"/>
<path d="M150.777 70.9663C150.098 71.5143 149.442 72.0994 148.809 72.7031C148.177 73.3068 147.363 73.9616 146.949 74.7185C146.409 75.6844 147.13 76.9058 147.465 77.8299C147.833 78.8469 148.2 79.8639 148.577 80.8809C150.019 84.7863 151.53 88.6685 153.172 92.4904C154.056 94.543 154.977 96.577 155.963 98.5831C156.112 98.8386 156.357 99.0245 156.644 99.0999C156.93 99.1752 157.235 99.1338 157.491 98.9848C157.747 98.8357 157.933 98.5913 158.009 98.3052C158.084 98.0191 158.043 97.7148 157.894 97.4593C154.558 90.5957 151.847 83.4489 149.284 76.2696C149.204 75.9755 149.102 75.6883 148.977 75.4105C149.144 75.4105 148.656 75.8748 148.977 75.7448C149.065 75.7077 149.223 75.4755 149.279 75.4151C149.605 75.0714 149.94 74.7325 150.279 74.4027C150.954 73.7526 151.675 73.1211 152.391 72.5452C152.599 72.3357 152.715 72.0528 152.715 71.7581C152.715 71.4633 152.599 71.1805 152.391 70.971C152.178 70.7677 151.895 70.6543 151.6 70.6543C151.306 70.6543 151.022 70.7677 150.809 70.971L150.777 70.9663Z" fill="#333333"/>
<path d="M151.769 70.5167C151.778 70.178 151.806 69.84 151.853 69.5044L151.811 69.8016C151.91 69.0719 152.085 68.3545 152.332 67.6608C152.374 67.5184 152.388 67.369 152.371 67.2213C152.355 67.0736 152.309 66.9307 152.237 66.8009C152.165 66.6711 152.067 66.5571 151.95 66.4655C151.833 66.3739 151.698 66.3066 151.555 66.2676C151.266 66.1912 150.959 66.2299 150.699 66.3755C150.438 66.5211 150.245 66.7622 150.159 67.0478C149.77 68.1567 149.553 69.3188 149.518 70.4935C149.52 70.7883 149.638 71.0704 149.847 71.2789C150.056 71.4874 150.339 71.6056 150.634 71.608C150.928 71.6021 151.209 71.4827 151.417 71.275C151.625 71.0673 151.744 70.7872 151.75 70.4935L151.769 70.5167Z" fill="#333333"/>
<path d="M177.7 61.0072C179.16 62.0854 180.419 63.4103 181.422 64.922C181.935 65.6776 182.367 66.4855 182.71 67.3321C182.847 67.6735 182.959 68.0242 183.045 68.3816C183.078 68.5102 183.104 68.6404 183.124 68.7717C183.124 68.6463 183.017 69.1757 183.166 68.7438L183.454 68.2516C183.636 68.0194 183.612 68.1401 183.408 68.2516C183.203 68.363 183.059 68.4234 182.877 68.507C182.361 68.7392 181.84 68.9714 181.315 69.185C180.333 69.6029 179.249 70.0348 178.235 70.4945C177.393 70.8753 177.635 71.9806 178.235 72.4171C179.198 73.1402 180.12 73.9153 180.998 74.739C181.463 75.1523 181.891 75.5702 182.324 75.9975C182.757 76.4247 182.663 76.4619 182.375 76.838C181.403 78.1058 180.487 79.42 179.584 80.7249C176.835 84.6164 174.133 88.5404 171.342 92.3995C169.947 94.3452 168.514 96.2863 167.044 98.116C166.844 98.3302 166.732 98.6123 166.732 98.9054C166.732 99.1985 166.844 99.4807 167.044 99.6949C167.255 99.9014 167.539 100.017 167.835 100.017C168.13 100.017 168.414 99.9014 168.626 99.6949C171.737 95.8173 174.584 91.7215 177.44 87.6535C178.835 85.6845 180.198 83.7109 181.589 81.7419C182.138 80.9617 182.691 80.1877 183.25 79.42L183.877 78.5609L184.184 78.1569L184.324 77.9711L184.282 78.0268C184.379 77.9096 184.469 77.7871 184.552 77.66C184.768 77.2709 184.879 76.8317 184.871 76.3866C184.864 75.9415 184.739 75.5062 184.51 75.1244C184.039 74.4818 183.484 73.9054 182.859 73.4109C181.757 72.367 180.596 71.3886 179.38 70.4806V72.4032C180.566 71.8691 181.705 71.428 182.952 70.8846C183.854 70.4992 185.38 70.123 185.38 68.9203C185.38 67.1371 184.319 65.2285 183.366 63.7889C182.156 61.9626 180.63 60.3664 178.859 59.0754C178.603 58.9279 178.299 58.8871 178.014 58.9619C177.728 59.0367 177.483 59.221 177.333 59.4748C177.19 59.7312 177.152 60.0328 177.226 60.3166C177.301 60.6004 177.482 60.8445 177.733 60.9979L177.7 61.0072Z" fill="#333333"/>
<path d="M162.616 106.976C162.479 106.054 162.41 105.122 162.412 104.19C162.454 103.757 162.569 103.335 162.751 102.94C162.956 102.365 163.156 101.789 163.347 101.213C164.002 99.2208 164.556 97.2007 165.235 95.2178C165.954 93.1281 166.675 91.0399 167.398 88.9533C168.444 85.9534 169.505 82.9581 170.607 79.9814C171.593 77.3205 172.607 74.6317 173.728 72.1705C174.491 70.4895 175.361 68.8641 176.138 67.1877C177.152 64.9912 178.105 62.7575 179.226 60.612C179.892 59.3443 177.966 58.2158 177.301 59.4882C176.305 61.3876 175.44 63.3565 174.556 65.3069C173.77 67.0252 172.905 68.7062 172.091 70.4151C170.886 72.9507 169.886 75.5884 168.896 78.2121C166.919 83.4689 165.109 88.7861 163.267 94.0986C162.579 96.0908 161.998 98.1248 161.351 100.136C161.16 100.735 160.956 101.338 160.746 101.937C160.485 102.538 160.302 103.171 160.202 103.818C160.158 104.877 160.219 105.938 160.384 106.985C160.392 107.278 160.512 107.557 160.72 107.764C160.927 107.971 161.206 108.092 161.5 108.1C161.796 108.099 162.079 107.981 162.288 107.772C162.497 107.563 162.615 107.28 162.616 106.985V106.976Z" fill="#333333"/>
<path d="M155.219 63.4065C154.92 68.844 155.012 74.2959 155.494 79.7203C155.975 84.5278 156.91 89.2794 158.285 93.9118C158.964 96.1872 159.726 98.4488 160.587 100.664C160.671 100.941 160.858 101.176 161.109 101.322C161.36 101.468 161.657 101.513 161.941 101.449C162.083 101.409 162.217 101.341 162.334 101.249C162.45 101.157 162.548 101.043 162.62 100.914C162.693 100.784 162.739 100.642 162.757 100.495C162.774 100.348 162.762 100.198 162.722 100.056C161.171 96.0909 159.943 92.0082 159.047 87.847C157.986 82.8301 157.406 77.7235 157.317 72.5967C157.252 69.5271 157.317 66.4575 157.443 63.3926C157.503 61.9577 155.27 61.9577 155.21 63.3926L155.219 63.4065Z" fill="#333333"/>
<path d="M153.876 61.2412C150.392 64.0971 145.866 65.3695 141.982 67.5614C139.952 68.6433 138.146 70.101 136.661 71.8569C135.042 73.8863 134.219 76.2779 133.545 78.7577C132.191 83.7219 130.996 88.7233 129.647 93.6875L127.41 101.916C127.033 103.31 129.186 103.895 129.563 102.511C130.721 98.2478 131.889 93.994 133.014 89.7171C133.847 86.4989 134.666 83.2761 135.508 80.0626C136.01 78.1586 136.508 76.1943 137.526 74.49C138.669 72.7036 140.216 71.21 142.043 70.1294C146.364 67.4082 151.466 66.0893 155.457 62.8247C155.664 62.6138 155.78 62.3304 155.78 62.0353C155.78 61.7401 155.664 61.4567 155.457 61.2458C155.244 61.0436 154.961 60.9309 154.667 60.9309C154.372 60.9309 154.089 61.0436 153.876 61.2458V61.2412Z" fill="#333333"/>
<path d="M140.126 38.2468C140.24 42.3258 141.01 46.3601 142.405 50.1954C143.857 54.059 146.229 57.8345 149.513 60.4118C155.964 65.4596 165.434 65.7104 172.267 61.2848C175.874 58.9208 178.869 55.7382 181.007 51.9972C181.724 50.748 179.793 49.6242 179.082 50.8734C177.352 53.8902 175.024 56.5228 172.239 58.61C169.122 60.959 165.321 62.2276 161.416 62.2229C158.082 62.2131 154.818 61.2634 152.001 59.483C148.787 57.4119 146.396 54.0219 144.922 50.5437C143.331 46.641 142.464 42.4822 142.364 38.2701C142.312 36.8398 140.08 36.8305 140.131 38.2701L140.126 38.2468Z" fill="#333333"/>
<path d="M161.784 57.7306C162.533 57.0463 163.162 56.241 163.644 55.3483C164.188 54.3267 164.905 52.6735 163.598 51.8979C162.951 51.5172 162.063 51.7075 161.351 51.7679C160.639 51.8283 159.83 51.9165 159.072 52.0001C158.225 52.0976 157.374 52.2044 156.528 52.3298C156.384 52.3695 156.25 52.437 156.133 52.5287C156.016 52.6203 155.919 52.7342 155.846 52.8637C155.773 52.9933 155.727 53.1359 155.71 53.2834C155.693 53.4309 155.705 53.5803 155.746 53.723C155.834 54.002 156.024 54.2373 156.279 54.3813C156.534 54.5253 156.834 54.5672 157.118 54.4985L157.583 54.4335C157.909 54.387 157.449 54.4335 157.662 54.4335L157.904 54.4056L159.118 54.257C159.942 54.1641 160.77 54.0805 161.598 54.0109C161.923 53.983 162.253 53.9552 162.579 53.9412C162.636 53.946 162.694 53.946 162.751 53.9412C162.597 53.9361 162.451 53.8731 162.342 53.7648C162.265 53.6879 162.207 53.5952 162.171 53.4933C162.135 53.3913 162.122 53.2826 162.132 53.175C162.093 53.284 162.062 53.3957 162.039 53.5094C162.016 53.5837 161.993 53.658 161.965 53.7276C161.937 53.7973 161.909 53.8762 161.965 53.788C161.743 54.2954 161.465 54.7767 161.137 55.2229C161.072 55.3204 161.002 55.418 160.928 55.5108C161.039 55.3715 160.83 55.6177 160.802 55.6455C160.616 55.8406 160.411 56.0124 160.216 56.1981C160.024 56.4101 159.92 56.6879 159.927 56.9739C159.934 57.2599 160.051 57.5323 160.254 57.7346C160.457 57.9369 160.729 58.0536 161.016 58.0607C161.302 58.0677 161.581 57.9645 161.793 57.7724L161.784 57.7306Z" fill="#333333"/>
<path d="M157.332 45.6386C157.175 46.0203 157.042 46.4111 156.932 46.8089C156.737 47.4683 156.5 48.2995 157.058 48.8568C157.178 48.9748 157.314 49.0749 157.462 49.154C157.609 49.2362 157.765 49.3002 157.928 49.3444C158.155 49.3805 158.386 49.396 158.616 49.3908C158.912 49.3869 159.196 49.2687 159.407 49.0611C159.616 48.8522 159.733 48.5691 159.733 48.274C159.733 47.9789 159.616 47.6958 159.407 47.4869C159.194 47.283 158.911 47.1669 158.616 47.1618C158.495 47.1688 158.374 47.1688 158.253 47.1618L158.551 47.2036C158.489 47.1915 158.428 47.1744 158.369 47.1525L158.639 47.264C158.552 47.2278 158.471 47.1793 158.397 47.12L158.625 47.2965L158.797 47.524L158.914 47.7887C158.912 47.7749 158.912 47.7608 158.914 47.7469L158.956 48.0441C158.951 47.9854 158.951 47.9264 158.956 47.8677L158.918 48.1649C158.978 47.8094 159.068 47.4597 159.188 47.12C159.281 46.8321 159.374 46.5395 159.49 46.2609C159.531 46.1184 159.543 45.9691 159.524 45.8221C159.504 45.6751 159.455 45.5336 159.379 45.4064C159.306 45.2795 159.208 45.1682 159.092 45.0791C158.975 44.99 158.842 44.9248 158.7 44.8872C158.558 44.8496 158.411 44.8405 158.265 44.8603C158.12 44.88 157.98 44.9284 157.853 45.0024L157.625 45.1789C157.49 45.3158 157.392 45.4853 157.342 45.6711L157.332 45.6386Z" fill="#333333"/>
<path d="M148.973 40.7425C148.656 41.7317 148.796 44.0257 150.605 44.2579C152.996 44.2858 153.187 41.5227 152.41 40.2039C151.773 39.1265 149.847 38.6482 148.973 40.7425Z" fill="#333333"/>
<path d="M169.514 40.8265C169.812 41.876 169.551 44.2629 167.575 44.4255C164.97 44.3558 164.891 41.4581 165.798 40.1207C166.537 39.0201 168.658 38.6021 169.514 40.8265Z" fill="#333333"/>
<path d="M213.426 11.8198C216.237 9.14684 219.082 6.50923 221.908 3.85272C222.563 3.23626 223.218 2.61887 223.871 2.00055C224.526 1.37919 223.536 0.391179 222.883 1.01078C219.995 3.75301 217.078 6.46375 214.176 9.19058C213.595 9.73613 213.016 10.2827 212.437 10.8304C211.783 11.4517 212.773 12.4398 213.426 11.8198Z" fill="#077DB8"/>
<path d="M216.468 17.0219C220.845 14.5708 225.26 12.1896 229.655 9.77064C230.444 9.33681 229.739 8.12628 228.95 8.56221C224.555 10.9812 220.139 13.3623 215.762 15.8135C214.977 16.2532 215.681 17.4624 216.468 17.0219Z" fill="#077DB8"/>
<path d="M217.973 22.7737C221.293 22.173 224.62 21.5978 227.938 20.9834C228.822 20.8197 228.448 19.471 227.567 19.634C224.247 20.2484 220.923 20.8235 217.602 21.4243C216.718 21.5841 217.092 22.9329 217.973 22.7737Z" fill="#077DB8"/>
<path d="M16.5744 11.0056C13.7633 8.33263 10.9184 5.69502 8.09226 3.03851C7.43667 2.42205 6.78213 1.80466 6.12864 1.18634C5.47445 0.564981 6.46412 -0.423032 7.11692 0.196575C10.0045 2.9388 12.9218 5.64954 15.8241 8.37637C16.4047 8.92192 16.9842 9.46852 17.5627 10.0162C18.2165 10.6375 17.2268 11.6255 16.5744 11.0056Z" fill="#077DB8"/>
<path d="M13.5319 16.2167C9.15488 13.7656 4.73944 11.3844 0.344613 8.96546C-0.443772 8.53163 0.260742 7.32111 1.05018 7.75704C5.445 10.176 9.86045 12.5572 14.2375 15.0083C15.0227 15.4481 14.3189 16.6572 13.5319 16.2167Z" fill="#077DB8"/>
<path d="M12.0271 21.9585C8.7072 21.3578 5.38033 20.7826 2.06219 20.1682C1.17875 20.0045 1.55267 18.6558 2.43366 18.8188C5.75355 19.4332 9.07762 20.0084 12.3986 20.6091C13.2823 20.769 12.9081 22.1177 12.0271 21.9585Z" fill="#077DB8"/>
</g>
<defs>
<clipPath id="clip0_2923_16258">
<rect width="230" height="154" fill="white"/>
</clipPath>
</defs>
</svg>
