<svg width="230" height="158" viewBox="0 0 230 158" fill="none" xmlns="http://www.w3.org/2000/svg">
<path d="M38.8983 42.2178C38.8983 42.2178 38.7134 42.2464 38.4031 42.2915C38.2871 42.2105 38.166 42.137 38.0405 42.0715C37.6866 41.874 37.2917 41.7613 36.8868 41.7422C36.4819 41.7232 36.0782 41.7982 35.7072 41.9615C34.6107 42.4989 34.1782 43.8485 34.1216 45.0687C34.0804 46.3163 34.3059 47.5583 34.7829 48.7118C35.26 49.8653 35.9776 50.9038 36.8879 51.758C34.5592 55.3142 30.9559 57.8426 26.8195 58.823C27.7335 60.6938 28.1827 62.7575 28.1289 64.8389C30.4199 65.5657 34.4242 66.9504 37.936 68.1723C40.72 69.1406 43.1947 70.006 44.2632 70.3597C44.4832 69.5895 44.6521 69.0135 44.6521 69.0135C45.072 67.5332 45.6435 66.1001 46.3577 64.7372C46.4549 64.5043 46.6387 64.3184 46.8704 64.2186C47.1021 64.1188 47.3636 64.113 47.5995 64.2024C49.5015 64.9325 52.5512 64.9523 54.8433 64.3719L54.9665 64.3405C56.2626 63.9233 57.3671 63.0571 58.0811 61.8978C59.2976 60.0922 60.1344 56.5674 60.3886 54.9852C60.6439 54.2942 61.0644 53.6762 61.6133 53.1851C62.4865 52.4248 63.8141 51.9027 63.3272 50.3689C63.12 49.796 62.728 49.3084 62.213 48.983C59.6772 47.2402 59.9996 43.1465 60.2252 40.1966C60.6006 37.9566 60.6006 35.6697 60.2252 33.4297C59.7972 32.4856 51.5256 33.1216 50.5463 33.7488C43.9435 37.0491 38.9302 40.1465 38.8983 42.2178Z" fill="white"/>
<path d="M45.1039 125.376C54.402 115.253 65.4212 103.048 69.9674 97.3822C70.0707 97.2528 70.2018 97.1483 70.3509 97.0764C70.5001 97.0045 70.6634 96.9671 70.829 96.9668H160.675C160.839 96.9667 161.001 97.0035 161.15 97.0744C161.298 97.1454 161.429 97.2486 161.532 97.3767C168.592 106.179 191.294 130.776 198.879 138.829C198.99 138.967 199.059 139.134 199.076 139.31C199.076 140.307 199.076 143.329 199.076 144.739C199.077 144.883 199.05 145.026 198.995 145.16C198.941 145.294 198.861 145.416 198.759 145.519C198.658 145.622 198.537 145.703 198.404 145.759C198.27 145.815 198.127 145.844 197.983 145.844H33.5257C33.3807 145.845 33.2372 145.816 33.1034 145.76C32.9695 145.704 32.8481 145.623 32.7461 145.52C32.6441 145.417 32.5635 145.294 32.509 145.16C32.4545 145.026 32.4272 144.882 32.4286 144.737C32.4424 143.08 32.4336 140.446 32.4363 139.304C32.4492 139.13 32.514 138.965 32.6223 138.828C35.3276 135.958 39.9519 130.986 45.1039 125.376Z" fill="white"/>
<path d="M97.3558 107.236C97.3558 104.324 92.0547 103.092 87.8749 103.092C83.4426 103.092 77.6167 104.773 77.6167 107.559C77.6167 110.852 82.5557 111.575 87.4953 111.575C91.2949 111.577 97.3558 110.529 97.3558 107.236Z" fill="white"/>
<path d="M93.477 104.301C94.4043 102.24 94.8832 100.005 94.8821 97.7455L94.82 97.4341C94.8475 96.144 91.1095 95.6533 87.8876 95.573C83.8261 95.4723 80.2549 95.8822 80.037 97.3599C79.9517 100.671 80.0733 102.912 81.0345 104.888C82.0699 107.017 84.1898 108.268 87.0073 108.268C90.1208 108.268 91.7114 107.167 92.8129 105.502C93.0637 105.119 93.2856 104.717 93.477 104.301Z" fill="white"/>
<path d="M59.083 90.5059C58.6732 90.1758 58.3177 89.8963 58.0432 89.6807C57.4314 90.496 55.2719 93.0624 54.8373 93.6819L52.9996 95.8875C53.1471 97.7228 53.2808 99.5586 53.3804 101.397C53.4222 102.178 53.2786 105.537 53.2863 106.319L53.3963 109.624L58.354 106.42C58.5292 105.32 58.9176 104.265 59.4973 103.313C60.025 102.645 60.9949 102.361 61.659 101.837C62.9998 100.78 64.2053 99.5994 65.5103 98.526C65.9095 98.1091 66.3631 97.7479 66.8588 97.4521C65.6319 95.8864 61.4444 92.3995 59.083 90.5059Z" fill="white"/>
<path d="M65.9285 95.9543C65.902 96.0132 65.8734 96.0715 65.8481 96.1298L65.7628 96.2679C63.9153 94.4524 60.7363 91.8266 58.8855 90.3489L59.8725 89.5302C65.1873 85.9498 62.7445 83.198 66.5056 81.6631C67.661 81.1905 72.463 78.87 74.6544 79.32L78.6554 79.721C79.6727 78.2813 80.9662 79.479 81.2809 80.9396L81.3678 80.8984C81.8333 80.6783 84.2139 79.6666 84.6293 80.6007C85.7297 83.0682 80.8633 84.8121 81.1923 84.6669C81.1142 85.1906 81.0129 85.7083 80.8947 86.2189C80.8428 86.5346 80.705 86.83 80.4963 87.0726C80.2877 87.3153 80.0162 87.4957 79.7117 87.5942L78.0282 88.0756C77.8285 88.9449 77.1121 90.1453 76.3424 90.3345C75.0726 92.0791 72.485 92.8377 69.5657 93.0484C66.9755 93.2327 66.5106 94.6598 65.9285 95.9543Z" fill="white"/>
<path d="M74.1692 103.263C74.0991 103.018 73.9768 102.792 73.8107 102.6C73.6447 102.407 73.4388 102.253 73.2074 102.148C72.3365 101.755 70.791 102.287 69.8777 102.481C68.8499 102.701 67.4018 103.141 66.1782 103.398C67.1053 102.853 67.6087 101.755 68.3647 100.99C69.0678 100.275 69.7368 99.6073 69.3495 98.5043C69.1851 98.1126 68.8973 97.7853 68.5299 97.5722C68.1624 97.3591 67.7354 97.2718 67.3138 97.3236C66.5491 97.4062 66.0781 98.0625 65.5119 98.5274C64.2042 99.6007 62.9987 100.783 61.6606 101.839C60.9966 102.363 60.0266 102.647 59.4989 103.315C58.9192 104.266 58.5308 105.321 58.3557 106.421L56.6572 107.993C58.0998 110.433 59.823 113.957 61.2282 116.94C63.4922 116.851 65.9493 117.185 66.7301 117.014C68.1138 116.71 69.6164 116.606 70.8834 116.002C71.9679 115.485 72.8091 113.623 72.8344 113.472C73.0281 112.316 73.5221 110.218 72.7887 109.387C73.4699 108.727 73.8946 108.273 73.7543 107.533C73.7177 107.206 73.5863 106.897 73.3762 106.644C73.1661 106.391 72.8866 106.204 72.572 106.108C72.9027 106.002 73.2071 105.827 73.4651 105.594C73.723 105.361 73.9285 105.076 74.0679 104.758C74.2821 104.289 74.3181 103.757 74.1692 103.263Z" fill="white"/>
<path d="M38.128 153.857C34.5419 153.429 32.8506 153.006 27.8582 151.636C27.8582 151.636 16.3516 148.725 12.3429 147.155C12.6301 145.34 16.175 135.774 17.6247 129.199C18.0836 126.93 18.505 124.376 18.7432 122.479C21.3687 133.856 29.6964 132.379 37.8502 129.585C39.6399 128.972 41.3879 128.287 43.1061 127.549C38.7723 132.254 34.9749 136.333 32.6256 138.827C32.5173 138.963 32.4525 139.129 32.4396 139.303C32.4369 140.445 32.4457 143.079 32.4319 144.736C32.4305 144.881 32.4578 145.025 32.5122 145.159C32.5667 145.293 32.6473 145.416 32.7493 145.519C32.8514 145.622 32.9728 145.703 33.1066 145.759C33.2405 145.815 33.384 145.843 33.529 145.843H47.6892C45.456 148.863 44.503 149.969 42.9344 151.961C42.3987 152.704 41.6606 153.278 40.808 153.614C39.9554 153.95 39.0242 154.034 38.1253 153.856" fill="white"/>
<path d="M26.7942 67.6874C26.3661 69.3076 25.8974 70.6214 25.5717 71.7624C22.9819 76.0536 17.6363 79.6164 16.7934 84.6695C16.7731 84.7894 16.7538 84.9083 16.734 85.0266C15.837 89.5622 15.5689 94.1997 15.9373 98.8084C16.2482 104.142 18.0671 118.354 18.8792 123.07L18.9683 123.392C21.8232 133.775 29.9171 132.305 37.8458 129.587C46.3187 126.683 53.8563 122.189 61.7625 118.088C59.9006 114.096 57.2416 108.585 55.4859 106.189C54.4912 106.561 53.354 107.056 52.1799 107.584C52.2107 105.222 52.0621 102.98 52.0621 101.431C51.7612 99.4774 51.3903 95.595 50.269 93.8515C48.92 91.5717 43.4885 84.664 41.3274 81.8181C36.8967 75.9799 26.6748 67.2391 27.0385 67.6885" fill="white"/>
<path d="M48.7511 72.099C47.8956 71.1379 46.7919 69.992 46.0117 69.0952L46.1328 69.97C46.8005 71.9484 47.2986 73.9801 47.6216 76.0431L47.4439 76.1944C48.0155 78.6618 49.8064 90.5396 49.9285 92.2511L50.2707 93.852C51.392 95.5955 51.7628 99.4779 52.0638 101.432C52.0638 102.981 52.2124 105.223 52.1821 107.585C52.5573 107.415 52.9292 107.25 53.294 107.09L53.2863 106.32C53.2786 105.537 53.4222 102.179 53.3804 101.397C53.2506 98.9965 53.0618 96.5984 52.861 94.203C52.4132 88.8699 51.9163 83.5301 51.2055 78.2255C51.0729 77.2391 50.9376 76.2505 50.7488 75.2729C50.7118 74.8955 50.617 74.5261 50.4677 74.1775C50.3026 73.8848 50.0358 73.744 49.8625 73.4739C49.5245 72.9903 49.1531 72.5309 48.7511 72.099Z" fill="white"/>
<path d="M49.2782 87.3314C48.673 83.1788 47.8086 77.7676 47.4439 76.1925L47.6216 76.0412C47.2986 73.9782 46.8005 71.9465 46.1328 69.9681C45.6739 69.9576 45.1034 69.9576 44.6142 69.9373L44.4426 70.4175C42.32 69.7287 31.9033 66.0163 27.8555 64.751C27.773 65.3842 27.4858 67.0666 27.3906 67.9452C29.215 69.4405 37.4695 76.7289 41.3291 81.8145C43.373 84.5069 48.3418 90.8304 50.0132 93.4353L49.9285 92.247C49.8845 91.6292 49.6221 89.6827 49.2782 87.3314Z" fill="white"/>
<path d="M188.819 83.59C189.884 81.9071 190.745 78.9588 191.716 77.255C192.018 75.544 191.211 74.2121 190.612 73.1239C190.537 72.9188 190.388 72.7487 190.196 72.6461C190.003 72.5435 189.779 72.5156 189.567 72.5677C187.761 73.0227 184.99 72.7085 182.974 71.9317C181.743 71.4417 180.75 70.4933 180.203 69.286C179.31 67.5256 178.95 64.2648 178.898 62.8141C178.746 62.1642 178.437 61.5617 177.997 61.0591C177.297 60.2784 176.161 59.6611 176.77 58.3364C177.021 57.8446 177.427 57.4499 177.926 57.2141C180.402 55.93 180.567 52.2137 180.692 49.5362C180.64 48.0841 180.747 46.6307 181.012 45.2021C181.151 44.132 181.579 43.1202 182.252 42.2764C184.329 44.8375 186.684 47.1608 189.273 49.2039C190.698 50.2618 195.365 53.6529 197.98 54.4567L198.964 54.7593C199.356 54.2882 199.858 53.9213 200.426 53.6915C200.766 53.5538 201.134 53.4971 201.5 53.5257C201.866 53.5544 202.221 53.6676 202.536 53.8565C203.462 54.4617 203.7 55.7232 203.615 56.8273C203.491 58.1995 203.011 59.5156 202.224 60.6463C201.436 61.777 200.368 62.6833 199.125 63.2762C199.767 65.3585 200.44 67.4854 200.399 69.6387C200.404 71.3204 199.818 72.9505 198.742 74.2435C198.091 74.9785 200.935 76.0667 202.276 76.4022C203.872 76.7686 205.712 76.9585 207.03 76.1272C207.221 76.0062 207.4 75.8669 207.565 75.7113C207.749 77.606 200.846 82.0341 200.103 82.4181C197.374 83.8298 190.661 85.2305 188.733 84.1055" fill="white"/>
<path d="M174.373 113.88C174.373 110.968 169.072 109.736 164.893 109.736C160.46 109.736 154.634 111.417 154.634 114.203C154.634 117.496 159.573 118.219 164.513 118.219C168.312 118.221 174.373 117.173 174.373 113.88Z" fill="white"/>
<path d="M172.41 110.224C173.408 108.008 173.923 105.605 173.922 103.174L173.854 102.84C173.885 101.452 169.864 100.924 166.397 100.838C162.029 100.728 158.188 101.168 157.953 102.76C157.862 106.322 157.992 108.731 159.026 110.856C160.14 113.146 162.42 114.491 165.45 114.491C168.799 114.491 170.512 113.31 171.694 111.517C171.965 111.104 172.204 110.672 172.41 110.224Z" fill="white"/>
<path d="M166.495 113.338C166.25 112.753 166.224 112.1 166.424 111.498C166.567 110.969 166.785 110.464 167.073 109.998C166.515 109.809 166.054 109.409 165.787 108.884C165.347 108.068 165.937 106.729 166.859 106.244C167.648 105.828 168.701 106.398 169.563 106.527C169.696 106.547 169.838 106.571 169.984 106.597C168.765 102.463 174.764 104.075 176.167 104.902C177.36 105.605 180.291 108.594 180.527 109.548L180.857 110.878C179.975 113.507 179.35 116.216 178.991 118.965C176.62 119.293 174.142 120.024 173.321 119.896C172.014 119.691 170.608 119.679 169.394 119.188C168.411 118.773 167.559 118.102 166.924 117.245C166.484 116.398 166.353 114.862 166.99 114.045C166.772 113.851 166.602 113.609 166.495 113.338Z" fill="white"/>
<path d="M199.091 31.1906C202.455 31.2847 205.739 32.2408 208.628 33.9675C211.517 35.6942 213.914 38.1336 215.59 41.0521C217.242 43.9219 217.994 47.2223 217.746 50.5246C217.675 50.9702 217.621 51.3311 217.621 51.3311C217.414 52.6944 217.161 54.5924 216.942 56.5686C215.664 64.0314 216.306 68.3968 216.649 70.5166C216.931 72.0209 216.947 73.563 216.696 75.0729C216.262 77.7136 212.489 80.5073 206.903 77.6999L204.977 76.7333C204.066 76.7442 203.158 76.6317 202.277 76.3988C200.936 76.0632 198.092 74.975 198.743 74.24C199.818 72.947 200.405 71.317 200.399 69.6352C200.441 67.4819 199.768 65.355 199.125 63.2727C200.369 62.6798 201.437 61.7735 202.224 60.6428C203.012 59.5121 203.491 58.196 203.616 56.8238C203.7 55.7202 203.462 54.4582 202.536 53.853C202.221 53.6641 201.867 53.5509 201.501 53.5223C201.135 53.4936 200.767 53.5503 200.426 53.688C199.858 53.9178 199.356 54.2845 198.964 54.7553L197.98 54.4532C195.365 53.6495 190.699 50.2583 189.273 49.2004C186.609 47.0979 184.194 44.6984 182.074 42.0484L181.964 41.9065C182.23 41.1862 182.539 40.4827 182.891 39.8C183.85 37.91 185.189 36.2376 186.822 34.8869C188.456 33.5363 190.35 32.5361 192.387 31.9487C193.565 31.6512 194.766 31.4501 195.976 31.3474C196.99 31.2462 198.012 31.1752 199.037 31.1758L199.091 31.1906Z" fill="#EBEBEB"/>
<path d="M104.948 121.453C105.867 116.602 107.966 103.817 108.602 100.567C108.619 100.474 108.613 100.379 108.583 100.289C108.553 100.2 108.501 100.12 108.431 100.056C108.362 99.9928 108.277 99.9481 108.185 99.9264C108.094 99.9048 107.998 99.9069 107.907 99.9326C103.095 101.308 85.1504 108.821 81.8399 109.977C81.7435 110.007 81.6572 110.063 81.5899 110.139C81.5226 110.214 81.4769 110.307 81.4575 110.406C81.0636 112.548 80.5359 115.845 80.0012 119.256C75.0385 121.621 66.5436 125.682 63.3816 127.233C63.2838 127.282 63.2027 127.36 63.1486 127.455C63.0945 127.551 63.0697 127.66 63.0774 127.769C63.0851 127.879 63.1249 127.984 63.1918 128.071C63.2588 128.158 63.3499 128.223 63.4537 128.258C67.0673 129.856 77.675 134.1 78.7374 134.05C80.049 133.988 99.4569 124.968 104.486 122.641C104.561 122.609 104.627 122.56 104.679 122.498C104.731 122.436 104.767 122.362 104.785 122.283C104.836 122.041 104.889 121.763 104.948 121.453Z" fill="#EBEBEB"/>
<path d="M47.4438 76.1927C48.0154 78.6601 49.8063 90.5379 49.9284 92.2494L50.0632 94.1386C48.8445 92.5712 46.5376 89.2147 44.4909 86.2714C44.415 83.036 44.8177 79.7318 44.7709 76.8232C44.6862 76.7093 44.6108 76.6031 44.6108 76.6031C44.2433 76.0788 43.2585 75.1595 42.9465 74.6655L42.8057 74.4421C43.4428 73.0392 44.2774 71.0779 44.7863 69.9463C45.2303 69.9606 45.7261 69.9617 46.1332 69.971C46.4826 70.9696 46.8435 74.1995 47.4443 76.1954L47.4438 76.1927Z" fill="#DDEEF8"/>
<path d="M177.608 102.632C178.605 102.174 179.445 101.432 180.022 100.498C180.868 98.9792 181.606 97.4022 182.231 95.7793L181.648 98.5966C180.839 102.509 182.019 106.419 183.307 110.167C182.657 110.101 181.991 110.033 181.296 109.958L180.615 109.906L180.527 109.547C180.291 108.593 177.36 105.604 176.167 104.901L174.348 103.829L174.898 103.655C175.827 103.385 176.733 103.043 177.608 102.632Z" fill="#DDEEF8"/>
<path d="M213.927 131.815C211.197 131.815 201.156 132.032 198.348 132.032H192.914L183.561 121.541L183.268 110.06C181.996 106.345 180.847 102.473 181.648 98.6001C182.55 94.2352 185.519 87.2372 188.377 83.801C189.606 85.4459 197.164 83.9391 200.103 82.4184C200.78 82.0686 206.572 78.3605 207.456 76.2716L207.644 75.8276L207.774 76.2359C208.735 79.2617 211.786 82.7188 213.556 87.0144C213.816 87.9871 214.236 89.5369 214.236 89.5369C216.075 96.3263 213.812 103.851 212.83 110.65C212.61 112.165 212.409 113.951 212.039 115.704C212.069 116.403 212.145 117.098 212.264 117.787C212.747 120.58 214.864 128.995 214.56 131.776L213.927 131.815Z" fill="#FFE8E8"/>
<path d="M205.923 123.697C202.211 124.671 194.841 123.9 191.031 123.357C185.876 122.622 181.102 120.668 178.906 119.979C179.014 117.178 180.576 110.866 181.296 109.959C184.805 110.34 187.607 110.549 191.249 111.019C194.899 111.489 198.81 111.864 200.663 111.997L205.923 123.697Z" fill="#FFE8E8"/>
<path d="M49.869 19.6243C48.2566 18.9437 46.5683 18.459 44.8403 18.1807C41.8117 17.6851 38.7179 17.7472 35.7116 18.3639C33.1359 18.7865 30.7253 19.9071 28.7418 21.6037C27.7597 22.3943 26.8051 24.0112 26.1988 25.1247C26.0888 25.3255 26.0387 25.6413 25.9705 25.7618C25.2814 26.7543 24.4427 27.6342 23.4842 28.3701C21.5259 29.9887 20.1166 32.1738 19.4497 34.6253C18.7304 37.5238 18.585 40.535 19.0216 43.4893C19.3957 46.362 20.4431 49.1056 22.0785 51.4968C23.4198 53.5703 24.7684 55.0425 25.7147 56.7947C26.1226 57.4489 26.4919 58.1264 26.8206 58.8237C30.9584 57.8442 34.563 55.3151 36.8917 51.7575C35.9814 50.9034 35.2638 49.8649 34.7868 48.7114C34.3097 47.5578 34.0843 46.3158 34.1254 45.0683C34.1804 43.848 34.6145 42.4985 35.711 41.961C36.082 41.7977 36.4858 41.7227 36.8906 41.7418C37.2955 41.7609 37.6904 41.8736 38.0444 42.071C38.8019 42.5086 39.4141 43.159 39.805 43.9415C40.645 42.7341 41.6775 41.6727 42.8613 40.7996C43.5632 40.2668 44.3058 39.7898 45.0824 39.3731C48.1156 37.8195 51.6296 36.2834 54.692 34.4217C54.8051 34.3539 54.9318 34.3119 55.0631 34.2985C55.1943 34.2852 55.3269 34.3009 55.4514 34.3445C55.5759 34.3881 55.6893 34.4586 55.7835 34.551C55.8777 34.6433 55.9504 34.7553 55.9965 34.8789L56.0053 34.902C56.0549 35.0319 56.1333 35.1489 56.2345 35.2443C56.3357 35.3397 56.4572 35.4109 56.5899 35.4527C56.7225 35.4945 56.8629 35.5058 57.0005 35.4857C57.1382 35.4656 57.2694 35.4146 57.3846 35.3366C58.293 34.7216 59.5947 33.7313 60.2533 33.3104C60.2533 33.3104 60.2725 33.3022 60.3055 33.2846C59.9954 30.7955 59.1429 28.4048 57.8082 26.2811C56.4736 24.1573 54.6892 22.3522 52.5809 20.9931C51.9123 20.5834 51.217 20.2191 50.4995 19.9027C50.2875 19.8044 50.0774 19.7116 49.869 19.6243Z" fill="#EBEBEB"/>
<path d="M86.4789 98.0401H159.81C160.295 98.0401 160.22 98.0262 160.609 98.3966C161.646 99.385 162.686 100.371 163.729 101.354C164.782 102.348 166.515 100.886 165.467 99.8977C164.402 98.8911 163.338 97.8822 162.275 96.8708C162.026 96.6057 161.712 96.3888 161.354 96.235C160.996 96.0812 160.603 95.9941 160.201 95.9796C159.938 95.9698 159.671 95.9796 159.408 95.9796H96.1908C93.0057 95.9796 89.7998 95.8848 86.6141 95.9796C86.5692 95.9796 86.5237 95.9796 86.4789 95.9796C84.8971 95.9796 84.8946 98.0401 86.4789 98.0401Z" fill="#333333"/>
<path d="M70.007 99.0198C70.2539 98.6984 70.5195 98.3918 70.8025 98.1016C70.9225 97.9916 70.7415 98.0818 70.8636 98.0659C71.0182 98.0562 71.1733 98.0562 71.328 98.0659H80.2328C81.6484 98.0659 81.6511 95.8652 80.2328 95.8652H71.2768C71.1288 95.8652 70.9791 95.8586 70.8317 95.8652C69.7082 95.9159 69.1261 96.6762 68.4505 97.464C68.2509 97.6738 68.1396 97.9523 68.1396 98.2419C68.1396 98.5315 68.2509 98.81 68.4505 99.0198C68.658 99.224 68.9376 99.3384 69.2287 99.3384C69.5199 99.3384 69.7994 99.224 70.007 99.0198Z" fill="#333333"/>
<path d="M38.628 140.315H44.4049L56.1239 140.312L72.2857 140.307L91.5929 140.301L112.563 140.294L133.691 140.287L153.711 140.281L171.116 140.275L184.436 140.271C187.074 140.271 189.712 140.271 192.351 140.271H193.286C194.702 140.271 194.705 138.071 193.286 138.071H186.916L174.734 138.074L158.238 138.079L138.722 138.085L117.672 138.092L96.5952 138.099L76.7521 138.105L59.6523 138.11L46.7641 138.114H39.4109H38.6296C37.2134 138.114 37.2112 140.315 38.6296 140.315H38.628Z" fill="#333333"/>
<path d="M8.65603 99.4001C5.7769 100.844 2.31072 102.2 0.802102 105.28C-0.0281318 106.978 -0.0815 108.967 0.0615488 110.823C0.284925 113.729 0.675008 116.626 1.02878 119.519C2.12915 128.512 3.32251 137.495 4.52082 146.476C4.92099 149.473 5.32263 152.47 5.72573 155.467C5.73482 155.756 5.85368 156.031 6.0581 156.235C6.26252 156.439 6.53715 156.558 6.82611 156.567C7.35924 156.567 8.00571 156.06 7.92648 155.467C7.02014 148.689 6.11838 141.91 5.22121 135.131C4.20501 127.369 3.09859 119.601 2.34923 111.808C2.16221 110.429 2.15555 109.031 2.32942 107.651C2.92198 104.108 6.96035 102.708 9.76686 101.3C11.0323 100.666 9.91981 98.7664 8.65603 99.4001Z" fill="#333333"/>
<path d="M220.231 101.147C221.838 101.902 223.391 102.768 224.877 103.739C226.061 104.474 226.974 105.573 227.481 106.871C227.825 108.281 227.907 109.741 227.723 111.18C227.519 114.231 227.212 117.277 226.923 120.321C226.068 129.291 225.157 138.255 224.191 147.214C223.874 150.185 223.585 153.161 223.193 156.122C223.194 156.413 223.31 156.692 223.516 156.898C223.722 157.104 224.002 157.22 224.293 157.222C224.582 157.215 224.858 157.096 225.063 156.892C225.268 156.687 225.386 156.411 225.393 156.122C226.319 149.161 226.934 142.148 227.649 135.161C228.456 127.274 229.343 119.38 229.905 111.471C230.026 109.759 230.125 107.935 229.604 106.285C228.445 102.611 224.511 100.838 221.344 99.2431C220.082 98.6077 218.967 100.505 220.233 101.143L220.231 101.147Z" fill="#333333"/>
<path d="M165.889 109.028L165.885 109.032L166.108 108.86L166.663 108.709L167.441 109.031L167.724 109.517L167.764 109.809V109.806C167.756 109.517 167.638 109.241 167.433 109.036C167.228 108.832 166.953 108.713 166.663 108.706L166.371 108.745C166.187 108.796 166.02 108.893 165.885 109.028L165.713 109.251C165.615 109.419 165.563 109.611 165.563 109.806C165.561 109.906 165.574 110.006 165.603 110.102L165.713 110.365C165.764 110.444 165.821 110.519 165.885 110.588C165.917 110.622 165.954 110.651 165.995 110.674C166.101 110.771 166.229 110.839 166.369 110.871L166.662 110.911C166.809 110.917 166.956 110.884 167.086 110.815C167.131 110.801 167.175 110.782 167.218 110.76C167.301 110.713 167.378 110.653 167.445 110.584C167.55 110.488 167.628 110.366 167.672 110.231C167.753 110.029 167.775 109.809 167.734 109.596C167.694 109.383 167.594 109.186 167.445 109.029L167.225 108.856C167.056 108.758 166.865 108.706 166.67 108.706L166.377 108.746C166.193 108.796 166.026 108.894 165.891 109.029L165.889 109.028Z" fill="#333333"/>
<path d="M158.633 109.581C156.763 110.181 154.507 111.134 153.741 113.109C153.124 114.704 153.91 116.432 155.201 117.413C156.709 118.558 158.702 118.903 160.535 119.118C162.879 119.402 165.249 119.401 167.592 119.113C167.881 119.104 168.155 118.985 168.36 118.781C168.564 118.576 168.683 118.301 168.692 118.012C168.69 117.721 168.574 117.442 168.368 117.236C168.162 117.03 167.883 116.914 167.592 116.912C165.654 117.144 163.699 117.184 161.754 117.032C160.2 117 158.667 116.678 157.232 116.082C156.772 115.881 156.365 115.577 156.042 115.193C155.915 115.028 155.824 114.838 155.775 114.636C155.725 114.433 155.718 114.223 155.754 114.018C156.049 112.717 158.12 112.054 159.221 111.702C160.564 111.27 159.991 109.145 158.636 109.58L158.633 109.581Z" fill="#333333"/>
<path d="M166.766 113.321C164.263 113.597 161.544 113.043 160.193 110.711C158.835 108.367 158.993 105.365 159.053 102.759C159.085 101.342 156.884 101.342 156.852 102.759C156.781 105.85 156.706 109.376 158.453 112.083C160.254 114.876 163.582 115.875 166.766 115.522C167.056 115.514 167.331 115.395 167.535 115.191C167.74 114.986 167.858 114.711 167.867 114.422C167.865 114.131 167.748 113.852 167.542 113.646C167.336 113.44 167.058 113.323 166.766 113.321Z" fill="#333333"/>
<path d="M172.824 103.177C172.829 103.487 172.828 103.797 172.807 104.106C172.815 104.396 172.933 104.671 173.138 104.876C173.343 105.081 173.618 105.199 173.908 105.207L174.2 105.168C174.384 105.117 174.551 105.019 174.686 104.884L174.858 104.664C174.957 104.496 175.008 104.304 175.008 104.109C175.028 103.799 175.03 103.489 175.025 103.179C175.017 102.89 174.898 102.614 174.694 102.41C174.489 102.205 174.214 102.086 173.924 102.079L173.632 102.118C173.448 102.169 173.28 102.266 173.146 102.401L172.974 102.624C172.875 102.792 172.824 102.984 172.824 103.179V103.177Z" fill="#333333"/>
<path d="M170.018 103.661C167.99 103.899 165.94 103.903 163.911 103.674C163.001 103.583 162.097 103.436 161.205 103.233C160.557 103.106 159.927 102.899 159.329 102.619C159.219 102.558 159.115 102.487 159.008 102.42C159.189 102.534 158.992 102.319 159.038 102.443C159.07 102.538 159.09 102.635 159.098 102.734C159.167 103.122 159.054 102.819 159.114 102.873C159.122 102.88 159.184 102.826 159.11 102.893C159.69 102.505 160.356 102.263 161.05 102.188C163.489 101.83 165.964 101.78 168.416 102.042C169.571 102.104 170.717 102.289 171.834 102.592C172.169 102.684 172.489 102.823 172.785 103.003C172.822 103.03 172.79 103.085 172.772 102.963L172.779 102.784C172.807 102.587 172.801 102.55 172.759 102.674C172.617 102.771 172.482 102.878 172.355 102.995C171.15 103.735 172.255 105.639 173.466 104.895C174.573 104.214 175.473 102.891 174.539 101.688C173.869 100.824 172.658 100.494 171.636 100.275C168.601 99.6849 165.496 99.5324 162.418 99.8224C161.083 99.8667 159.766 100.15 158.531 100.66C157.638 101.082 156.727 101.999 156.964 103.078C157.332 104.761 159.88 105.223 161.268 105.495C164.146 106.081 167.099 106.206 170.016 105.865C170.305 105.856 170.58 105.737 170.784 105.533C170.988 105.328 171.107 105.053 171.116 104.764C171.114 104.473 170.998 104.194 170.792 103.988C170.586 103.782 170.307 103.666 170.016 103.664L170.018 103.661Z" fill="#333333"/>
<path d="M192.914 133.132C198.798 133.132 204.684 133.004 210.568 132.942C211.688 132.93 212.807 132.916 213.924 132.915C215.34 132.915 215.342 130.714 213.924 130.714C208.053 130.714 202.181 130.844 196.31 130.905C195.178 130.917 194.044 130.931 192.911 130.932C191.495 130.932 191.493 133.132 192.911 133.132H192.914Z" fill="#333333"/>
<path d="M189.662 73.6883C189.814 73.9634 189.968 74.233 190.111 74.5102C190.184 74.6527 190.254 74.7969 190.321 74.9426C190.338 74.9795 190.353 75.0175 190.371 75.0527C190.428 75.1781 190.282 74.8299 190.331 74.9603C190.364 75.0472 190.4 75.1336 190.431 75.2216C190.486 75.3811 190.538 75.5429 190.58 75.7068C190.601 75.7904 190.62 75.8746 190.635 75.9593C190.643 76.0022 190.65 76.0451 190.658 76.0881C190.686 76.2388 190.649 76.033 190.647 75.9918C190.654 76.1849 190.681 76.3769 190.679 76.5694C190.679 76.6641 190.673 76.7581 190.665 76.8522C190.661 76.9006 190.655 76.9485 190.651 76.9964C190.638 77.1416 190.695 76.7108 190.651 76.9611C190.582 77.2476 190.621 77.5496 190.761 77.8089C190.87 77.9958 191.032 78.1464 191.227 78.2417C191.421 78.337 191.639 78.3729 191.854 78.3448C192.069 78.3167 192.27 78.226 192.434 78.0839C192.597 77.9418 192.715 77.7547 192.772 77.546C192.946 76.5941 192.876 75.6139 192.57 74.6962C192.296 73.9609 191.957 73.2514 191.558 72.5759C191.411 72.3239 191.169 72.1408 190.887 72.0667C190.604 71.9927 190.304 72.0339 190.052 72.1812C189.8 72.3285 189.617 72.5698 189.543 72.8522C189.469 73.1345 189.51 73.4347 189.657 73.6867L189.662 73.6883Z" fill="#333333"/>
<path d="M190.766 76.7C190.198 77.7816 189.702 78.8989 189.28 80.0449C189.168 80.3225 189.054 80.6 188.94 80.8773C188.908 80.9543 188.855 81.0792 188.917 80.9323L188.84 81.1122C188.777 81.2591 188.712 81.406 188.646 81.5523C188.42 82.0629 188.162 82.558 187.871 83.0344C187.727 83.287 187.687 83.5863 187.761 83.8678C187.835 84.1492 188.016 84.3905 188.266 84.5396C188.519 84.681 188.818 84.7189 189.098 84.6454C189.379 84.5719 189.62 84.3926 189.771 84.1452C190.385 83.0819 190.905 81.9678 191.327 80.8151C191.44 80.5378 191.552 80.2602 191.664 79.9822C191.719 79.8457 191.774 79.7071 191.829 79.5729C191.829 79.5773 191.939 79.3066 191.884 79.4359C191.829 79.5652 191.93 79.3259 191.939 79.3039C192.153 78.7934 192.394 78.2948 192.662 77.8102C192.735 77.6854 192.783 77.5475 192.802 77.4043C192.822 77.2611 192.813 77.1155 192.776 76.9757C192.74 76.8359 192.676 76.7047 192.589 76.5896C192.501 76.4744 192.392 76.3776 192.267 76.3047C192.142 76.2318 192.005 76.1841 191.861 76.1645C191.718 76.1449 191.573 76.1536 191.433 76.1903C191.293 76.2269 191.162 76.2908 191.047 76.3781C190.931 76.4655 190.835 76.5747 190.762 76.6994L190.766 76.7Z" fill="#333333"/>
<path d="M207.812 79.0141C209.618 82.3244 211.956 85.3315 213.098 88.9719C213.521 90.3187 215.646 89.7421 215.22 88.3865C214.016 84.5476 211.616 81.3897 209.712 77.9023C209.033 76.6584 207.133 77.7681 207.812 79.013V79.0141Z" fill="#333333"/>
<path d="M188.178 85.0513C189.465 85.7566 191.111 85.6686 192.525 85.5277C194.393 85.3408 196.238 84.9642 198.03 84.4038C200.671 83.5785 202.839 82.0601 205.007 80.3695C206.232 79.4139 207.752 78.2822 208.408 76.8221C208.546 76.5681 208.583 76.2709 208.509 75.9911C208.436 75.7113 208.258 75.4701 208.013 75.3169C207.76 75.1718 207.461 75.1318 207.179 75.2056C206.898 75.2795 206.656 75.4611 206.508 75.7113C206.047 76.7357 204.967 77.5885 204.032 78.3521C202.959 79.2168 201.84 80.0232 200.681 80.7678C198.501 82.1877 195.93 82.8358 193.376 83.2226C192.533 83.3555 191.681 83.4186 190.828 83.4113C190.553 83.4063 190.108 83.3761 189.972 83.353C189.82 83.3266 189.673 83.2886 189.525 83.2495C189.285 83.1863 189.534 83.287 189.289 83.1527C188.047 82.4722 186.935 84.3719 188.179 85.0529L188.178 85.0513Z" fill="#333333"/>
<path d="M203.555 89.0646C203.945 88.1415 204.615 87.3641 205.47 86.8421C206.326 86.32 207.324 86.0797 208.323 86.1549C210.63 86.2891 212.1 88.2455 213.055 90.1402C213.694 91.4055 215.593 90.292 214.955 89.0294C213.617 86.3821 211.44 84.1359 208.321 83.9543C206.936 83.8745 205.56 84.2134 204.37 84.9267C203.181 85.64 202.234 86.6949 201.652 87.9539C201.513 88.2076 201.476 88.5052 201.549 88.7853C201.623 89.0654 201.801 89.3066 202.047 89.4591C202.3 89.6039 202.599 89.6437 202.881 89.5699C203.162 89.4961 203.403 89.3147 203.552 89.0646H203.555Z" fill="#333333"/>
<path d="M213.175 89.8249C214.676 95.5167 213.318 101.45 212.306 107.103C211.915 109.289 211.646 111.488 211.296 113.679C211.071 115.521 210.588 117.323 209.861 119.03C208.99 120.863 207.656 122.201 205.631 122.636C204.247 122.934 204.833 125.057 206.216 124.758C210.614 123.813 212.416 119.547 213.192 115.549C213.611 113.388 213.827 111.193 214.195 109.023C214.721 105.92 215.361 102.837 215.738 99.7105C216.255 96.2238 216.106 92.6706 215.298 89.2395C214.938 87.8713 212.813 88.4517 213.175 89.8249Z" fill="#333333"/>
<path d="M200.053 91.5974C198.522 98.1523 197.998 104.902 198.499 111.615C198.598 113.019 200.799 113.03 200.7 111.615C200.201 105.1 200.698 98.547 202.175 92.1822C202.501 90.8068 200.379 90.2176 200.053 91.5974Z" fill="#333333"/>
<path d="M212.863 131.944C213.551 136.045 213.983 140.186 214.157 144.341C214.285 146.34 214.229 148.346 213.99 150.335C213.878 151.308 213.554 152.246 213.042 153.081C212.529 153.916 211.839 154.629 211.022 155.169C209.85 155.951 210.95 157.858 212.133 157.069C213.735 156.052 214.967 154.545 215.645 152.773C216.133 151.243 216.377 149.646 216.369 148.041C216.455 144.247 216.241 140.452 215.729 136.692C215.518 134.909 215.275 133.129 214.985 131.356C214.906 131.075 214.719 130.837 214.466 130.693C214.213 130.549 213.913 130.51 213.631 130.585C213.353 130.668 213.118 130.855 212.975 131.108C212.831 131.36 212.79 131.657 212.861 131.939L212.863 131.944Z" fill="#333333"/>
<path d="M210.954 115.991C211.149 118.786 211.932 121.541 212.487 124.279C212.777 125.71 213.053 127.14 213.265 128.586C213.457 129.636 213.523 130.705 213.46 131.771C213.462 132.062 213.578 132.341 213.784 132.547C213.99 132.753 214.269 132.869 214.56 132.871C214.85 132.865 215.126 132.747 215.331 132.542C215.536 132.337 215.654 132.061 215.66 131.771C215.719 130.641 215.645 129.509 215.44 128.396C215.239 126.938 214.968 125.49 214.678 124.047C214.146 121.39 213.342 118.701 213.153 115.991C213.055 114.586 210.853 114.575 210.952 115.991H210.954Z" fill="#333333"/>
<path d="M187.732 82.8622C185.492 85.5068 183.95 88.7169 182.644 91.9028C181.223 95.3655 179.987 99.0592 180.364 102.851C180.688 105.413 181.306 107.93 182.207 110.351C182.662 111.684 184.789 111.111 184.33 109.766C183.44 107.159 182.569 104.471 182.489 101.694C182.511 99.5413 182.914 97.4091 183.68 95.3969C184.362 93.3605 185.188 91.375 186.15 89.4552C186.993 87.6579 188.046 85.9667 189.286 84.4169C190.196 83.3425 188.647 81.7762 187.73 82.8611L187.732 82.8622Z" fill="#333333"/>
<path d="M181.587 109.256C181.297 108.236 180.413 107.351 179.713 106.596C178.886 105.666 177.961 104.829 176.952 104.101C176.201 103.633 175.373 103.3 174.506 103.117C173.391 102.798 172.22 102.72 171.073 102.889C170.438 102.982 169.857 103.294 169.428 103.77C168.999 104.247 168.75 104.858 168.724 105.499C168.726 105.79 168.843 106.068 169.049 106.274C169.255 106.48 169.533 106.596 169.824 106.599C170.114 106.594 170.391 106.476 170.596 106.271C170.802 106.066 170.919 105.789 170.925 105.499C170.936 105.364 170.933 105.366 170.919 105.503C170.93 105.444 170.945 105.386 170.963 105.329C171.005 105.211 171 105.221 170.948 105.358C170.972 105.31 171 105.264 171.031 105.219C170.807 105.354 171.059 105.207 171.125 105.151C170.905 105.337 171.184 105.138 171.245 105.107C170.996 105.236 171.323 105.088 171.389 105.07C171.508 105.038 171.629 105.013 171.751 104.996C171.483 105.034 171.899 104.996 171.947 104.993C172.084 104.988 172.223 104.989 172.359 104.993C172.495 104.996 172.642 105.008 172.783 105.022C172.854 105.029 172.926 105.037 172.997 105.045C172.883 105.031 172.893 105.033 173.026 105.053C173.31 105.099 173.591 105.157 173.87 105.225C174.134 105.29 174.395 105.365 174.653 105.449C174.77 105.487 174.888 105.527 175.004 105.57C175.059 105.591 175.416 105.738 175.131 105.614C175.296 105.683 175.457 105.762 175.612 105.851C175.703 105.906 175.789 105.965 175.877 106.024C175.927 106.059 175.976 106.096 176.025 106.134C175.932 106.061 175.937 106.065 176.04 106.147C176.552 106.564 177.04 107.008 177.504 107.478C177.997 107.964 178.465 108.475 178.906 109.009C178.955 109.068 179.002 109.128 179.05 109.189C178.991 109.112 179 109.123 179.075 109.224C179.151 109.328 179.226 109.433 179.295 109.541C179.35 109.63 179.398 109.737 179.46 109.821C179.583 109.986 179.391 109.583 179.465 109.842C179.85 111.202 181.975 110.624 181.587 109.257V109.256Z" fill="#333333"/>
<path d="M173.144 106.079C172.11 105.914 171.09 105.669 170.057 105.498C169.023 105.327 168.018 104.849 166.948 105.055C166.44 105.198 165.974 105.464 165.591 105.828C165.208 106.192 164.92 106.645 164.752 107.146C164.557 107.635 164.504 108.169 164.599 108.687C164.693 109.205 164.931 109.686 165.286 110.075C165.977 110.788 166.904 111.226 167.893 111.309C168.175 111.38 168.473 111.339 168.725 111.195C168.977 111.052 169.164 110.817 169.247 110.538C169.321 110.257 169.282 109.958 169.138 109.705C168.994 109.452 168.757 109.266 168.477 109.185C168.097 109.127 167.722 109.041 167.354 108.93C167.104 108.847 167.532 109.04 167.302 108.903C167.259 108.878 166.953 108.67 167.15 108.829C167.075 108.769 167.011 108.698 166.94 108.632C166.788 108.491 166.958 108.703 166.854 108.522C166.812 108.458 166.773 108.391 166.736 108.324C166.789 108.467 166.796 108.481 166.756 108.366C166.744 108.328 166.734 108.288 166.727 108.249C166.711 108.166 166.715 108.196 166.74 108.338C166.744 108.309 166.76 107.978 166.737 108.144C166.713 108.31 166.783 107.975 166.792 107.943C166.819 107.855 166.902 107.699 166.816 107.864C166.875 107.754 166.938 107.647 167.003 107.539C167.113 107.353 166.893 107.628 167.062 107.467C167.085 107.445 167.324 107.216 167.222 107.302C167.12 107.388 167.378 107.206 167.412 107.189C167.234 107.278 167.485 107.179 167.531 107.172C167.294 107.21 167.646 107.194 167.699 107.198C167.778 107.205 167.769 107.203 167.673 107.193C167.745 107.206 167.817 107.221 167.889 107.237C168.369 107.344 168.831 107.512 169.319 107.591C170.404 107.766 171.473 108.022 172.558 108.196C172.84 108.266 173.137 108.225 173.389 108.082C173.641 107.938 173.828 107.703 173.912 107.426C173.986 107.144 173.947 106.845 173.803 106.592C173.659 106.339 173.421 106.152 173.141 106.072L173.144 106.079Z" fill="#333333"/>
<path d="M178.701 117.9C177.361 118.093 176.044 118.395 174.715 118.652C173.737 118.797 172.741 118.78 171.768 118.602C170.518 118.525 169.327 118.046 168.372 117.236C167.997 116.92 167.748 116.48 167.669 115.996C167.589 115.512 167.685 115.015 167.939 114.596C168.06 114.385 168.109 114.141 168.078 113.9C168.047 113.659 167.937 113.435 167.767 113.262C167.615 113.108 167.503 112.92 167.44 112.713C167.378 112.507 167.365 112.288 167.405 112.076C167.506 111.581 167.686 111.105 167.939 110.668C168.672 109.451 166.769 108.344 166.038 109.557C165.085 111.139 164.743 113.429 166.21 114.818L166.038 113.485C165.644 114.155 165.436 114.918 165.436 115.695C165.436 116.473 165.644 117.236 166.038 117.905C167.025 119.277 168.495 120.224 170.151 120.557C171.586 120.93 173.076 121.047 174.553 120.903C176.141 120.663 177.697 120.249 179.289 120.022C179.569 119.943 179.808 119.757 179.952 119.504C180.096 119.25 180.134 118.95 180.059 118.668C179.975 118.391 179.788 118.156 179.536 118.013C179.284 117.869 178.987 117.828 178.705 117.898L178.701 117.9Z" fill="#333333"/>
<path d="M205.631 122.636C204.121 122.968 202.576 123.111 201.03 123.063C199.183 123.063 197.337 122.948 195.499 122.779C191.686 122.464 187.917 121.741 184.258 120.623C182.56 120.09 180.897 119.456 179.201 118.917L180.009 119.978C180.143 118.144 180.453 116.326 180.934 114.551C181.15 113.661 181.384 112.775 181.665 111.903C181.77 111.576 181.879 111.247 182.011 110.931C181.934 111.117 182.053 110.84 182.085 110.782C182.134 110.689 182.189 110.599 182.25 110.513L181.3 111.058C184.702 111.425 188.111 111.718 191.507 112.151C194.55 112.536 197.606 112.874 200.666 113.096C202.079 113.199 202.072 110.998 200.666 110.895C195.874 110.547 191.121 109.843 186.343 109.366C185.121 109.244 183.899 109.128 182.677 109.002C182.096 108.943 181.274 108.697 180.744 109.008C180.48 109.191 180.274 109.446 180.15 109.743C179.527 111.151 179.065 112.626 178.775 114.138C178.271 116.051 177.949 118.006 177.812 119.978C177.815 120.219 177.895 120.451 178.04 120.643C178.186 120.834 178.389 120.973 178.62 121.04C182.272 122.195 185.818 123.563 189.611 124.235C193.22 124.873 196.876 125.215 200.541 125.259C202.449 125.337 204.358 125.168 206.222 124.757C207.594 124.409 207.013 122.286 205.637 122.635L205.631 122.636Z" fill="#333333"/>
<path d="M182.506 92.5568C181.331 94.8125 180.576 97.2672 179.334 99.4888C178.929 100.279 178.314 100.943 177.557 101.407C176.622 101.914 175.631 102.312 174.605 102.593C173.26 103.02 173.835 105.145 175.19 104.715C177.438 104.003 179.677 103.154 180.972 101.053C182.399 98.7356 183.154 96.0723 184.406 93.6654C185.059 92.4105 183.161 91.2964 182.506 92.5546V92.5568Z" fill="#333333"/>
<path d="M199.51 55.8212C200.041 55.1417 201.133 54.1707 201.967 54.7896C202.668 55.3079 202.601 56.5925 202.425 57.4452C202.193 58.5498 201.697 59.5816 200.978 60.4518C200.259 61.322 199.34 62.0047 198.299 62.4411C198.048 62.5896 197.866 62.831 197.792 63.1127C197.718 63.3945 197.759 63.694 197.904 63.9463C198.057 64.1926 198.298 64.3709 198.578 64.4444C198.858 64.5179 199.156 64.481 199.409 64.3413C200.875 63.6842 202.139 62.6477 203.071 61.3387C204.002 60.0298 204.567 58.4959 204.707 56.8956C204.841 55.3409 204.348 53.4962 202.837 52.764C201.051 51.9008 199.095 52.8036 197.954 54.2653C197.756 54.4759 197.645 54.7541 197.645 55.0432C197.645 55.3324 197.756 55.6106 197.954 55.8212C198.161 56.0258 198.44 56.1406 198.732 56.1406C199.023 56.1406 199.302 56.0258 199.51 55.8212Z" fill="#333333"/>
<path d="M179.141 65.7541C180.6 65.9676 182.248 65.8922 183.426 64.8997C183.632 64.693 183.748 64.4135 183.749 64.1218C183.747 63.8302 183.631 63.551 183.426 63.3433C183.22 63.1378 182.94 63.0222 182.649 63.0215C182.36 63.0346 182.084 63.1485 181.871 63.3433C181.852 63.3587 181.834 63.3736 181.816 63.3879L182.036 63.2157C181.88 63.3304 181.71 63.4257 181.532 63.4996L181.794 63.3895C181.468 63.5219 181.127 63.6114 180.778 63.6558L181.071 63.6168C180.563 63.6786 180.049 63.676 179.541 63.6091L179.834 63.6487L179.724 63.6327C179.437 63.5647 179.136 63.6038 178.876 63.7427C178.751 63.8156 178.642 63.9124 178.555 64.0275C178.467 64.1426 178.403 64.2738 178.367 64.4135C178.33 64.5533 178.321 64.6989 178.341 64.8421C178.36 64.9853 178.408 65.1232 178.481 65.248C178.551 65.3725 178.646 65.4815 178.759 65.5684C178.873 65.6553 179.003 65.7188 179.141 65.7541Z" fill="#333333"/>
<path d="M183.115 53.63C182.829 54.393 182.84 56.1975 184.233 56.4512C186.087 56.5733 186.349 54.4123 185.802 53.3477C185.354 52.4763 183.878 52.0186 183.115 53.63Z" fill="#333333"/>
<path d="M179.951 44.9097C179.445 47.6435 179.811 50.4476 179.231 53.162C179.094 54.1992 178.626 55.1642 177.895 55.9128C177.455 56.2891 176.899 56.4948 176.472 56.903C175.918 57.4227 175.574 58.1274 175.504 58.8836C175.409 60.2441 176.44 60.9153 177.218 61.833C177.982 62.7358 177.854 63.9472 178 65.0552C178.346 67.6871 178.965 70.5264 181.216 72.2072C182.471 73.0289 183.905 73.5367 185.397 73.6876C186.243 73.8261 187.099 73.8874 187.955 73.8708C188.352 73.8564 188.748 73.8197 189.14 73.7608C189.264 73.7432 189.387 73.7256 189.509 73.7019C189.632 73.6783 189.743 73.6546 189.859 73.626C189.651 73.5127 189.584 73.5251 189.659 73.6634C190.307 74.9232 192.206 73.8114 191.559 72.5527C191.399 72.2309 191.155 71.9582 190.854 71.7632C190.552 71.5682 190.203 71.4582 189.844 71.4446C189.219 71.4342 188.588 71.6499 187.955 71.6697C186.599 71.705 185.247 71.5142 183.954 71.1052C183.382 70.9476 182.849 70.6747 182.387 70.3034C181.926 69.932 181.545 69.47 181.268 68.9459C180.751 67.8735 180.417 66.7226 180.278 65.5404C180.102 64.4885 180.182 63.3261 179.898 62.3061C179.703 61.6277 179.37 60.9968 178.921 60.4526C178.595 60.0543 178.15 59.7517 177.841 59.3435C177.575 58.9925 177.754 58.6954 178.076 58.4154C178.539 58.0144 179.121 57.7992 179.57 57.3575C180.366 56.5175 180.928 55.4844 181.202 54.3602C182.012 51.4566 181.529 48.4258 182.073 45.4918C182.329 44.1076 180.209 43.514 179.951 44.9064V44.9097Z" fill="#333333"/>
<path d="M215.772 56.9325C215.074 60.8583 214.918 64.8613 215.308 68.8295C215.501 70.4668 215.854 72.0754 215.748 73.7358C215.653 75.2525 215.247 76.3589 213.87 77.1467C211.869 78.2883 209.403 77.7073 207.456 76.7522C206.19 76.1311 205.072 78.0286 206.345 78.6525C208.541 79.7291 211.07 80.3827 213.486 79.6779C214.335 79.4498 215.124 79.0419 215.802 78.4819C216.479 77.9219 217.027 77.2228 217.411 76.432C218.317 74.391 217.971 71.9379 217.642 69.8088C217.543 69.1706 217.512 68.9439 217.441 68.2271C217.359 67.403 217.309 66.5768 217.29 65.7487C217.242 62.9927 217.443 60.238 217.891 57.5184C217.96 57.2371 217.918 56.9402 217.775 56.6885C217.632 56.4369 217.398 56.2494 217.121 56.1645C216.84 56.0893 216.54 56.128 216.287 56.2721C216.033 56.4162 215.847 56.6543 215.768 56.9347L215.772 56.9325Z" fill="#333333"/>
<path d="M199.037 30.076C196.339 30.0131 193.649 30.3946 191.075 31.2055C188.919 31.9747 186.95 33.1915 185.298 34.776C181.823 38.0923 179.956 42.8478 179.585 47.5846C179.475 48.9963 181.676 48.9891 181.786 47.5846C182.112 43.4232 183.81 39.2371 186.855 36.3318C188.28 34.955 189.989 33.9061 191.861 33.2587C194.187 32.5563 196.608 32.2251 199.037 32.2772C200.453 32.2695 200.456 30.0683 199.037 30.076Z" fill="#333333"/>
<path d="M199.091 32.2912C208.096 32.492 216.782 39.979 216.705 49.3267C216.646 50.4929 216.514 51.6542 216.308 52.8036C216.094 54.3826 215.903 55.9641 215.736 57.5481C215.738 57.8394 215.855 58.1183 216.061 58.3242C216.267 58.5302 216.545 58.6467 216.837 58.6484C217.127 58.6421 217.403 58.5242 217.608 58.3192C217.813 58.1142 217.931 57.838 217.937 57.5481C218.086 56.1218 218.255 54.6971 218.445 53.274C218.657 52.0866 218.808 50.8892 218.898 49.6865C218.952 46.8743 218.333 44.0901 217.093 41.5657C214.976 37.2478 211.4 33.8179 206.998 31.883C204.507 30.7678 201.819 30.1573 199.091 30.0868C197.674 30.0554 197.675 32.256 199.091 32.2874V32.2912Z" fill="#333333"/>
<path d="M198.116 63.7365C198.772 65.859 199.52 68.1074 199.253 70.3603C199.149 71.2752 198.841 72.1553 198.353 72.9356C197.884 73.6739 197.24 74.2532 197.735 75.1862C198.364 76.3718 200.171 76.9071 201.352 77.2768C203.096 77.8269 205.203 78.1114 206.937 77.3912C209.086 76.4978 210.148 74.1277 209.999 71.893C209.906 70.4868 207.705 70.4764 207.799 71.893C207.931 73.8906 206.868 75.5763 204.758 75.6071C203.066 75.6128 201.403 75.1648 199.943 74.3098C199.81 74.2295 199.748 74.1404 199.68 74.1294C199.588 74.0315 199.586 74.0359 199.672 74.1426C199.726 74.2544 199.752 74.3777 199.748 74.5017C199.743 74.6258 199.708 74.7469 199.647 74.8545C199.787 74.8781 200.345 73.8994 200.414 73.7778C200.979 72.7537 201.328 71.6253 201.442 70.4615C201.717 67.9738 200.964 65.4986 200.238 63.1495C199.821 61.8005 197.696 62.376 198.116 63.7343V63.7365Z" fill="#333333"/>
<path d="M181.296 42.8313C183.601 45.7688 186.296 48.3785 189.306 50.5884C191.866 52.4545 194.636 54.5462 197.687 55.5194C199.04 55.9507 199.619 53.8271 198.272 53.3975C196.808 52.8536 195.418 52.1265 194.137 51.2337C192.867 50.4299 191.631 49.5728 190.417 48.6882C187.571 46.5704 185.026 44.0762 182.852 41.2738C182.644 41.069 182.365 40.9541 182.074 40.9541C181.782 40.9541 181.503 41.069 181.296 41.2738C181.096 41.4835 180.984 41.7622 180.984 42.052C180.984 42.3417 181.096 42.6204 181.296 42.8302V42.8313Z" fill="#333333"/>
<path d="M78.8535 133.687C79.7547 128.158 80.5778 122.616 81.4576 117.083C81.6652 115.778 81.8764 114.474 82.0914 113.17C82.1765 112.66 82.263 112.149 82.3511 111.64C82.3877 111.433 82.4244 111.227 82.4611 111.021C82.4688 110.979 82.5343 110.774 82.5117 110.746C82.5392 110.785 81.9973 110.994 82.2817 110.988C82.5728 110.924 82.8534 110.82 83.1153 110.678C83.4718 110.542 83.8274 110.405 84.1821 110.265C85.1302 109.895 86.0764 109.519 87.0205 109.14C92.0013 107.149 96.9684 105.124 101.979 103.206C103.865 102.485 105.756 101.753 107.684 101.151C107.754 101.129 108.101 101.074 108.132 101.016C108.172 100.943 107.506 100.394 107.523 100.379C107.495 100.405 107.51 100.489 107.495 100.523C107.469 100.613 107.451 100.705 107.443 100.798C107.367 101.202 107.294 101.606 107.223 102.011C107.023 103.13 106.828 104.251 106.636 105.372C105.74 110.569 104.901 115.778 103.927 120.962C103.878 121.362 103.792 121.756 103.67 122.14L103.953 121.655C103.741 121.811 103.505 121.93 103.253 122.007L102.256 122.468L100.024 123.501C98.1712 124.358 96.3168 125.211 94.4612 126.061C90.5775 127.84 86.6909 129.616 82.7703 131.311C81.5599 131.835 80.5437 132.293 79.2139 132.768C79.0598 132.823 78.9041 132.872 78.7484 132.923C78.6962 132.94 78.6334 132.946 78.5834 132.967C78.3683 133.061 78.8673 132.949 78.7088 132.951C78.4838 132.951 79.0004 133.037 78.7292 132.955C78.6224 132.923 78.5091 132.907 78.3991 132.879C78.0552 132.793 77.7163 132.687 77.3785 132.579C75.1689 131.873 73.0012 131.023 70.845 130.17C69.6126 129.682 68.3849 129.183 67.162 128.673C66.6485 128.458 66.135 128.24 65.6215 128.019C65.3677 127.909 65.1142 127.799 64.8611 127.689C64.598 127.521 64.3111 127.393 64.01 127.31L63.9374 128.185L64.2312 128.041L64.6873 127.821C65.0079 127.666 65.329 127.511 65.6507 127.356C66.3476 127.021 67.0445 126.688 67.7414 126.357C69.2452 125.642 70.7527 124.931 72.2639 124.224C74.9048 122.986 77.5457 121.759 80.1817 120.517C81.4625 119.912 80.3467 118.016 79.0714 118.617C76.3078 119.918 73.5371 121.202 70.7718 122.503C69.268 123.208 67.7672 123.916 66.2696 124.629C65.5837 124.955 64.8982 125.284 64.213 125.614C63.5412 125.938 62.6175 126.211 62.2076 126.876C61.9937 127.252 61.932 127.695 62.0351 128.114C62.1383 128.534 62.3985 128.898 62.7622 129.132C63.323 129.443 63.9081 129.708 64.5118 129.924C65.9478 130.545 67.3913 131.147 68.8423 131.731C71.3908 132.759 73.9546 133.779 76.568 134.633C77.25 134.917 77.9718 135.093 78.7077 135.156C79.103 135.127 79.4906 135.032 79.8543 134.875C81.4361 134.303 82.9788 133.609 84.5199 132.938C89.1134 130.937 93.6684 128.844 98.2196 126.75C100.087 125.89 101.954 125.028 103.82 124.164C104.744 123.737 105.64 123.459 105.896 122.344C106.094 121.485 106.226 120.604 106.38 119.737C107.311 114.538 108.166 109.326 109.076 104.123C109.23 103.239 109.385 102.356 109.55 101.475C109.703 100.986 109.731 100.466 109.63 99.9632C109.48 99.5411 109.17 99.1949 108.767 98.9993C108.364 98.8038 107.901 98.7745 107.476 98.9179C105.712 99.4313 103.978 100.043 102.282 100.749C97.4075 102.593 92.5796 104.558 87.7429 106.497C85.9823 107.203 84.2272 107.915 82.4556 108.588C81.5285 108.94 80.6004 109.182 80.3649 110.301C80.1575 111.286 80.0199 112.292 79.8565 113.285C78.9393 118.865 78.0987 124.459 77.2211 130.046C77.0605 131.067 76.8978 132.088 76.7331 133.109C76.6643 133.391 76.7057 133.687 76.849 133.939C76.9922 134.191 77.2264 134.378 77.5034 134.463C77.7849 134.538 78.0847 134.499 78.3379 134.355C78.5911 134.211 78.7775 133.973 78.8568 133.692L78.8535 133.687Z" fill="#333333"/>
<path d="M92.6148 118.422C93.1798 118.587 93.7848 118.55 94.3248 118.315C94.8648 118.081 95.3057 117.665 95.571 117.14C96.0359 116.257 95.8092 114.917 95.0109 114.509C94.3951 114.274 93.7154 114.269 93.0963 114.495C92.4773 114.721 91.9604 115.162 91.6404 115.738C91.4727 116.071 91.3922 116.441 91.4065 116.813C91.4209 117.186 91.5296 117.549 91.7224 117.867C91.9621 118.132 92.2713 118.324 92.6148 118.422Z" fill="#333333"/>
<path d="M17.952 149.599C18.1545 151.762 18.396 153.934 18.7674 156.076C18.8457 156.357 19.0319 156.595 19.2855 156.739C19.539 156.884 19.8393 156.922 20.1209 156.846C20.3982 156.762 20.6328 156.575 20.7762 156.323C20.9195 156.071 20.9607 155.774 20.8911 155.492C20.8394 155.195 20.7932 154.896 20.7486 154.597C20.7178 154.388 20.6876 154.179 20.6578 153.97C20.6402 153.845 20.6232 153.72 20.6061 153.595C20.5891 153.471 20.5984 153.536 20.61 153.623C20.6001 153.547 20.5896 153.47 20.5797 153.394C20.4147 152.132 20.2729 150.867 20.1544 149.6C20.1483 149.31 20.0303 149.034 19.8253 148.829C19.6203 148.624 19.344 148.506 19.0541 148.5C18.7632 148.503 18.4851 148.62 18.2794 148.826C18.0738 149.031 17.9568 149.309 17.9537 149.6L17.952 149.599Z" fill="#333333"/>
<path d="M40.6677 43.2244C39.6576 41.5409 37.7897 40.1716 35.7386 40.774C33.8735 41.3242 33.1131 43.2942 33.0251 45.0685C32.975 46.835 33.4002 48.5825 34.2562 50.1286C35.1123 51.6746 36.3677 52.9625 37.8915 53.8577C39.1179 54.5729 40.227 52.6699 39.0023 51.9575C37.9497 51.3416 37.0593 50.4834 36.4049 49.4544C35.7505 48.4253 35.351 47.255 35.2396 46.0406C35.1686 45.0976 35.173 43.7091 36.006 43.0621C37.0514 42.2506 38.2706 43.5072 38.7674 44.3351C39.4947 45.5488 41.3984 44.4452 40.6677 43.2244Z" fill="#333333"/>
<path d="M57.0159 44.3517C57.2267 45.2264 56.967 47.2009 55.4094 47.2906C53.361 47.1729 53.3671 44.7698 54.1109 43.6777C54.72 42.7837 56.3986 42.485 57.0159 44.3517Z" fill="#333333"/>
<path d="M45.44 64.122C44.6519 65.5792 44.0321 67.1213 43.5925 68.7185C43.5178 69.0001 43.5566 69.2996 43.7007 69.5528C43.8448 69.8059 44.0825 69.9924 44.3627 70.0719C44.6441 70.1433 44.9422 70.1029 45.1946 69.9593C45.4469 69.8157 45.6338 69.5801 45.7162 69.3017C45.9533 68.5315 46.2113 67.7613 46.5024 67.0109C46.5391 66.9155 46.5758 66.8207 46.6124 66.7264C46.6366 66.6659 46.7813 66.3485 46.6449 66.6428C46.7164 66.4888 46.7797 66.3314 46.8512 66.1774C46.9998 65.855 47.1604 65.5381 47.3392 65.2311C47.4744 64.98 47.5068 64.6862 47.4295 64.4117C47.3523 64.1372 47.1715 63.9034 46.9252 63.7595C46.6789 63.6157 46.3864 63.5731 46.1094 63.6408C45.8323 63.7084 45.5923 63.8809 45.44 64.122Z" fill="#333333"/>
<path d="M47.3487 65.2118C47.2832 65.3114 47.2502 65.1453 47.309 65.263C47.3437 65.3329 47.7492 65.4132 47.8224 65.4352C48.1342 65.5261 48.4509 65.5996 48.7709 65.6553C49.5691 65.7964 50.3774 65.8722 51.1879 65.8819C52.6786 65.9504 54.1694 65.7504 55.5894 65.2916C58.5087 64.1946 59.8544 61.3635 60.6885 58.5567C60.8763 57.9262 61.0414 57.2897 61.1837 56.6471C61.2511 56.0637 61.3962 55.492 61.615 54.9471C62.2318 53.8045 63.549 53.3863 64.1899 52.2739C64.9767 50.9079 64.3 49.2481 63.1578 48.3255C62.67 47.9921 62.2527 47.5659 61.9298 47.0712C61.6441 46.5435 61.4476 45.9723 61.3482 45.3805C60.7023 42.0939 61.7647 38.7149 61.5644 35.4068C61.4792 33.9996 59.2779 33.9896 59.3637 35.4068C59.5463 38.42 58.792 41.3853 59.0204 44.3991C59.0703 45.7195 59.4151 47.012 60.0294 48.1819C60.3409 48.7255 60.7476 49.2086 61.2299 49.6085C61.6332 49.9385 62.404 50.3622 62.3303 51.0036C62.2934 51.3299 61.921 51.5681 61.6701 51.7617C61.062 52.1877 60.5201 52.701 60.0619 53.2851C59.2812 54.3546 59.1876 55.604 58.8724 56.849C58.2699 59.2328 57.3544 62.4963 54.6755 63.2814C53.1145 63.6972 51.488 63.8082 49.885 63.6082C49.1819 63.4919 48.4875 63.3283 47.8064 63.1185C47.3596 63.0054 46.8882 63.0401 46.4628 63.2176C46.0375 63.3951 45.6811 63.7056 45.4472 64.1027C44.667 65.2894 46.5718 66.393 47.3476 65.2135L47.3487 65.2118Z" fill="#333333"/>
<path d="M58.6501 54.3898L56.0284 54.178C55.7458 54.1087 55.4512 54.1043 55.1666 54.1652C54.8821 54.2261 54.615 54.3507 54.3856 54.5296C54.027 54.9549 53.826 55.4907 53.8161 56.0469C53.6996 57.6021 54.1971 59.141 55.202 60.3336C55.3559 60.4875 55.552 60.5922 55.7654 60.6347C55.9788 60.6771 56.2 60.6553 56.4011 60.5721C56.6021 60.4888 56.774 60.3478 56.8949 60.1669C57.0158 59.986 57.0803 59.7733 57.0804 59.5557C57.065 59.267 56.9512 58.9923 56.758 58.7773C56.6342 58.6249 56.923 59.0144 56.7816 58.8064C56.7448 58.7514 56.7052 58.6964 56.6716 58.6414C56.6061 58.5402 56.5445 58.4362 56.4873 58.3305C56.4305 58.1933 56.3649 58.0599 56.2909 57.9311C56.3547 58.0841 56.3701 58.1215 56.3382 58.0412C56.3255 58.0109 56.3134 57.9801 56.3019 57.9493C56.2777 57.8871 56.2546 57.8244 56.2331 57.7617C56.1405 57.4839 56.067 57.2001 56.013 56.9123C55.9943 56.7931 55.9976 56.8239 56.0229 57.0047C56.0174 56.9601 56.0125 56.9156 56.0081 56.8704C56.002 56.8039 55.9971 56.7373 55.9943 56.6702C55.9875 56.527 55.989 56.3835 55.9987 56.2405C55.9987 56.2075 56.0037 56.1751 56.007 56.1426C56.0207 56.0227 56.0158 56.0557 55.9932 56.2416C56.0113 56.1796 56.0237 56.1161 56.0301 56.0518C56.0449 55.9891 56.0631 55.928 56.0801 55.8664C56.1168 55.7564 56.1034 55.7863 56.04 55.9561C55.996 56.0429 55.9312 56.1175 55.8514 56.1732C55.7717 56.229 55.6794 56.2642 55.5828 56.2757C55.2279 56.3786 55.4727 56.3308 55.607 56.3429L55.8606 56.3632L56.4108 56.4078L58.6523 56.5888C58.9437 56.5876 59.223 56.4713 59.4291 56.2652C59.6352 56.0591 59.7515 55.7799 59.7526 55.4885C59.7457 55.1989 59.6275 54.923 59.4226 54.7182C59.2178 54.5133 58.9419 54.3952 58.6523 54.3882L58.6501 54.3898Z" fill="#333333"/>
<path d="M35.5481 51.7812C33.4886 54.6036 30.5399 56.6517 27.1759 57.5963C25.8153 57.9814 26.3936 60.1039 27.7613 59.7182C31.669 58.6027 35.0836 56.1965 37.4485 52.892C37.5936 52.6395 37.6336 52.3402 37.5597 52.0585C37.4859 51.7769 37.3043 51.5356 37.054 51.3867C36.8006 51.2456 36.5024 51.2078 36.2218 51.2813C35.9412 51.3548 35.6998 51.5339 35.5481 51.7812Z" fill="#333333"/>
<path d="M27.9903 67.1321C27.987 67.128 27.984 67.1236 27.9815 67.1189L28.1317 67.674L27.3234 68.7347H26.7391C26.7567 68.7413 26.3865 68.5774 26.5229 68.6522C26.6594 68.727 26.4244 68.5763 26.4002 68.5559C26.5004 68.6395 26.6038 68.721 26.7045 68.8029C27.0126 69.0576 27.3157 69.3184 27.6178 69.5803C28.6158 70.444 29.6001 71.323 30.5706 72.2172C33.1774 74.6065 35.732 77.0678 38.1082 79.6904C40.1934 81.9928 42.0261 84.5147 43.9138 86.9788C45.7745 89.4083 47.8009 91.824 49.3568 94.468C50.3218 96.1086 50.5122 98.2437 50.7713 100.094C51.0321 102.364 51.1369 104.649 51.0849 106.934C51.0882 108.35 53.289 108.353 53.2857 106.934C53.3396 104.707 53.2437 102.479 52.9985 100.265C52.8217 98.3649 52.4406 96.4889 51.8618 94.6699C51.3286 93.4145 50.6291 92.2363 49.7821 91.1671C48.7307 89.7004 47.6408 88.2618 46.547 86.827C44.524 84.1731 42.5598 81.4311 40.3623 78.918C37.8999 76.1573 35.292 73.5299 32.5497 71.047C31.4036 69.9891 30.2444 68.9443 29.0631 67.9254C28.4029 67.3577 27.6816 66.4791 26.7397 66.6128C26.5074 66.6769 26.3026 66.8154 26.1567 67.0071C26.0108 67.1988 25.9319 67.4331 25.932 67.674C25.9344 67.875 25.9892 68.0718 26.091 68.2451C26.2445 68.4902 26.4858 68.6676 26.7656 68.741C27.0455 68.8144 27.3428 68.7783 27.5969 68.6401C27.8474 68.4915 28.0292 68.2501 28.103 67.9684C28.1769 67.6867 28.1368 67.3872 27.9914 67.1349L27.9903 67.1321Z" fill="#333333"/>
<path d="M46.3808 76.485C46.8287 78.443 47.1076 80.4461 47.4223 82.4305C47.824 84.9612 48.2085 87.4919 48.5574 90.0292C48.6091 90.4077 48.6597 90.7812 48.7224 91.3006C48.7615 91.6164 48.8005 91.9321 48.8248 92.2496C48.9304 93.653 51.1322 93.6646 51.0255 92.2496C50.8819 90.3433 50.5424 88.4387 50.264 86.5495C49.8789 83.9445 49.4784 81.3418 49.0355 78.7461C48.8704 77.7955 48.7169 76.8404 48.5018 75.9002C48.186 74.5204 46.0639 75.1042 46.3797 76.485H46.3808Z" fill="#333333"/>
<path d="M44.6142 71.0377C45.1204 71.057 45.6266 71.0581 46.1328 71.0685L45.072 70.2609C45.3614 71.0938 45.6029 71.9455 45.8274 72.7982C45.9727 73.3516 46.108 73.9084 46.229 74.4679C46.2918 74.7584 46.3501 75.05 46.404 75.3426C46.4315 75.4934 46.4574 75.6445 46.4816 75.796C46.4926 75.862 46.5025 75.928 46.5124 75.994C46.5195 76.0413 46.552 76.2741 46.5212 76.0413L47.3289 74.9806C46.9267 75.0731 46.5239 75.1633 46.1185 75.2436C45.9351 75.2803 45.7517 75.3148 45.5683 75.347C45.4652 75.3654 45.362 75.3826 45.2585 75.3988C45.2299 75.4032 44.9581 75.4411 45.1127 75.4213C45.2673 75.4015 44.9823 75.4351 44.9823 75.4351C44.9108 75.4428 44.8393 75.4494 44.7672 75.4554C44.6374 75.4653 44.507 75.4725 44.3766 75.4736C44.2665 75.4736 44.1565 75.4593 44.0465 75.4593C43.9139 75.4593 44.3078 75.5302 44.1433 75.4686C44.0982 75.4521 44.0481 75.4444 44.0019 75.429C43.7203 75.3536 43.4204 75.3921 43.167 75.5363C42.9137 75.6805 42.7274 75.9186 42.6484 76.1992C42.5778 76.4807 42.6184 76.7785 42.7619 77.0307C42.9054 77.2829 43.1406 77.4701 43.4187 77.5532C44.0058 77.7038 44.6189 77.7235 45.2145 77.6109C46.1229 77.4877 47.0245 77.3188 47.9159 77.1048C48.1483 77.0408 48.3532 76.9023 48.4992 76.7106C48.6452 76.5189 48.7242 76.2845 48.7241 76.0435C48.4289 73.8758 47.9163 71.7433 47.1941 69.6783C47.1244 69.4492 46.9844 69.2479 46.7939 69.103C46.6034 68.958 46.3721 68.8767 46.1328 68.8707C45.6266 68.8602 45.1204 68.8591 44.6142 68.8398C44.3231 68.8421 44.0446 68.9588 43.8387 69.1647C43.6328 69.3705 43.5162 69.649 43.5139 69.9401C43.5198 70.2301 43.6376 70.5066 43.8427 70.7116C44.0478 70.9167 44.3243 71.0345 44.6142 71.0405V71.0377Z" fill="#333333"/>
<path d="M43.6662 76.6004C43.7295 79.547 43.3873 82.487 43.3812 85.4303C43.3779 86.8464 45.5787 86.8486 45.582 85.4303C45.588 82.4848 45.9302 79.547 45.867 76.6004C45.8367 75.1865 43.636 75.1815 43.6662 76.6004Z" fill="#333333"/>
<path d="M28.4667 68.2073C28.5531 67.1466 28.7743 66.0996 28.9162 65.0455L27.5627 65.8158C33.1395 67.5625 38.5951 69.6707 44.1498 71.4823L43.3795 70.1284C43.1243 71.4265 42.9342 72.7366 42.8101 74.0537C42.7397 74.6319 42.6687 75.209 42.5708 75.7845C42.5262 76.048 42.4783 76.3126 42.4118 76.5717C42.3854 76.6752 42.3567 76.777 42.3248 76.8793C42.2555 77.1059 42.4068 76.7302 42.3089 76.9156L43.8142 76.5211C40.7161 75.0451 37.8293 73.1735 34.7669 71.6308C33.5053 70.9954 32.3895 72.8929 33.6561 73.5311C36.7184 75.0715 39.6053 76.9453 42.7034 78.4213C42.9567 78.5633 43.2552 78.6014 43.536 78.5278C43.8169 78.4541 44.0582 78.2743 44.2092 78.0263C44.7484 77.0058 44.8023 75.7157 44.9443 74.5934C45.1093 73.3 45.2144 71.9879 45.5022 70.7137C45.5724 70.4323 45.5316 70.1347 45.3882 69.8826C45.2447 69.6305 45.0097 69.4433 44.7319 69.3598C39.175 67.5504 33.721 65.4422 28.1443 63.6933C27.8627 63.6169 27.5623 63.6551 27.3088 63.7994C27.0552 63.9437 26.869 64.1824 26.7908 64.4635C26.6225 65.7118 26.365 66.9529 26.2627 68.21C26.1477 69.6211 28.349 69.614 28.4634 68.21L28.4667 68.2073Z" fill="#333333"/>
<path d="M23.4787 83.3424C25.5771 83.2158 27.6568 83.8021 29.3802 85.0059C31.1036 86.2098 32.3696 87.9607 32.9727 89.9745C33.3578 91.3356 35.4794 90.7574 35.0953 89.3891C34.3621 86.9124 32.8187 84.7534 30.7124 83.258C28.6061 81.7626 26.0589 81.0174 23.4787 81.1418C23.189 81.1486 22.9131 81.2668 22.7082 81.4717C22.5033 81.6765 22.3851 81.9524 22.3783 82.2421C22.3806 82.5332 22.4973 82.8117 22.7031 83.0176C22.909 83.2234 23.1875 83.3401 23.4787 83.3424Z" fill="#333333"/>
<path d="M25.7345 68.5355C25.1514 70.3203 24.7515 72.1598 24.5411 74.0255C24.4841 74.2595 24.5023 74.5055 24.593 74.7286C24.6838 74.9517 24.8425 75.1405 25.0467 75.2683C27.0527 76.3515 29.1627 77.2395 31.2122 78.2342L30.7065 76.9919C30.5624 77.5971 30.4683 78.2149 30.3841 78.8327C30.2873 79.5397 29.9649 80.5712 30.4144 81.1907C30.697 81.5302 31.0164 81.8374 31.3668 82.1067C32.4792 83.0749 33.6368 83.992 34.7933 84.9064C37.9609 87.4103 41.1718 89.8592 44.426 92.2531C45.8219 93.2835 47.2215 94.3118 48.6553 95.2888C49.8289 96.0887 50.9309 94.1825 49.7662 93.3892C44.5025 89.8022 39.4127 85.8713 34.4764 81.8492C33.6248 81.2012 32.8162 80.4987 32.0556 79.746L32.378 80.5239C32.4663 79.5331 32.6164 78.5488 32.8275 77.5767C32.8888 77.3428 32.8727 77.0954 32.7816 76.8714C32.6904 76.6475 32.5291 76.4591 32.3219 76.3345C30.2719 75.3393 28.1625 74.4513 26.1565 73.3681L26.6621 74.6109C26.8725 72.7451 27.2723 70.9056 27.8555 69.1209C28.3352 67.7857 26.2093 67.2108 25.7334 68.5355H25.7345Z" fill="#333333"/>
<path d="M45.2337 69.8714C45.9792 70.7236 46.7621 71.5422 47.5252 72.379C48.1563 73.0711 48.6949 73.8474 49.3249 74.5323C49.5863 74.9164 49.7299 75.3684 49.7381 75.8329C49.8822 76.6355 49.9989 77.4415 50.1078 78.2497C50.3129 79.7703 50.5003 81.2935 50.6701 82.8192C51.3529 88.8583 51.9135 94.9297 52.2574 100.998C52.3581 102.77 52.1782 104.547 52.1859 106.32C52.1919 107.736 54.3927 107.739 54.3866 106.32C54.38 104.729 54.5258 103.137 54.4857 101.546C54.4108 98.5563 54.0796 95.5547 53.8227 92.5762C53.5504 89.4112 53.2549 86.2494 52.9011 83.0899C52.7196 81.467 52.5211 79.8457 52.3058 78.226C52.1254 76.8787 52.0709 75.3377 51.6065 74.052C51.3472 73.5274 51.0097 73.0451 50.6057 72.6216C50.2553 72.1469 49.869 71.699 49.4762 71.2589C48.591 70.2686 47.665 69.3141 46.7896 68.3139C45.8543 67.2467 44.3039 68.8091 45.2337 69.8703V69.8714Z" fill="#333333"/>
<path d="M60.4283 90.4801C62.1755 89.386 63.5798 87.8228 64.481 85.9688C64.7242 85.4187 64.9761 84.6925 65.1643 84.3101C65.3556 83.8274 65.6823 83.4101 66.1051 83.1086C66.6474 82.7745 67.2231 82.498 67.8228 82.2834C68.4627 82.0039 69.1048 81.7332 69.7562 81.4785C70.616 81.1361 71.4959 80.8464 72.391 80.6109C72.7524 80.5127 73.12 80.4392 73.4914 80.3908C73.7804 80.3569 74.0721 80.3534 74.3618 80.3804C74.6431 80.4496 74.9403 80.4084 75.1921 80.2651C75.4439 80.1218 75.6311 79.8874 75.7153 79.6102C75.7903 79.3287 75.7515 79.0289 75.6074 78.7757C75.4633 78.5225 75.2254 78.3361 74.945 78.2568C73.5751 78.0928 72.1859 78.2606 70.8945 78.7459C69.5284 79.1936 68.1876 79.7151 66.8781 80.3083L66.2729 80.5718C66.0721 80.6599 66.2603 80.5784 66.2405 80.5867C66.0402 80.672 65.8366 80.7517 65.6391 80.8447C65.0602 81.1099 64.5373 81.4834 64.0986 81.945C63.3371 82.7735 63.0191 83.8084 62.5894 84.8223C61.8735 86.3581 60.7371 87.6598 59.312 88.5765C58.1511 89.3726 59.2503 91.2805 60.4228 90.4768L60.4283 90.4801Z" fill="#333333"/>
<path d="M81.923 81.8479C81.9687 81.8265 82.0144 81.8056 82.0606 81.7852L82.1442 81.7489C82.2845 81.6878 81.8191 81.8826 82.0199 81.8039C82.18 81.7396 82.3406 81.6768 82.5035 81.6191C82.8958 81.4749 83.3012 81.3692 83.7139 81.3033L83.4217 81.3429C83.6258 81.3116 83.8331 81.3065 84.0385 81.3275L83.7458 81.2879C83.8344 81.3011 83.9142 81.3297 84 81.3511C83.71 81.2785 83.7486 81.2593 83.8707 81.3093C83.6873 81.1626 83.636 81.123 83.7166 81.1905C83.7309 81.2034 83.7445 81.217 83.7574 81.2312C83.6055 81.1212 83.5736 80.9908 83.6682 81.13C83.7354 81.2279 83.5582 80.8329 83.6385 81.0684C83.6755 81.179 83.7022 81.2928 83.7183 81.4084L83.6792 81.1157C83.6979 81.2649 83.6979 81.4159 83.6792 81.5652L83.7188 81.2725C83.7051 81.3655 83.6847 81.4574 83.6578 81.5476C83.644 81.5927 83.6253 81.6361 83.611 81.6812C83.5829 81.7704 83.7508 81.377 83.649 81.5866C83.606 81.6736 83.5583 81.7581 83.5059 81.8397C83.4828 81.8764 83.4592 81.9116 83.4349 81.9453C83.3249 82.1038 83.4603 81.8936 83.5043 81.86C83.4317 81.932 83.3647 82.0094 83.304 82.0917C83.2332 82.1676 83.1599 82.2409 83.0839 82.3117C83.0069 82.3832 82.9271 82.4526 82.8463 82.5197C82.8116 82.5483 82.7753 82.5747 82.7406 82.6049C83.0273 82.3651 82.8727 82.5037 82.8011 82.5565C82.2378 82.9662 81.63 83.3109 80.9894 83.5842C80.7415 83.729 80.5601 83.965 80.4838 84.2417C80.4073 84.5279 80.4468 84.8327 80.5938 85.09C80.7395 85.337 80.9751 85.5182 81.2513 85.5956C81.5381 85.657 81.8374 85.6182 82.0991 85.4856C82.6491 85.2486 83.1759 84.9611 83.6726 84.6268C84.4106 84.1693 85.0321 83.5467 85.4882 82.808C85.7409 82.3793 85.8783 81.8926 85.8871 81.3951C85.8959 80.8977 85.7757 80.4064 85.5383 79.9692C84.9771 79.0339 83.8157 79.0372 82.876 79.2264C82.1624 79.3855 81.4704 79.6289 80.8144 79.9516C80.5634 80.0997 80.3811 80.341 80.3071 80.6229C80.2331 80.9048 80.2735 81.2045 80.4194 81.4568C80.5719 81.7029 80.8131 81.8812 81.0932 81.9547C81.3733 82.0282 81.6709 81.9913 81.9247 81.8518L81.923 81.8479Z" fill="#333333"/>
<path d="M79.1533 82.0784C79.197 81.5734 79.2829 81.0731 79.4102 80.5825C79.4685 80.3575 79.2418 80.8378 79.4427 80.5313C79.483 80.4602 79.5259 80.3909 79.5714 80.3234C79.5087 80.3938 79.5177 80.3824 79.5984 80.2893C79.6424 80.242 79.8564 80.0775 79.6484 80.2155C79.8421 80.0868 79.7585 80.2089 79.6627 80.1825C79.708 80.1671 79.7544 80.155 79.8014 80.1462C79.6237 80.166 79.5951 80.1743 79.7156 80.1721C79.3948 80.1534 79.616 80.177 79.6924 80.1853C79.5399 80.1152 79.5175 80.1075 79.6253 80.1622C79.6577 80.1799 79.6891 80.1994 79.7194 80.2205C79.7854 80.2656 79.7621 80.2473 79.6495 80.1655C79.6903 80.2001 79.7288 80.2365 79.7662 80.2755C79.8421 80.352 79.9158 80.456 79.8107 80.3091C79.8802 80.4049 79.9438 80.5048 80.0011 80.6084C80.0451 80.6887 80.0869 80.7734 80.1232 80.8559C80.0242 80.626 80.1436 80.9434 80.1579 80.9924C80.1898 81.1024 80.2129 81.2124 80.2371 81.3192C80.301 81.5942 80.2487 81.1283 80.2465 81.4083C80.2465 81.7461 80.2773 82.085 80.2746 82.4233C80.2703 83.0413 80.2279 83.6585 80.1475 84.2713C80.0693 84.8512 79.9213 85.4585 79.8036 86.0488C79.7618 86.2601 79.8377 86.0488 79.7486 86.2139C79.7152 86.2762 79.6785 86.3366 79.6385 86.3949C79.7101 86.3076 79.7047 86.3104 79.6226 86.4031C79.5397 86.4765 79.53 86.4897 79.5934 86.4428C79.6572 86.3982 79.6457 86.4064 79.5571 86.467C79.5068 86.499 79.4546 86.5281 79.4008 86.5539C79.5301 86.5022 79.5362 86.4989 79.4201 86.5363C79.1418 86.6188 78.9062 86.8057 78.7626 87.058C78.619 87.3102 78.5786 87.6083 78.6498 87.8897C78.7298 88.1696 78.9163 88.4071 79.1693 88.5511C79.4224 88.6951 79.7218 88.7341 80.0033 88.6599C80.5994 88.4753 81.1178 88.0989 81.4778 87.5893C81.8113 87.0547 82.0246 86.454 82.1028 85.8288C82.3794 84.4959 82.5007 83.1355 82.4643 81.7747C82.4781 80.6642 82.0812 79.5878 81.3496 78.7521C81.0032 78.3532 80.5245 78.0925 80.0014 78.018C79.4783 77.9435 78.9459 78.0602 78.5018 78.3467C77.2551 79.2269 77.0906 80.6804 76.9514 82.0839C76.9536 82.375 77.0702 82.6536 77.2761 82.8595C77.482 83.0654 77.7606 83.182 78.0518 83.1842C78.3417 83.178 78.618 83.0601 78.823 82.8551C79.0281 82.65 79.146 82.3738 79.1522 82.0839L79.1533 82.0784Z" fill="#333333"/>
<path d="M74.6809 90.804C75.0086 91.1511 75.4478 91.3721 75.9219 91.4282C76.396 91.4843 76.8748 91.372 77.2744 91.111C77.9565 90.6338 78.4846 89.9681 78.7941 89.1953C79.0824 88.4193 79.2583 87.606 79.3162 86.7802C79.4428 85.9204 79.4894 85.0507 79.4554 84.1823C79.4858 83.2692 79.1688 82.3784 78.5685 81.6896C78.2668 81.4048 77.8937 81.207 77.4887 81.1171C77.0837 81.0272 76.662 81.0486 76.2681 81.1791C74.3931 81.8293 74.1076 83.9711 73.9139 85.6799C73.7998 86.5816 73.7793 87.4927 73.8528 88.3987C73.8619 89.2684 74.1513 90.1119 74.6781 90.804C74.8853 91.0087 75.1648 91.1234 75.4561 91.1234C75.7473 91.1234 76.0268 91.0087 76.234 90.804C76.4345 90.5945 76.5464 90.3157 76.5464 90.0258C76.5464 89.7358 76.4345 89.4571 76.234 89.2476C76.1113 89.1101 76.3644 89.4957 76.2891 89.318C76.271 89.2776 76.2493 89.2389 76.2241 89.2025C76.1202 89.0457 76.3072 89.1964 76.2533 89.2812C76.2416 89.2301 76.2243 89.1804 76.2016 89.1332C76.1641 89.0129 76.1327 88.8908 76.1075 88.7673C76.0976 88.7189 76.0882 88.6705 76.0794 88.6215C76.0706 88.5726 76.0624 88.5203 76.0552 88.4697C76.0739 88.6164 76.0783 88.6477 76.0684 88.5638C76.0238 87.9117 76.0118 87.2579 76.0327 86.6047C76.0514 86.2793 76.0796 85.9551 76.1174 85.632C76.1174 85.632 76.1565 85.3195 76.1339 85.4906C76.1113 85.6617 76.1543 85.3531 76.1543 85.3531C76.1823 85.1699 76.2131 84.9872 76.2483 84.8029C76.3034 84.5179 76.3584 84.2313 76.4437 83.9529C76.4541 83.9183 76.5664 83.619 76.4624 83.8605C76.4855 83.8055 76.5119 83.7532 76.5394 83.701C76.579 83.6261 76.6247 83.5568 76.6681 83.4848C76.7963 83.2718 76.5185 83.6239 76.6896 83.4605C76.738 83.405 76.7908 83.3535 76.8475 83.3065C76.8629 83.3175 76.6104 83.4506 76.7925 83.3516C76.8211 83.3362 76.9339 83.2416 76.9658 83.2509C76.9977 83.2603 76.7138 83.3186 76.8811 83.2878C76.8965 83.2878 77.0533 83.2273 77.061 83.2405C77.0863 83.2834 76.7512 83.2405 76.9779 83.2581C77.0265 83.2669 77.0762 83.2688 77.1253 83.2636C76.9306 83.2339 76.8906 83.2313 77.0054 83.2559L77.0604 83.2718C77.2728 83.3357 76.8024 83.1866 77.0131 83.2548C77.0379 83.2625 77.2189 83.3819 77.05 83.2707C76.8954 83.1684 77.05 83.2746 77.0758 83.3093C77.2106 83.4743 77.0049 83.1327 77.0434 83.2663C77.0472 83.2812 77.1341 83.4138 77.1286 83.416C77.1127 83.4215 77.0461 83.1706 77.1253 83.4292C77.1742 83.5993 77.2109 83.7727 77.2354 83.948C77.2288 83.9045 77.2145 83.7213 77.231 83.937C77.2381 84.0343 77.2475 84.1317 77.2524 84.2297C77.2618 84.3985 77.2651 84.5674 77.2645 84.7363C77.2645 85.1215 77.2409 85.5005 77.2095 85.8807C77.1809 86.2108 77.1413 86.5408 77.0995 86.8709C77.0626 87.1719 77.1226 86.7152 77.0995 86.8957C77.089 86.9672 77.0797 87.0387 77.0698 87.1103C77.0483 87.2632 77.0291 87.4172 77.0048 87.5702C76.9838 87.7078 76.9533 87.8439 76.9135 87.9773C76.8948 88.0389 76.8723 88.0983 76.853 88.1594C76.7694 88.429 76.9273 88.0285 76.8277 88.2309C76.754 88.3806 76.6808 88.5297 76.5944 88.671C76.5658 88.7189 76.5361 88.7662 76.5058 88.8124C76.469 88.8674 76.2406 89.1315 76.4349 88.9192C76.3298 89.0336 76.2225 89.1392 76.1113 89.2492C76.1378 89.2234 76.3166 89.1244 76.1625 89.2058C76.0937 89.2421 75.8082 89.3813 76.1295 89.2426C76.0904 89.2576 76.0498 89.2685 76.0085 89.2751C76.2005 89.2553 76.2368 89.2476 76.1185 89.252C76.299 89.2839 76.3457 89.2911 76.2588 89.2723C76.1719 89.2536 76.0679 89.1821 76.31 89.3043C76.2131 89.2437 76.228 89.2603 76.3534 89.3538C76.3121 89.3194 76.2728 89.2827 76.2357 89.2437C76.0293 89.0374 75.7494 88.9216 75.4575 88.9216C75.1657 88.9217 74.8858 89.0376 74.6795 89.244C74.4732 89.4504 74.3573 89.7303 74.3573 90.0221C74.3574 90.314 74.4734 90.5938 74.6798 90.8001L74.6809 90.804Z" fill="#333333"/>
<path d="M67.6313 89.9147C67.8244 89.8047 68.0164 89.6947 68.2178 89.594C68.2893 89.5577 68.3619 89.5219 68.4379 89.4873C68.4929 89.4609 68.812 89.2936 68.5353 89.4383C68.8667 89.2833 69.217 89.1723 69.5773 89.1082C69.662 89.0906 69.7468 89.0763 69.8315 89.0609C69.9529 89.0433 69.9283 89.0466 69.7578 89.0708C69.8067 89.0653 69.8557 89.0609 69.9047 89.0571C70.0774 89.0428 70.2508 89.0384 70.424 89.0439C70.5258 89.0472 70.626 89.0571 70.7272 89.0637C70.9544 89.0791 70.4978 89.018 70.7432 89.0637C70.9572 89.1049 71.1679 89.1489 71.3781 89.2089C71.5174 89.2473 71.6629 89.2579 71.8064 89.24C71.9498 89.2222 72.0883 89.1763 72.214 89.1049C72.3397 89.0335 72.4501 88.9381 72.5389 88.8241C72.6277 88.7101 72.6931 88.5797 72.7315 88.4403C72.7699 88.301 72.7805 88.1555 72.7627 88.0121C72.7448 87.8687 72.6989 87.7302 72.6275 87.6045C72.5562 87.4788 72.4607 87.3684 72.3467 87.2796C72.2327 87.1908 72.1023 87.1254 71.9629 87.087C71.0199 86.8169 70.026 86.7762 69.064 86.9681C68.1652 87.175 67.3064 87.5282 66.5221 88.0134C66.2701 88.1607 66.087 88.4021 66.0129 88.6844C65.9389 88.9668 65.98 89.2669 66.1274 89.5189C66.2747 89.7709 66.516 89.954 66.7984 90.0281C67.0807 90.1021 67.3809 90.0609 67.6329 89.9136L67.6313 89.9147Z" fill="#333333"/>
<path d="M73.1586 89.204L73.1514 89.1528L73.1905 89.445C73.1145 88.8355 73.1184 88.2187 73.202 87.6102L73.1624 87.9029C73.1909 87.5545 73.2625 87.211 73.3753 86.8802L73.2653 87.1426C73.2902 87.0884 73.3212 87.0373 73.3577 86.9902L73.1855 87.213C73.2307 87.1584 73.2819 87.109 73.3379 87.0656L73.1151 87.2372C73.1995 87.1755 73.2907 87.1236 73.3869 87.0826L73.1244 87.1927C73.2678 87.1349 73.4176 87.0947 73.5706 87.0727L73.2779 87.1123C73.4559 87.0885 73.6361 87.0872 73.8144 87.1085L73.5217 87.0689C73.6598 87.0868 73.795 87.1219 73.9244 87.1734L73.6614 87.0634C73.7447 87.0991 73.8234 87.1447 73.8958 87.1993L73.6757 87.0271C73.7219 87.0647 73.7641 87.1069 73.8017 87.153L73.6295 86.9302C73.6546 86.9639 73.677 86.9994 73.6966 87.0364C73.8456 87.2866 74.0869 87.4681 74.3685 87.5419C74.6501 87.6157 74.9495 87.5758 75.2019 87.4309C75.4491 87.2792 75.6281 87.038 75.7017 86.7576C75.7753 86.4771 75.7378 86.1791 75.597 85.9257C75.0869 84.9557 73.8023 84.7648 72.8328 84.98C72.372 85.0755 71.9523 85.312 71.6318 85.6566C71.4099 85.9135 71.2557 86.2218 71.1834 86.5534C71.1034 86.9114 71.0422 87.2733 71.0002 87.6377C70.916 88.3532 70.9292 89.0768 71.0392 89.7888C71.1149 90.0665 71.2964 90.3035 71.5449 90.449C71.802 90.5958 72.1066 90.6354 72.3927 90.559C72.6699 90.4822 72.9065 90.301 73.0529 90.0534L73.1629 89.7905C73.2152 89.599 73.2152 89.3971 73.1629 89.2057L73.1586 89.204Z" fill="#333333"/>
<path d="M75.4758 89.6653C74.1862 91.4957 71.3979 91.7449 69.3038 91.9699C68.1301 92.0312 67.0195 92.5206 66.1821 93.3453C65.6387 94.0166 65.2053 94.7697 64.8979 95.5768C64.759 95.8307 64.7226 96.1282 64.796 96.4082C64.8695 96.6882 65.0473 96.9295 65.293 97.0825C65.5456 97.2273 65.8449 97.267 66.1265 97.1931C66.4081 97.1192 66.6493 96.9376 66.7983 96.6875C66.9633 96.3261 67.1141 95.9564 67.2935 95.6015C67.385 95.4228 67.4857 95.2489 67.595 95.0805C67.7661 94.8181 67.4607 95.2181 67.6681 94.9787C67.7364 94.9001 67.8079 94.8241 67.8833 94.7526C68.1513 94.5174 68.474 94.3531 68.8219 94.2745C69.4446 94.1529 70.0746 94.0728 70.7079 94.0347C73.2272 93.715 75.8434 92.952 77.3745 90.7788C77.5193 90.5263 77.559 90.227 77.4851 89.9454C77.4112 89.6638 77.2296 89.4225 76.9795 89.2736C76.7262 89.1323 76.4281 89.0945 76.1475 89.168C75.8669 89.2416 75.6257 89.4207 75.4742 89.6681L75.4758 89.6653Z" fill="#333333"/>
<path d="M72.2078 84.6826C72.5812 84.4992 72.9597 84.3268 73.3434 84.1654L73.0804 84.2754C73.7621 83.9495 74.4834 83.714 75.2261 83.5751L74.934 83.6147C75.0002 83.6062 75.0669 83.6018 75.1337 83.6015C75.4255 83.6015 75.7054 83.4856 75.9118 83.2792C76.1181 83.0729 76.2341 82.793 76.2341 82.5012C76.2341 82.2094 76.1181 81.9295 75.9118 81.7232C75.7054 81.5168 75.4255 81.4009 75.1337 81.4009C74.4674 81.4426 73.8137 81.6014 73.2025 81.8702C72.4873 82.1392 71.7836 82.4445 71.0975 82.7812C70.8469 82.9298 70.6649 83.1712 70.5911 83.4531C70.5172 83.735 70.5575 84.0346 70.703 84.287C70.8553 84.5335 71.0965 84.7119 71.3768 84.7854C71.657 84.8588 71.9548 84.8216 72.2083 84.6814L72.2078 84.6826Z" fill="#333333"/>
<path d="M55.7891 94.2366C55.8276 94.1816 55.8677 94.1293 55.9074 94.076C55.8463 94.1585 55.8237 94.1827 55.8991 94.0864C56.0301 93.9214 56.1626 93.7563 56.2952 93.5913C56.6116 93.1985 56.9313 92.8084 57.2504 92.4178C57.8396 91.6971 58.4349 90.9808 58.9967 90.2387L57.268 90.4587C58.8184 91.669 60.3369 92.9173 61.8301 94.1942C63.3708 95.4021 64.7943 96.7523 66.082 98.2269C66.2892 98.4317 66.5688 98.5466 66.8602 98.5466C67.1516 98.5466 67.4312 98.4317 67.6385 98.2269C67.8384 98.0172 67.9499 97.7386 67.9499 97.4489C67.9499 97.1593 67.8384 96.8807 67.6385 96.671C66.3506 95.1965 64.9269 93.8463 63.3861 92.6384C61.8929 91.3615 60.3743 90.1105 58.8245 88.9029C58.703 88.7889 58.5578 88.7032 58.3994 88.6519C58.2409 88.6007 58.073 88.5851 57.9078 88.6064C57.7426 88.6277 57.5841 88.6853 57.4438 88.7751C57.3035 88.8649 57.1849 88.9846 57.0963 89.1257C56.9357 89.3375 57.2542 88.9265 57.0545 89.1807L56.9208 89.3491C56.7767 89.5306 56.6312 89.7112 56.4845 89.891C56.1588 90.2931 55.8303 90.6936 55.503 91.0947C54.9566 91.7631 54.3921 92.4244 53.8887 93.1259C53.7438 93.3783 53.7039 93.6776 53.7777 93.9592C53.8515 94.2408 54.0331 94.4821 54.2832 94.6311C54.5366 94.7722 54.8348 94.81 55.1154 94.7365C55.396 94.663 55.6374 94.4839 55.7891 94.2366Z" fill="#333333"/>
<path d="M59.4143 106.714C59.5435 105.93 59.7745 105.166 60.1014 104.442C60.3973 103.914 60.8662 103.504 61.4291 103.281C63.0411 102.385 64.3544 100.953 65.747 99.7601C66.0881 99.468 66.4319 99.1819 66.7615 98.876C66.9399 98.6569 67.1783 98.4946 67.4476 98.4089C67.6484 98.3792 67.853 98.4253 68.0216 98.5383C68.1901 98.6513 68.3105 98.8231 68.3593 99.0201C68.4308 99.6005 67.6886 100.079 67.3574 100.46C66.8582 101.159 66.3011 101.814 65.6919 102.42C65.4874 102.627 65.3727 102.906 65.3727 103.197C65.3727 103.489 65.4874 103.768 65.6919 103.975C65.9013 104.176 66.18 104.288 66.4699 104.288C66.7598 104.288 67.0385 104.176 67.2479 103.975C67.8261 103.42 68.3472 102.807 68.8033 102.148C69.369 101.599 69.865 100.983 70.28 100.314C70.4565 99.922 70.5435 99.496 70.5348 99.0666C70.5261 98.6372 70.4218 98.2151 70.2295 97.8311C70.0373 97.447 69.7619 97.1106 69.4233 96.8462C69.0848 96.5819 68.6916 96.3963 68.2723 96.3029C66.3929 95.8777 65.1665 97.3526 63.8835 98.4689C63.1682 99.0911 62.47 99.7342 61.7482 100.345C61.1507 100.837 60.51 101.273 59.834 101.649C58.2203 102.597 57.6289 104.373 57.2922 106.128C57.2225 106.409 57.2636 106.706 57.407 106.958C57.5503 107.21 57.785 107.397 58.0624 107.481C58.344 107.556 58.6437 107.517 58.8969 107.373C59.15 107.229 59.3365 106.991 59.4159 106.711L59.4143 106.714Z" fill="#333333"/>
<path d="M66.6949 104.41C67.8607 104.15 69.0057 103.802 70.1704 103.542C70.6562 103.432 71.1349 103.298 71.6223 103.199C71.7549 103.172 71.8881 103.146 72.0223 103.127C72.1016 103.115 72.0977 103.115 72.0119 103.127C72.0856 103.119 72.1593 103.113 72.232 103.109C72.3563 103.103 72.479 103.105 72.6028 103.109C72.6859 103.116 72.671 103.112 72.5582 103.099C72.6205 103.11 72.6823 103.124 72.7431 103.141C72.8586 103.181 72.8586 103.181 72.7431 103.141L72.8317 103.192C72.9384 103.263 72.9417 103.264 72.8493 103.192C72.8978 103.233 72.9439 103.278 72.9874 103.325C73.1442 103.477 72.9604 103.223 73.0396 103.407C73.0712 103.461 73.1 103.516 73.126 103.572C73.0754 103.454 73.071 103.454 73.1128 103.572C73.12 103.612 73.1678 103.91 73.1453 103.649C73.1563 103.776 73.1453 103.9 73.1502 104.026C73.1414 103.806 73.1502 104.026 73.1293 104.104C73.1139 104.165 73.0957 104.225 73.0743 104.284C73.1326 104.155 73.1275 104.163 73.0589 104.307C73.0011 104.41 72.9455 104.512 72.8784 104.61C72.9736 104.471 72.7359 104.755 72.7068 104.786C72.5621 104.943 72.8168 104.741 72.6248 104.851C72.5147 104.913 72.4119 104.975 72.3007 105.031C72.4685 104.945 72.3156 105.024 72.227 105.055C72.1285 105.089 72.0289 105.118 71.9282 105.146C71.7192 105.205 71.5074 105.252 71.2966 105.303C71.1573 105.341 71.0269 105.407 70.9129 105.496C70.7989 105.585 70.7034 105.695 70.6321 105.821C70.5607 105.946 70.5149 106.085 70.497 106.228C70.4792 106.372 70.4899 106.517 70.5283 106.657C70.5667 106.796 70.6322 106.926 70.7211 107.04C70.8099 107.154 70.9203 107.25 71.046 107.321C71.1717 107.393 71.3103 107.438 71.4537 107.456C71.5972 107.474 71.7427 107.463 71.882 107.425C72.8105 107.281 73.676 106.867 74.3711 106.234C74.7709 105.824 75.0617 105.321 75.2167 104.769C75.3717 104.218 75.3861 103.637 75.2585 103.078C75.125 102.526 74.8285 102.027 74.4076 101.645C73.9867 101.264 73.4608 101.018 72.8982 100.939C71.8364 100.798 70.785 101.135 69.7622 101.373C68.5396 101.657 67.3331 102.008 66.1084 102.281C65.8269 102.359 65.5877 102.545 65.4436 102.799C65.2994 103.053 65.2619 103.353 65.3395 103.635C65.417 103.916 65.6032 104.155 65.8571 104.299C66.111 104.444 66.4117 104.481 66.6932 104.404L66.6949 104.41Z" fill="#333333"/>
<path d="M72.5401 107.199C72.0537 107.144 72.402 107.112 72.4548 107.254C72.5098 107.405 72.6683 107.538 72.6749 107.711C72.6941 108.077 72.2479 108.371 72.008 108.607C71.8089 108.817 71.6978 109.096 71.6978 109.385C71.6978 109.675 71.8089 109.953 72.008 110.163C72.1015 110.625 72.1101 111.1 72.0334 111.564C71.9735 112.111 71.8846 112.654 71.7671 113.191C71.7605 113.222 71.7005 113.386 71.755 113.233C71.8149 113.068 71.6878 113.364 71.6686 113.402C71.5585 113.622 71.4353 113.838 71.3027 114.046C71.053 114.504 70.6691 114.875 70.2023 115.11C69.4303 115.396 68.6278 115.594 67.8107 115.697C67.4255 115.765 67.0277 115.82 66.6443 115.91C66.0814 116.042 66.7543 115.928 66.4429 115.952C66.3174 115.962 66.192 115.963 66.0666 115.964C64.4325 115.975 62.8072 115.783 61.1699 115.843C59.7575 115.894 59.7509 118.095 61.1699 118.043C62.953 117.979 64.7742 118.309 66.5474 118.143C67.4916 118.029 68.4284 117.861 69.3534 117.64C70.317 117.493 71.2323 117.121 72.0251 116.554C73.0145 115.733 73.6988 114.602 73.9678 113.345C74.2506 111.767 74.6374 109.972 73.5656 108.607V110.163C74.4459 109.303 75.1293 108.336 74.7705 107.052C74.6479 106.525 74.3695 106.048 73.9715 105.682C73.5735 105.316 73.0745 105.079 72.5395 105C72.2482 105.002 71.9692 105.119 71.7632 105.325C71.5572 105.531 71.4407 105.809 71.4392 106.101C71.4459 106.391 71.564 106.666 71.7689 106.871C71.9738 107.076 72.2498 107.194 72.5395 107.201L72.5401 107.199Z" fill="#333333"/>
<path d="M25.7345 67.3947C25.4088 68.6116 25.0127 69.8049 24.6479 71.0098C24.3728 71.9137 23.5899 72.7405 22.994 73.459C21.6081 75.1298 20.078 76.6747 18.7372 78.3851C17.4124 80.0801 16.2168 81.9578 15.786 84.0979C15.2825 86.5663 14.9467 89.0661 14.7808 91.5799C14.6082 95.4149 14.7484 99.2576 15.2001 103.07C15.5759 106.806 16.0292 110.535 16.5139 114.259C16.9398 117.531 17.3277 120.827 17.9483 124.068C18.214 125.458 20.3355 124.87 20.0703 123.483C19.562 120.827 19.2269 118.13 18.8709 115.451C18.3791 111.745 17.9224 108.034 17.5296 104.316C17.0957 100.728 16.8863 97.1165 16.9024 93.5022C16.9634 91.0666 17.2078 88.639 17.6336 86.2402C17.7686 85.159 18.0232 84.0962 18.3928 83.0713C18.8031 82.1348 19.32 81.2487 19.9333 80.4306C21.3198 78.505 23.0375 76.8425 24.55 75.0193C25.2878 74.1291 26.2891 73.08 26.6605 71.9681C27.1006 70.656 27.499 69.3197 27.8566 67.9839C28.2241 66.6146 26.1015 66.0303 25.7345 67.3986V67.3947Z" fill="#333333"/>
<path d="M34.2767 94.3571C34.7808 97.9326 34.8871 101.553 34.5936 105.152C34.2659 108.148 34.0977 111.16 34.0896 114.174C34.1034 115.589 36.3041 115.593 36.2904 114.174C36.2974 111.16 36.4656 108.148 36.7943 105.152C37.0889 101.553 36.9827 97.9325 36.4774 94.3571C36.4687 94.0681 36.35 93.7932 36.1455 93.5887C35.941 93.3843 35.6661 93.2655 35.377 93.2568C35.0858 93.2587 34.807 93.3752 34.601 93.5812C34.3951 93.7871 34.2785 94.0659 34.2767 94.3571Z" fill="#333333"/>
<path d="M34.4247 116.051C37.9932 114.828 41.4798 113.36 44.9641 111.92C46.6725 111.214 48.3808 110.511 50.0649 109.749C51.9581 108.892 53.8354 107.984 55.7803 107.249L54.5374 106.743C55.7045 108.446 56.7402 110.235 57.6355 112.095C58.7436 114.253 59.7878 116.444 60.8139 118.641L61.2084 117.136C54.1231 120.817 47.199 124.901 39.7142 127.743C37.0089 128.833 34.2056 129.662 31.3426 130.218C29.2293 130.584 26.8916 130.666 24.9147 129.798C22.1792 128.598 20.7999 125.837 20.0313 123.097C19.6461 121.736 17.5252 122.314 17.9092 123.682C18.7202 126.571 20.1298 129.386 22.6958 131.086C24.8047 132.483 27.4346 132.821 29.9082 132.607C32.7215 132.291 35.4856 131.632 38.139 130.645C42.1298 129.237 46.0213 127.562 49.7871 125.631C54.007 123.514 58.1296 121.212 62.3187 119.036C62.5658 118.884 62.7447 118.643 62.8183 118.362C62.8919 118.082 62.8544 117.784 62.7137 117.53C61.6876 115.33 60.6434 113.141 59.5353 110.983C58.6396 109.124 57.604 107.335 56.4372 105.632C56.3115 105.426 56.123 105.266 55.8994 105.175C55.6757 105.084 55.4288 105.067 55.1949 105.126C51.5251 106.514 48.005 108.298 44.3787 109.797C40.8938 111.238 37.4078 112.706 33.8393 113.929C32.5073 114.385 33.08 116.515 34.4247 116.051Z" fill="#333333"/>
<path d="M38.128 152.757C34.5414 152.325 31.123 151.338 27.6332 150.443C24.4333 149.623 21.2411 148.77 18.0693 147.846C16.2449 147.315 14.4083 146.783 12.6356 146.094L13.4059 147.448C13.5869 146.572 13.8279 145.71 14.1272 144.867C14.5921 143.388 15.0774 141.915 15.5516 140.438C16.6746 136.942 17.7909 133.429 18.6079 129.846C19.1444 127.494 19.5042 125.088 19.8183 122.698C19.8168 122.407 19.7003 122.128 19.4943 121.922C19.2883 121.716 19.0093 121.599 18.718 121.598C18.4284 121.605 18.1527 121.723 17.9479 121.928C17.7431 122.133 17.6248 122.408 17.6176 122.698C17.1079 126.531 16.308 130.319 15.2248 134.031C14.2724 137.309 13.1891 140.547 12.1553 143.8C11.7916 144.8 11.4988 145.824 11.2789 146.864C11.2125 147.146 11.255 147.441 11.3979 147.693C11.5408 147.944 11.7735 148.131 12.0491 148.218C15.5079 149.466 19.031 150.527 22.6034 151.398C25.4644 152.168 28.3253 152.939 31.1951 153.673C33.4752 154.254 35.791 154.683 38.1275 154.959C38.4188 154.958 38.6978 154.841 38.9038 154.635C39.1098 154.429 39.2263 154.15 39.2279 153.859C39.2213 153.569 39.1032 153.293 38.8983 153.088C38.6933 152.883 38.4173 152.765 38.1275 152.759L38.128 152.757Z" fill="#333333"/>
<path d="M41.3388 43.7765C43.9797 40.6406 47.8745 39.2652 51.4398 37.4586C52.44 36.9524 53.432 36.4298 54.4036 35.8708C54.5032 35.8158 55.2454 35.4659 55.2493 35.3713C55.2493 35.3784 54.8124 35.4136 54.9467 35.1936C54.7739 35.4769 55.7213 36.2521 55.8875 36.3406C56.8905 36.8759 57.762 36.4237 58.595 35.8312C59.3322 35.3064 60.0524 34.754 60.8106 34.26C61.9924 33.4898 60.8909 31.5829 59.6997 32.3598C58.9416 32.8549 58.2214 33.405 57.4841 33.931C57.3873 33.9998 56.8514 34.2803 56.8316 34.386C56.7494 34.4226 56.7678 34.4243 56.8866 34.3909L57.0368 34.5009C57.0929 34.6748 57.0643 34.615 56.951 34.3216C56.8925 34.178 56.8066 34.0471 56.6979 33.9365C56.5661 33.7725 56.4105 33.6291 56.2363 33.5112C55.1794 32.8263 54.2353 33.4298 53.295 33.9706C52.2496 34.5714 51.1839 35.1303 50.1083 35.6711C46.4347 37.5185 42.5008 38.9962 39.7846 42.2179C38.8778 43.2946 40.4266 44.8586 41.341 43.7743L41.3388 43.7765Z" fill="#333333"/>
<path d="M61.5111 34.3187C61.0626 28.3539 57.7857 22.5768 52.466 19.6467C47.1291 16.7067 40.8146 16.1455 34.915 17.4114C32.2861 17.9572 29.8434 19.1744 27.8247 20.9445C26.6987 22.0193 25.7988 23.3083 25.1777 24.7356C25.015 25.1881 24.7649 25.6042 24.4416 25.9602C23.9432 26.518 23.4006 27.0346 22.8191 27.505C17.6616 31.7016 16.9321 39.0137 18.2168 45.149C18.9793 48.791 20.8461 51.7662 23.0265 54.726C25.1942 57.6688 27.0605 60.9256 27.0341 64.6777C27.0242 66.0938 29.2249 66.0954 29.2348 64.6777C29.2579 61.4241 28.0668 58.6161 26.4492 55.8527C24.8603 53.1377 22.6452 50.8601 21.3693 47.947C20.2461 45.2262 19.7407 42.2901 19.8893 39.3504C19.9994 36.3454 20.6046 33.2728 22.5467 30.8885C23.4119 29.9558 24.3304 29.074 25.2977 28.2477C25.7764 27.7834 26.2189 27.2831 26.6214 26.7513C26.9249 26.2441 27.1949 25.7176 27.4297 25.1752C28.1186 23.8382 29.106 22.6777 30.3154 21.7835C31.3499 21.0309 32.4882 20.4325 33.6946 20.007C38.5819 18.4466 43.8498 18.5592 48.6658 20.3272C51.6173 21.3577 54.2003 23.2338 56.093 25.7217C57.9858 28.2096 59.1047 31.1994 59.3103 34.3187C59.4159 35.7221 61.6178 35.7337 61.5111 34.3187Z" fill="#333333"/>
<path d="M182.329 122.314C186.75 127.221 191.174 132.125 195.654 136.978C196.058 137.414 196.461 137.849 196.865 138.284C197.252 138.633 197.608 139.015 197.931 139.425C197.981 139.503 197.986 139.399 197.978 139.696C197.972 139.924 197.978 140.153 197.978 140.381C197.978 141.029 197.978 141.677 197.978 142.324C197.978 142.765 198.179 144.589 197.868 144.745C197.624 144.785 197.376 144.785 197.133 144.745H34.3135C34.1853 144.745 33.6335 144.825 33.5471 144.745C33.4162 144.624 33.5355 143.687 33.5361 143.474C33.5361 142.719 33.5361 141.965 33.5361 141.21C33.4629 140.627 33.4629 140.038 33.5361 139.455C33.5218 139.502 33.7089 139.279 33.7732 139.211L34.374 138.571C35.2994 137.587 36.2206 136.601 37.1376 135.614C39.3585 133.23 41.5725 130.838 43.7795 128.44C44.7379 127.399 43.1853 125.839 42.2236 126.884C39.9003 129.405 37.5712 131.921 35.2362 134.43C34.3192 135.415 33.4006 136.397 32.4803 137.377C32.0616 137.739 31.7189 138.18 31.4723 138.675C31.3261 139.239 31.2803 139.824 31.337 140.403C31.337 141.841 31.2578 143.303 31.3298 144.738C31.3371 145.036 31.403 145.329 31.5236 145.601C31.6443 145.873 31.8174 146.119 32.033 146.324C32.2487 146.529 32.5026 146.689 32.7803 146.796C33.0581 146.903 33.3542 146.954 33.6516 146.946C34.2497 146.966 34.8516 146.946 35.4496 146.946H196.148C196.708 146.946 197.27 146.963 197.829 146.946C198.395 146.969 198.949 146.778 199.38 146.41C199.811 146.042 200.088 145.526 200.155 144.963C200.234 143.711 200.241 142.456 200.178 141.204C200.178 140.151 200.387 138.916 199.659 138.053C198.913 137.173 198.07 136.353 197.286 135.504C195.215 133.262 193.156 131.01 191.108 128.748C188.694 126.09 186.286 123.427 183.885 120.759C182.935 119.704 181.383 121.264 182.329 122.314Z" fill="#333333"/>
<path d="M68.8012 12.7794C72.0069 9.73127 75.2512 6.72342 78.474 3.69403C79.2216 2.99104 79.968 2.28698 80.7132 1.58186C81.4592 0.873292 80.3306 -0.253408 79.5862 0.453172C76.2933 3.58032 72.9665 6.67155 69.6568 9.78114C68.9948 10.4033 68.3339 11.0266 67.6742 11.6511C66.9286 12.3597 68.0572 13.4864 68.8012 12.7794Z" fill="#077DB8"/>
<path d="M72.2716 18.7188C77.263 15.9236 82.2983 13.2082 87.31 10.4497C88.209 9.95496 87.4056 8.57451 86.5054 9.07163C81.4937 11.8301 76.4584 14.5455 71.467 17.3407C70.5716 17.8422 71.3742 19.2211 72.2716 18.7188Z" fill="#077DB8"/>
<path d="M73.9895 25.2707C77.7754 24.5857 81.5693 23.9298 85.3532 23.2292C86.3606 23.0425 85.9342 21.5044 84.9296 21.6904C81.1437 22.391 77.353 23.0469 73.5659 23.7319C72.558 23.9142 72.9848 25.4523 73.9895 25.2707Z" fill="#077DB8"/>
</svg>
